<?xml version="1.0" encoding="utf-8"?>
<!-- Generator: Adobe Illustrator 27.0.0, SVG Export Plug-In . SVG Version: 6.00 Build 0)  -->
<svg version="1.1" id="Layer_1" xmlns="http://www.w3.org/2000/svg" xmlns:xlink="http://www.w3.org/1999/xlink" x="0px" y="0px"
	 viewBox="0 0 1920 816" style="enable-background:new 0 0 1920 816;" xml:space="preserve">
<style type="text/css">
	.st0{fill:#8E3233;}
	.st1{fill:#FBF9F9;}
	.st2{fill:#016C44;}
	.st3{fill:#006B43;}
	.st4{fill:#8C3131;}
	.st5{fill:#8C3132;}
	.st6{fill:#8C3031;}
	.st7{fill:#C9373C;}
	.st8{fill:#8D3132;}
	.st9{fill:#800101;}
	.st10{fill:#7E2121;}
	.st11{fill:#F9FBFA;}
	.st12{fill:#F8FBFA;}
	.st13{fill:#FAFCFB;}
	.st14{fill:#F7F2F2;}
	.st15{fill:#FBF8F8;}
	.st16{fill:#FAF7F7;}
	.st17{fill:#006A42;}
	.st18{fill:#036D45;}
	.st19{fill:#097049;}
	.st20{fill:#903637;}
</style>
<g>
	<path class="st0" d="M55.8,579.8C55.8,579.7,55.8,579.7,55.8,579.8c20.7-0.1,41.4-0.1,62.3-0.1c0-13.6,0-27.6,0.3-42
		c1.7-0.3,3.1-0.3,4.5-0.3c179.5,0,359,0,538.4,0c0,14.3,0,28.5,0,42.3c20.9,0,41.5,0,62.2,0c-1.2,5.3-1.2,5.3-6.2,5.3
		c-17.5,0.1-35,0.1-52.4,0.2c-1.2,0-2.3,0-3.6,0c0,1.4,0,2.4,0,3.7c19.5,0,39,0,58.9,0c-1.6,4.4-3.1,8.4-4.6,12.5
		c-2.9,7.9-5.7,15.7-8.5,23.6c-0.3,0.9-0.2,2.3,0.2,3.1c3.7,7.1,7.6,14,11.4,21.1c1.5,2.7,3,5.4,4.8,8.8c-28.7,0-56.8,0-85.1-0.3
		c6.6-7.6,13.4-14.9,19.6-21.7c-12,0-25.3,0-38.7,0c-0.6,0-1.3-0.1-1.9-0.1c-152.3,0-304.6,0-457.2,0 M55.8,579.9c0,0,0-0.1,0-0.1
		 M160.3,635.9c-13.6,0-27,0-39,0c6.2,6.7,13,14.1,19.9,21.6c-13.3,0.2-26.7,0.2-40.1,0.2c-13.8,0-27.7-0.1-41.5-0.1
		c-1,0-2.1,0-3.7,0c4-7.5,7.8-14.6,11.5-21.6c1.3-2.5,2.9-4.8,4-7.4c0.6-1.5,0.8-3.5,0.3-5c-4.1-11.6-8.3-23.1-12.6-34.8
		c19.6,0,39.2,0,59.1,0c0-1.2,0-2.2,0-3.7c-1.2,0-2.3,0-3.4,0c-17.6-0.1-35.2-0.3-52.7,0c-3.9,0.1-5.7-1.2-6.2-5.2 M569.4,582.8
		c0-4.8,0-9.6,0-14.7c1.6,0,2.9,0,4.1,0c1.3,0,2.7,0,4.2,0c-2-5.6-2.2-5.7-7.2-5.7c-44.4,0-88.8,0-133.2,0c-1.1,0-2.2,0-3.4,0
		c1.3,6.2,5.9,6.2,10.6,5.7c0,4.2,0,7.9,0,11.8c-3.6,0-6.9,0-10.4,0c0-2.3,0-4.3,0-6.3c0-5.2-3-9.6-7.8-11.3
		c-3.5-1.3-7.3-0.1-9.2,2.6c-1.7,2.6-1.3,6.2,1.5,8.7c1.9,1.7,4.3,2.6,6.5,4c0.7,0.4,1.4,1,2.1,1.5c-0.7,0.4-1.4,0.9-2.2,1.1
		c-3.2,0.6-4,2.3-1.9,4.9c1.2,1.5,2.7,2.8,4.2,3.9c4.6,3.3,6.3,2.5,7.1-2.9c3.4,0,6.7,0,10.5,0c-1,5.8-0.3,10.5,6.8,11.4
		c0-9.7,0-19.4,0-29.2c3.2,0,6,0,9.3,0c0,2.3,0.3,4.4-0.1,6.5c-0.9,5.4,1.8,8.8,5.8,11.9c3.9,3,7.8,4.3,12.3,1.3
		c0.5,6.8,1.4,7.9,7.3,9.5c0-9.8,0-19.5,0-29.3c3.2,0,6.2,0,9.5,0c0,3,0.3,5.9-0.1,8.7c-0.8,6.2,2.5,9.9,7.3,12.8
		c3.1,1.9,6.4,2.7,9.7,0.8c3.3-1.9,4.5-4.9,4.5-8.7c-0.1-4.5,0-9,0-13.6c2.7,0,5,0,7.6,0c0,6.9,0,13.8,0,20.6c0,5.7,1.2,7.2,7.2,8.5
		c0-9.8,0-19.5,0-29.2c4.1,0,7.9,0,11.9,0c0,4,0,7.8,0,11.1c-1.5,0.9-3.6,1.4-3.7,2.3c-0.2,1.1,0.9,2.7,1.8,3.8
		c1,1.3,2.2,2.4,3.5,3.3c1.4,0.9,3,1.3,4.5,2c0.4-1.4,0.7-2.8,1.1-4.2c0.1-0.2,0.2-0.3,0.4-0.6c3.5,0,7,0,11,0
		c-1.2,5.9,0.4,10.1,6.8,11.3C569.4,592.6,569.4,588,569.4,582.8 M511.7,629.3c49.7,0,99.5,0,149.2,0c0-1.5,0-2.6,0-3.7
		c-180.9,0-361.6,0-542.6,0c0.1,1.3,0.1,2.4,0.2,3.7C249.6,629.3,380.3,629.3,511.7,629.3 M373.3,562.4c-23.4,0-46.9,0-70.7,0
		c1.7,3.1,2.4,6.3,6.4,6c1,5.6-1.7,11.6,3.4,16.3c4.7,4.3,9.5,6.6,16.2,2.1c-1.7,6.5,0.9,9.6,6.6,10.7c0-9.7,0-19.4,0-29.3
		c5.2,0,10.1,0,14.8,0c0,3.2,0,6.3,0,8.4c-2.6,0.4-4.7,0.7-6.7,1c0.6,1.9,0.7,4.2,1.9,5.7c4.2,5.5,8.8,10.7,13.3,16.1
		c1.4-0.8,2.4-1.4,3.8-2.3c-3.7-3.5-7.2-6.8-11-10.4c9-4.1,5-12.1,6.4-18.5c4,0,7.9,0,12,0c0,4,0,7.8,0,11c-1.6,0.9-3.6,1.4-3.8,2.3
		c-0.2,1.1,0.9,2.7,1.8,3.8c1,1.3,2.2,2.4,3.5,3.3c1.4,0.9,3,1.4,4.5,2c0.4-1.4,0.7-2.8,1.1-4.1c0.1-0.2,0.2-0.3,0.4-0.6
		c3.5,0,7,0,11,0c-1.3,5.9,0.5,10.1,7,11.4c0-9.8,0-19.5,0-29.3c1.6,0,2.9,0,4.1,0c1.3,0,2.6,0,4.2,0c-2.7-5.7-2.7-5.7-8.2-5.7
		C388.1,562.4,381,562.4,373.3,562.4 M206.6,568.1c6.1,0,12.1,0,18.1,0c0,1.9,0,3.3,0,4.8c-6.3,0-12.3-0.1-18.3,0.1
		c-1.2,0-2.4,0.8-3.2,1.1c3.4,2.7,6.6,4.8,9.2,7.5c1.5,1.5,1.9,4-0.1,5.8c-1.7,1.6-3.4,2.1-5.6,0.1c-0.8-0.7-3.4-0.6-4.1,0.2
		c-0.9,0.8-1.1,3-0.6,4.2c0.4,1.2,2.1,2.6,3.3,2.7c4.4,0.2,5.4,3.5,6.8,6.5c0.6,1.3,1.3,2.6,2,4c1.3-0.7,2.2-1.2,3.3-1.8
		c-1.9-2.6-3.8-5.2-5.9-8c3.7-1.4,7.8-2.9,7.3-7.2c-0.4-3.3-2.7-6.3-4.1-9.2c2.9,0,6.4,0,10.3,0c0,4.5-0.1,8.9,0,13.3
		c0,0.9,0.4,2.2,1,2.7c1.7,1.2,3.7,2,6,3.2c0-10.2,0-19.9,0-29.7c4,0,7.6,0,11.6,0c0,6.9,0,13.6,0,20.4c0,5.6,1.2,7.1,7.2,8.8
		c0-9.8,0-19.5,0-29.1c8.7,0,17.2,0,25.7,0c0,3,0,5.9,0,9c-4.9,0-9.5,0-14.2,0c-2.2,0-3.8,0.7-3.9,3.2c0,2.7,3.2,7.3,5.8,7.9
		c0.7,0.2,2.5-0.9,2.5-1.2c-0.6-4.4,2.1-4.4,5.2-4.2c1.6,0.1,3.1,0,4.9,0c0,3.4-0.2,6.4,0,9.4c0.3,4.1,4.4,3.4,7,5.9
		c0-10.7,0-20.4,0-30.5c2.9,0,5.5,0,8.7,0c-2.1-2.4-2-5.6-6-5.6c-29.2,0.1-58.3,0.1-87.5,0.1c-0.8,0-1.5,0.2-2.4,0.3
		c2.6,5.4,2.6,5.4,8.2,5.4C205.1,568.1,205.6,568.1,206.6,568.1 M451.3,601.6c-4.8-1.4-7.9-0.4-9.7,3.1c-1.7,3.4-0.2,8.3,3.4,10.7
		c3.6,2.4,7.7,1.9,11-1.6c-0.9-1-1.8-2-2.6-3c-1.5,0.6-2.7,1.2-4,1.6c-2.2,0.6-4.3,0.3-4.8-2.2c-0.5-2.5,1.3-4.4,3.6-4.4
		c2.4,0,5.3,0.5,7.2,1.9c3.3,2.5,6.1,5.6,8.7,8.8c1.4,1.7,2.4,2,4.2,0.5C463.5,610.9,458.7,605.1,451.3,601.6 M573,609.3
		c2.2,2,4.5,4,6.6,6.1c1.6,1.6,2.6,1.2,3.9-1c-4.6-4-9.1-8.3-14-12.1c-3.2-2.5-6-2.1-9.2,0.4c0.8,1.2,1.6,2.4,2.6,3.9
		c2.7-2.4,5.1-1.5,7.3,0.4C571,607.7,571.8,608.3,573,609.3 M397.2,546.8c-0.6-0.5-1.3-1-2-1.6c-1.6,1.5-3.2,3-4.9,4.6
		c1.8,1.7,3.4,3.1,5.1,4.7c1.8-1.7,3.3-3.1,5-4.7C399.3,548.7,398.4,547.9,397.2,546.8 M283.9,554.1c1.7-1.4,3.4-2.7,5.3-4.2
		c-2-1.8-3.6-3.3-5.1-4.7c-1.8,1.6-3.4,3-5.1,4.5C280.7,551.3,282.1,552.6,283.9,554.1z"/>
	<path class="st1" d="M59.5,585.4c0.1-0.3,0.2-0.2,0.3-0.2c19.3,0,38.7,0,58,0c0.1,0,0.2,0,0.3,0c0,1.1,0,2.2,0,3.6
		c-19.4,0.3-38.8,0.3-58.2,0.3c-0.2,0-0.3,0-0.5,0C59.5,588,59.5,586.8,59.5,585.4z"/>
	<polyline class="st1" points="62.9,585.2 63.7,587.4 59.2,589.1 57.8,585.2 	"/>
	<polyline class="st1" points="52.5,664.4 55.9,657.9 61.1,660.6 60.6,661.5 	"/>
	<polyline class="st1" points="726.6,663.5 723.4,657.6 718.3,660.3 718.7,661.2 	"/>
	<path class="st1" d="M723.6,658.1c-0.2-0.3-0.4-0.2-0.5-0.2c-29.6,0-59.2,0-88.9,0c-0.1,0-0.2,0-0.4,0c0,1.1,0,2.2,0,3.6
		c29.7,0.3,59.4,0.3,89.1,0.3c0.2,0,0.5,0,0.7,0C723.6,660.6,723.6,659.5,723.6,658.1z"/>
	<path class="st1" d="M57.2,658.1c0.2-0.3,0.3-0.2,0.5-0.2c29.2,0,58.3,0,87.5,0c0.1,0,0.2,0,0.4,0c0,1.1,0,2.2,0,3.6
		c-29.2,0.3-58.5,0.3-87.7,0.3c-0.2,0-0.5,0-0.7,0C57.2,660.6,57.2,659.5,57.2,658.1z"/>
	<path class="st0" d="M624.9,670.6c-0.3,0-0.3-0.3,0-0.5c3.3-3,6.3-5.7,9.3-8.5c29-0.1,57.9-0.3,86.9-0.4c4.4,0,5.7,1.1,6.4,5.8
		c-32.5-0.9-65,0.5-97.5,3.4C628.3,670.6,626.8,670.6,624.9,670.6z"/>
	<path class="st0" d="M144.9,661.6c3.1,2.8,5.8,5.7,8.6,8.8c-1.1,0.2-2.2,0.2-3.7,0c-9-0.9-17.6-1.8-26.3-2.3
		c-12.2-0.6-24.4-1-36.6-1.3c-10-0.2-19.9-0.1-29.9,0c-2,0-3.9,0.4-5.9,0.6c0-0.3,0-0.6,0-1.1c1.6-4.7,4.8-5.3,9.2-5.2
		C88.5,661.5,116.5,661.5,144.9,661.6z"/>
	<path class="st2" d="M402.3,145.4c1.2,0.2,2,0.5,2.9,0.6c7.7,0.9,15.5,1.7,23.2,2.6c17.7,2.1,34.8,6.8,51.5,12.9
		c6.9,2.5,13.6,5.4,20.3,8.3c15.5,6.7,29.9,15.2,43.5,25c6.7,4.8,13.4,9.7,19.5,15.2c8.3,7.3,16.4,14.9,24.1,22.8
		c5.3,5.5,10.3,11.4,14.7,17.6c7.7,10.7,15.4,21.5,22.1,32.8c5.6,9.5,10.1,19.7,14.6,29.8c6.4,14.5,11,29.7,14.4,45.2
		c1.5,6.8,2.5,13.7,3.7,20.6c3.2,17.6,2.8,35.4,2.5,53.1c-0.2,8.3-1.2,16.6-2.5,24.8c-1.7,10.6-3.7,21.3-6.5,31.7
		c-3,11-7.1,21.8-10.8,32.6c-0.7,1.9-1.7,3.8-2.7,6.1c-0.8,0.5-1.3,0.7-1.8,0.7c-27.4,0-54.7,0-82.1,0c-0.8,0-1.6-0.4-2.3-0.8
		c0.4-0.7,0.7-1.3,1-1.8c8.5-12.2,14.9-25.5,19.9-39.4c3.8-10.6,7.3-21.4,8.7-32.7c0.9-7.5,2.8-14.9,3.1-22.4
		c0.6-17.4,0.1-34.7-3.6-51.9c-3.3-15.1-7.7-29.9-14.5-43.8c-4.8-9.8-10.4-19.4-16.6-28.4c-6.2-9-13.1-17.7-20.7-25.6
		c-7-7.3-15.1-13.7-23.1-20.1c-15.6-12.4-33-21.4-51.7-28.1c-10.4-3.7-20.9-6.8-31.9-8.2c-8.8-1.1-17.7-2.6-26.6-3.1
		c-11.6-0.6-23.2-0.3-34.6,1.9c-9.8,1.9-19.6,3.8-29.2,6.4c-15.6,4.2-30.2,11-44.1,19.3c-12.6,7.4-24.1,16.2-34.7,26.1
		c-12.5,11.7-23.3,24.8-32.1,39.5c-5.2,8.7-10,17.7-14.1,27c-4.8,10.9-8,22.4-10.8,34c-3,12.8-4.3,25.7-4.7,38.7
		c-0.3,9.4,1.1,18.8,1.8,28.2c0.9,12.1,4,23.8,7.6,35.3c5.5,17.6,13.6,34,23.6,49.6c-0.6,0.2-1,0.3-1.5,0.3c-27.4,0-54.7,0-82.1,0
		c-1,0-2-0.4-3-0.9c-2.4-6.1-5-11.8-7-17.8c-5.6-16.6-10.4-33.5-12.3-51c-1.1-10.4-2.5-20.7-3.1-31.1c-0.4-7.2,0.4-14.5,0.5-21.7
		c0.1-10.7,1.2-21.2,3.3-31.7c1.9-9.7,4-19.3,6.3-28.9c3.9-16.3,10-31.9,17.6-46.7c6.7-13,14.4-25.4,22.5-37.6
		c5.8-8.8,12.7-16.9,19.6-24.8c5.1-5.9,10.8-11.3,16.6-16.6c6.4-5.9,12.7-12.2,19.8-17.2c12.1-8.5,24.5-16.6,37.3-24.1
		c13.1-7.6,27.1-13.3,41.5-18.1c13.7-4.5,27.6-8.4,41.9-10.3c9.6-1.2,19.2-2.2,28.8-3.3c0.5-0.1,1.1-0.4,1.6-0.6
		C381.8,145.4,391.9,145.4,402.3,145.4 M222.9,254.7c-0.1-0.1-0.2-0.2-0.1-0.7c0.2-0.4,0.4-0.8,0.6-1.1c2.5-5.5,1.3-10.6-3.4-14.3
		c-4.5-3.5-9.9-3.6-14.3,0.5c-5.9,5.4-11.3,11.3-17.1,17.1c10.4,9.9,20.4,19.5,30.6,29.1c2.1-2.2,3.9-4.2,5.9-6.2
		c-4.3-4.1-8.5-8.1-12.5-11.9c2.9-4.7,6.9-5.4,11.5-4.5c4,0.8,8,1.5,12,2.1c0.9,0.1,2.3,0.1,2.9-0.4c2.1-1.9,4-4,6.4-6.5
		C237.5,256.6,230.6,254,222.9,254.7 M576.5,294.4c-1.8,4.1-3.6,8.2-5.3,12.4c-0.4,0.9-0.7,2.2-0.3,2.9c1.3,2.5,3,4.8,4.9,7.7
		c3-7.5,7.6-13.6,7.9-21.7c0.6,0.5,1,0.8,1.4,1.1c5.3,4.4,10.4,4.6,15.4,0.5c4.7-3.8,5.8-8.9,2.5-14.7c-3.8-6.7-8-13.1-12.2-19.9
		c-11.9,7.7-23.6,15.1-35.5,22.8c1.6,2.5,3.1,4.8,4.6,7.1c5.1-3.2,9.9-6.3,14.6-9.3C577.3,286.7,578.7,290,576.5,294.4 M483.5,193.8
		c1.2-3.7,2.4-7.4,3.7-11.3c-2.6-0.9-4.9-1.6-7.4-2.5c-2.9,8.6-5.8,17-8.7,25.4c-2.5-8-4.3-15.9-6.1-23.8c-1.7-7.3-1.6-7.3-8.8-9.6
		c-0.2-0.1-0.4,0.1-0.8,0.1c-4.4,13-8.8,26.2-13.3,39.5c2.6,0.9,4.9,1.6,7.4,2.5c2.9-8.6,5.7-16.8,8.7-25.7c0.4,1.2,0.7,1.8,0.8,2.4
		c2,8.7,3.9,17.3,6,26c0.3,1.1,0.9,2.7,1.7,3.1c2.1,1.1,4.5,1.6,7,2.4C477.1,212.7,480.2,203.5,483.5,193.8 M282.6,203.3
		c-0.4-0.5-0.8-1-1.2-1.5c-5.3-6-11.9-8.5-19.6-6.1c-8.1,2.5-14.4,7.1-15.8,16.3c-1.2,8.1,2.3,14.7,7.3,20.4
		c5,5.7,11.5,7.9,18.9,5.7c7.9-2.3,14-6.9,15.9-15.5C289.7,215.4,286.7,209.4,282.6,203.3 M354.2,188c0.7,0.6,1.6,1.1,2.2,1.8
		c3.6,4.5,7.1,9.2,10.7,13.7c0.6,0.8,1.6,1.8,2.4,1.7c3.2-0.2,6.3-0.7,10-1.1c-6.8-8.1-13.2-15.7-19.7-23.4
		c4.5-6,8.8-11.8,13.3-17.8c-7.2-0.6-12.7,1.2-16,7.8c-1.4,2.9-3.6,5.3-5.5,7.9c-1.3,1.8-2.6,3.5-4.1,5.7
		c-0.9-6.5-1.6-12.3-2.4-18.3c-2.9,0.4-5.5,0.7-8.4,1.1c1.8,14,3.5,27.8,5.3,41.7c3.1-0.4,5.7-0.8,8.4-1.1c-0.2-1.7-0.1-3.1-0.5-4.4
		C347.8,197.4,349.6,192.5,354.2,188 M578.3,248.8c-6.5-6.8-13-13.6-19.7-20.6c-10.2,9.7-20.2,19.3-30.4,29
		c7.4,7.8,14.7,15.4,22,23.1c1.8-1.7,3.4-3.2,5.2-4.9c-5.5-5.8-10.7-11.3-16.1-17c2.8-2.7,5.4-5.2,8.2-7.8
		c4.9,5.1,9.6,10.1,14.6,15.3c1.6-1.8,3.1-3.5,4.7-5.4c-4.7-4.9-9.4-9.8-14.2-14.9c2.4-2.3,4.5-4.3,6.8-6.4
		c5.3,5.5,10.4,10.9,15.6,16.3c1.4-1.3,2.6-2.6,3.9-3.7C580.3,250.8,579.5,250,578.3,248.8 M170.9,282.2c-2.8,4.4-5.6,8.8-8.5,13.4
		c11.9,7.6,23.5,15.1,35.4,22.7c5.8-9.1,11.5-17.9,17.2-26.9c-2.1-1.3-3.9-2.5-6-3.8c-4.2,6.6-8.4,13-12.7,19.7
		c-3.3-2.1-6.4-4.1-9.5-6.1c3.9-6,7.5-11.8,11.3-17.7c-2-1.3-3.9-2.5-5.9-3.8c-3.8,6-7.5,11.7-11.4,17.7c-2.7-1.7-5.2-3.3-7.8-5
		c4.2-6.6,8.2-12.8,12.2-19.1c-2.2-1.4-4-2.6-6-3.8C176.4,273.7,173.8,277.8,170.9,282.2 M138.3,412.3c-3.6,1.8-5.9,4.9-6.4,8.7
		c-0.5,3.7-0.5,7.5,0.1,11.2c1,6,5.2,9.6,10.2,10c5.7,0.4,9.9-2.5,12-8.6c1.3-3.6,2-7.4,3-11.1c0.7-2.5,1.6-4.9,4.8-4.7
		c3,0.2,4.4,2.2,5.2,4.9c1.7,5.9-0.3,9.4-7.4,12.9c0.4,2.5,0.7,5.1,1.1,7.7c8.3-1.4,12.9-5.6,13.6-13.1c0.3-3.6,0.2-7.4-0.7-10.8
		c-0.7-2.7-2.4-5.6-4.6-7.4c-6.4-5.5-16.1-2.9-19.1,5c-1.7,4.4-2.4,9.1-4,13.5c-0.5,1.5-2.5,2.5-3.8,3.7c-1.2-1.4-3.2-2.7-3.6-4.3
		c-1.5-5.3-0.1-7.8,5.4-11c-0.2-2.6-0.4-5.2-0.6-8.1C141.8,411.2,140.2,411.6,138.3,412.3 M599.5,321.5c0.4,3.8,0.8,7.7,1.1,11.5
		c0.2,2.3,0,4.7-2.5,5.7c-2.7,1.1-4.8,0-6.5-2c-4.1-4.8-3.7-10,1.1-14.1c0.4-0.3,0.7-0.7,1-1.1c-1.3-2.4-2.4-4.7-3.7-7
		c-5.6,3-9,7.2-8.8,13.4c0.2,5.6,2.2,10.7,5.8,15c3.6,4.4,8.8,5.8,13.9,4c5.5-1.9,8.3-6,8.3-12c0-1.8-0.2-3.6-0.4-5.4
		c-0.2-3-0.7-6-0.7-9c0-2.7,2-4.3,4.1-3.7c3.3,0.8,7.7,9.4,3.8,12.7c-2,1.7-2,3.1-0.9,5.1c0.8,1.4,1.3,2.9,2.1,4.5
		c4-1.8,6.8-4.6,7.5-9c1-5.5-0.9-10.4-3.7-14.9c-3.1-5.1-8.1-7.3-13-6C602.9,310.4,599.8,314.6,599.5,321.5 M325.9,209.6
		c2.9,3.6,4.6,3.6,11-0.1c-8.4-9.8-16.7-19.5-25-29.3c-4.1-4.8-4.1-4.7-10.2-2.8c-2,0.7-2.6,1.6-2.6,3.6c0,3.9-0.3,7.7-0.4,11.6
		c-0.4,10.1-0.8,20.3-1.3,30.4c8.5-1.8,8.5-1.8,8.7-10.1c0-0.2-0.1-0.5,0-0.6c0.6-0.9,1.1-2.2,2-2.6c2.7-1.2,5.6-2,8.4-3
		C321.9,204.8,322,204.8,325.9,209.6 M435.2,194.4c1.2-9,2.3-18,3.5-27.1c-3.1-0.3-5.7-0.6-8.4-1c-0.3,1.9-0.5,3.5-0.7,5.1
		c-1.1,7.7-2,15.5-3.2,23.2c-0.7,4.5-3.6,6.4-8,5.9c-5.3-0.6-8-3.4-7.8-8c0.1-2.2,0.4-4.5,0.7-6.7c0.9-7.2,1.8-14.4,2.7-21.7
		c-3-0.4-5.6-0.7-8.6-1c-1.1,10.6-2.5,20.9-3.2,31.3c-0.4,5.5,2.8,9.8,8.1,11.6C421.4,209.9,433.3,209.3,435.2,194.4 M520.7,230.4
		c-1.5,1.1-3,2.2-5.3,3.9c2.5-8.6,4.8-16.3,7-23.9c2.3-7.7,2.3-7.7-4.4-12.2c-0.2-0.1-0.5-0.2-1-0.4c-3.3,11.6-6.5,23.1-9.7,34.7
		c-2.3,8.2-2.3,8.2,4.7,13c0.2,0.1,0.4,0.1,0.8,0.2c11.9-8.4,24-16.8,36.3-25.4c-2.7-1.9-5.1-3.6-7.4-5.2
		C534.7,220.1,527.9,225.1,520.7,230.4 M170.7,319c-4.6-4-9.3-8.1-14.1-12.3c-0.8,2-1.2,3.6-2,4.9c-1.5,2.5-0.9,4,1.3,5.8
		c6.8,5.4,13.4,11.1,20.1,16.6c0.6,0.5,1.4,0.7,2.1,1.1c-0.3,0.3-0.5,0.6-0.8,0.9c-9.7-0.5-19.5-0.9-29.2-1.3c-1,0-2.6,0.3-2.9,1
		c-1.2,2.2-1.9,4.7-3,7.4c12.4,0.4,24.4,0.8,36.4,1.1c8.6,0.2,8.6,0.2,11.4-7.8c0-0.1,0-0.2,0-0.6
		C183.8,330.4,177.4,324.9,170.7,319 M616.9,421c-5.5,0-11.1,0-16.8,0c0,2.7,0,5.3,0,8.4c4.1,0,8,0.1,12,0c3.8-0.2,7,1,10.1,3.2
		c6.2,4.4,12.6,8.5,19.2,12.9c0.1-2.2,0-4.1,0.3-5.8c0.6-3-0.7-4.6-3.3-6.1c-4.4-2.4-8.5-5.2-13.1-7.9c5.2-2.9,10-5.6,14.7-8.3
		c0.9-0.5,2-1.5,2.1-2.4c0.3-2.7,0.1-5.4,0.1-8.5c-1.3,0.8-2.4,1.4-3.5,2C631.7,412.7,624.6,416.9,616.9,421 M634.1,394.5
		c0.2,1.7,0.4,3.3,0.7,5.3c2.5-0.3,4.6-0.6,7-1c-1.4-11.1-2.8-22-4.2-33c-2.6,0.4-4.7,0.7-7,1c0.5,4.2,1,8.1,1.4,12.3
		c-11.6,1.5-22.9,2.9-34.5,4.4c0.4,2.9,0.7,5.6,1.1,8.4c11.6-1.5,23-2.9,34.6-4.4C633.4,389.7,633.7,391.8,634.1,394.5 M150.9,477.4
		c0,1.3,0.4,2.7-0.1,3.7c-0.9,2.3-2.3,4.4-3.8,6.9c1.9,0,3.3,0.2,4.5,0c4.1-0.8,6.7,0.8,8.2,4.6c0.5,1.4,1.5,2.7,2.4,4.2
		c1.4-2.4,2.7-4.4,3.7-6.5c0.9-1.8,2-2.5,4-2.3c2.3,0.2,4.6,0,6.8,0c0.3-0.2,0.6-0.3,0.9-0.5c-6.3-5.5-4.9-11-0.7-16.4
		c0.1-0.1,0-0.4-0.2-1.3c-7.8,3.4-11.5-1.3-14.3-7.6c0-0.1-0.2-0.1-0.7-0.6c-1.7,7.6-6.7,10.1-13.9,8.8c-0.1,0-0.3,0.2-0.7,0.4
		C148.3,472.9,149.5,474.9,150.9,477.4 M618.8,495.9c1-1.8,2.2-3.4,3-5.3c0.9-2,2.2-2.9,4.5-2.6c2.2,0.2,4.4,0,7.2,0
		c-1.4-2.5-2.4-4.4-3.6-6.3c-1.1-1.7-1.4-3.1-0.1-4.9c1.3-1.9,2.3-4,4-7c-8.1,2.4-12.7-0.5-15-7.3c0-0.1-0.3-0.2-0.7-0.4
		c-1.2,2-2.5,3.9-3.5,6c-0.9,1.8-2,2.5-4,2.3c-2.3-0.2-4.6,0-7.6,0c1.5,2.6,2.9,4.7,4,7c0.5,1,0.4,2.6,0,3.7c-1,2.3-2.4,4.3-3.9,6.9
		c2.8,0,4.9,0.1,7.1,0c2.2-0.2,3.5,0.5,4.5,2.5C615.7,492.6,617.2,494.4,618.8,495.9 M135.8,375.8c13.3,3.1,26.6,6.2,40.1,9.4
		c2.3-9.8,4.4-19.2,6.7-28.9c-2.4-0.5-4.6-1-6.9-1.6c-1.6,6.9-3.2,13.7-4.8,20.5c-11.4-2.6-22.5-5.2-33.7-7.7
		C136.5,370.3,136,372.8,135.8,375.8 M616.7,350.8c-8.3,2.4-16.6,4.8-25.1,7.2c0.8,2.9,1.6,5.5,2.4,8.2c13.6-3.9,27-7.7,40.4-11.5
		c-0.8-2.9-1.6-5.4-2.4-8.2C626.8,348,622,349.3,616.7,350.8 M154.5,391.9c-7-0.5-14-1-21.3-1.6c-0.2,3-0.3,5.6-0.5,8.5
		c14.1,1.1,27.9,2.1,41.9,3.2c0.2-3,0.4-5.6,0.6-8.5C168.3,392.9,161.7,392.4,154.5,391.9 M503.5,190.9c-0.9-0.4-1.9-0.9-3-1.4
		c-6.4,12.5-12.7,24.9-19.1,37.3c2.7,1.4,5.1,2.6,7.6,3.8c6.5-12.6,12.8-24.9,19.1-37.4C506.5,192.5,505.2,191.8,503.5,190.9z"/>
	<path class="st3" d="M1868.8,527.4c-365.5,0.3-730.9,0.3-1096.6,0.3c0-2.6,0-5,0-7.7c365.3,0,730.7,0,1096.3,0
		C1868.8,522.4,1868.8,524.8,1868.8,527.4z"/>
	<path class="st4" d="M1868.8,330.5c-20.7,0.3-41.4,0.3-62.3,0.3c0-1.2,0-2.3,0-3.7c1.5-0.3,3.1-0.5,4.7-0.8
		c3.9-0.8,5.2-4.7,2.6-8.6c-2.4-3.6-5.1-7.1-7.8-10.5c-6-7.5-12-15-18-22.5c-2-2.5-4.1-5-6.2-7.5c-0.5-0.6-1.8-1.2-2.1-1
		c-1.2,1-2.2,2.2-3.1,3.5c-0.3,0.4-0.1,1.3-0.1,1.9c0,11.8,0.1,23.6-0.1,35.4c-0.1,5.7,4.4,8.7,8.2,9.3c2.2,0.3,4.3,0.6,6.6,0.9
		c0.5,2.3,0.1,3.7-2.9,3.7c-18.7-0.1-37.3-0.1-56-0.1c-0.4,0-0.8-0.1-1.4-0.1c0-1.2,0-2.3,0-3.4c2.8-0.3,5.5-0.5,8.2-1
		c5.5-1.1,7.8-3.9,7.8-9.6c0-24.2,0-48.5,0-72.7c0-5.7-0.2-11.4,0.1-17.1c0.2-5.3-4.2-8.9-8.7-9.4c-2.4-0.3-4.8-0.6-7.3-0.9
		c0-0.9,0-1.8,0-2.8c19.7,0,39.3,0,58.8,0c0.7,2.8-0.4,3.9-3,3.7c-6.6-0.3-10.5,4.5-10.4,10.7c0.2,12.4,0.1,24.9,0.1,37.3
		c0,1,0,2.1,0,3.5c11.1-8.8,21.9-17.4,32.6-25.9c4.9-3.9,9.9-7.6,14.6-11.6c2-1.7,3.8-4,4.7-6.4c1.4-3.6-1.7-7-6.3-7.5
		c-1.1-0.1-2.2-0.1-3.2,0c-2.8,0.3-3.8-0.9-3.1-3.7c15.5,0,31,0,46.6,0c0.6,2.4,0.3,3.8-2.8,3.8c-5.9,0-10.3,3.6-14.6,7
		c-11,8.5-21.8,17-32.7,25.6c-3.4,2.7-6.8,5.5-10.4,8.5c4.2,5.2,8.4,10.2,12.5,15.3c4.9,6.1,9.8,12.2,14.7,18.3
		c4.3,5.3,8.6,10.6,13,15.8c3.1,3.7,6.2,7.5,9.6,10.9c4.4,4.3,9.5,7.8,16.4,8C1868.8,328,1868.8,329.1,1868.8,330.5z"/>
	<path class="st5" d="M1868.8,378.8c-6,0.6-10.4,3.6-13.5,8.6c-8.6,14-17.1,28-25.6,42.1c-2.6,4.3-5.3,8.6-7.8,13
		c-0.6,1-0.8,2.4-0.8,3.6c-0.1,11,0.1,22.1-0.1,33.1c-0.1,5.2,4.7,9.1,9.2,9.2c2,0,4.1,0.1,6.1,0c2.8-0.2,4.1,0.7,3.3,3.8
		c-21.9,0-43.8,0-66,0c-0.1-1.1-0.1-2.3-0.2-3.7c3.1,0,6,0,9,0c5.8,0,9.7-3.9,9.7-9.7c0-7.6-0.4-15.3,0.1-22.8
		c0.4-6.1-1.9-10.9-4.9-15.8c-3-4.9-5.3-10.1-8.1-15c-7.4-13.1-14.8-26.2-22.3-39.2c-2.6-4.5-6.7-6.8-12.1-7c0-1.1,0-2.2,0-3.5
		c18.6,0,37.3,0,56.3,0c0.1,1,0.1,2.1,0.2,3.3c-2.8,0.3-5.5,0.4-8.1,1.1c-3.5,0.9-4.5,2.6-3,5.8c2.9,6.4,6,12.7,9.3,18.8
		c5.7,10.7,11.6,21.2,17.6,32.1c5-8.4,9.8-16.4,14.6-24.4c3.3-5.5,6.8-10.8,9.8-16.4c1.7-3.1,3.1-6.4,3.9-9.8c0.7-2.8-1.7-4.5-4-5.3
		c-2.6-0.9-5.5-1.2-8.5-1.9c0-0.9,0-2,0-3.5c11.7,0,23.5,0,35.5,0C1868.8,376.3,1868.8,377.4,1868.8,378.8z"/>
	<path class="st6" d="M1868.8,558.4c-6.5,0.3-6.7,2-7,8c-0.4,11.7-0.1,23.4-0.1,35.1c0,1.1,0,2.1,0,3.2c-0.3,0.2-0.5,0.4-0.8,0.6
		c-6.6-5.3-11.3-12.5-17-18.6c-5.9-6.3-11.3-13-17.3-19.8c-0.1,1.1-0.2,1.9-0.2,2.7c0,8.3,0,16.5,0,24.8c0,5.5,0.8,6.6,5.9,8.1
		c0.7,0.2,1.3,0.7,2,1c-0.1,0.3-0.2,0.5-0.4,0.8c-6.1,0-12.2,0-19.3,0c1.2-1,1.6-1.6,2.2-1.8c5.6-1.6,6.3-2.5,6.3-8.4
		c0-9.5,0-19.1,0-28.6c0-3.4-2.8-6.4-6-6.8c-0.7-0.1-1.3-0.6-1.9-1c0.1-0.3,0.2-0.6,0.3-0.9c6.1,0,12.1,0,18.2,0.1
		c0.7,0,1.6,0.7,2.1,1.3c3,3.5,5.7,7.2,8.7,10.7c4.4,5.2,9,10.3,14,16.1c0-4.4,0-8.2,0-12c0-2.7,0-5.4,0-8c-0.1-4.3-1.3-5.6-5.5-6.2
		c-0.6-0.1-1.2-0.7-1.8-1.1c0.1-0.3,0.2-0.5,0.3-0.8c5.6,0,11.1,0,17,0C1868.8,557.2,1868.8,557.7,1868.8,558.4z"/>
	<path class="st7" d="M160,635.9c-1.2,7.8-2.5,15.5-3.7,23.3c-0.6,3.6-1,7.3-1.5,11.2c-0.3,0.3-0.6,0.3-1.1,0.1
		c-3-3.1-5.8-5.9-8.5-8.8c-1.2-1.2-2.3-2.5-3.8-4c-7.1-7.6-13.8-15-20.1-21.7C133.3,635.9,146.6,635.9,160,635.9z"/>
	<path class="st8" d="M1332,305c0.4,5.2,0.7,10.2,1.3,15.1c0.5,4.2,3.8,5.5,7.3,6.1c2.6,0.5,5.2,0.6,8,0.9c0,1,0.1,2.2,0.2,3.5
		c-20.4,0-40.6,0-61,0c0-1.1,0-2.3,0-3.4c2.3-0.3,4.5-0.7,6.8-1c6.1-0.7,9.1-4.1,9.1-10.2c0-23.2,0-46.3,0-69.5c0-6.3-0.1-12.7,0-19
		c0.1-6.2-3.9-9.6-10-10c-1.2-0.1-2.4,0.2-3.5,0c-1.9-0.4-3.4-1.2-2.3-3.8c1,0,2.2,0,3.3,0c21,0,42.1-0.2,63.1,0.1
		c7,0.1,14.1,0.9,20.8,2.9c11.4,3.4,18.9,11.2,21.8,23c2.9,11.7-3.1,25.3-13.7,31c-3.7,2-7.7,3.4-11.6,5
		c7.5,10.5,15.1,21.2,22.9,31.9c3.6,5,7.2,10,11.2,14.6c1.6,1.8,4.2,3.5,6.6,3.7c3.4,0.4,3.8,1.8,3.1,4.8c-4.8,0-9.7,0-14.6,0
		c-6.2,0-12.5-0.2-18.7,0.1c-3.1,0.2-5.1-0.9-6.8-3.3c-7.8-11-15.6-22-23.5-33c-3.9-5.4-7.7-10.8-11.7-16.1c-0.4-0.6-1.4-1-2.1-1
		c-1.9-0.1-3.8,0-6.2,0C1332,286.5,1332,295.6,1332,305 M1365.5,232.8c-1.7-2.3-3.1-5.1-5.3-6.8c-8.4-6.4-18.3-5.3-27.9-5.1
		c0,16.9,0,33.5,0,50.5c6.3-0.6,12.3-1.1,18.2-1.7c5.4-0.5,10-3.1,12.9-7.5C1369.3,253,1369,243.2,1365.5,232.8z"/>
	<path class="st8" d="M1351.6,483.9c0.7-4.4,1.5-8.7,1.6-13c0.1-25.5,0.1-51,0-76.6c0-2.7-0.3-5.5-0.7-8.2c-0.5-3.2-3.8-6.1-7.2-6.6
		c-1.3-0.2-2.7-0.5-4-0.6c-1.3-0.1-2.5,0-4,0c0-1.3,0-2.4,0-3.9c1,0,2,0,3.1,0c18.9,0,37.8-0.4,56.6,0.2c10.3,0.3,20.9,0.3,30.5,5
		c8.9,4.4,14.6,11.5,16.5,21.5c1.2,6.6,0.5,12.9-2.3,19c-4.1,8.9-13.6,14.5-22.9,16.3c7.6,10.7,15.1,21.2,22.7,31.8
		c3.2,4.5,6.4,9,9.6,13.4c2.8,3.7,6.4,6,11.3,6.2c0,1.2,0,2.4,0,3.8c-4.6,0-9,0-13.5,0c-5.4,0-10.7,0-16.1,0
		c-7.5,0-7.6,0.1-11.8-5.8c-6.6-9.3-13.1-18.7-19.6-28c-3.9-5.6-7.9-11.2-11.7-16.8c-2.2-3.3-5.5-1.8-8.8-2.1c0,3,0,5.9,0,8.8
		c0,9.1,0,18.2,0,27.3c0,9.5,3.4,12.9,12.8,12.8c1,0,1.9,0,3.1,0c0.1,1.2,0.1,2.4,0.2,3.7c-19.9,0-39.7,0-59.7,0c0-1.1,0-2.2,0-3.6
		C1342.5,488.4,1347.9,489.2,1351.6,483.9 M1411.8,423.6c0.9-2,1.9-3.9,2.6-6c1.9-5.7,1.8-11.7,0.6-17.5
		c-1.3-6.4-3.9-12.2-10.6-14.6c-3.8-1.3-7.8-2.1-11.7-2.7c-3.8-0.5-7.7-0.5-11.5-0.7c0,17.2,0,33.7,0,50.3c3.6,0,6.9,0.2,10.2,0
		C1399.1,432,1406.4,430.6,1411.8,423.6z"/>
	<path class="st8" d="M1591.4,270.3c0.8,13.3-2.6,25.4-9.7,36.1c-7.8,11.7-18.2,20.2-32.2,24c-7.1,1.9-14.2,3-21.4,2.9
		c-14.4-0.1-28.2-3.2-39.9-12.1c-8.3-6.4-14.3-14.6-18.5-24.3c-4.8-10.8-5.2-22.2-4.2-33.5c0.9-10.5,5-20.2,11.8-28.6
		c6.1-7.6,13.4-13.5,22.3-17.5c6.2-2.8,12.7-4.6,19.6-4.7c4.3-0.1,8.6,0.1,12.9,0c13-0.4,24.9,3.2,35.4,10.6
		c6.7,4.7,12.1,10.7,16.3,17.8C1589,249.8,1591.6,259.5,1591.4,270.3 M1550.3,314.3c0.9-1.5,1.9-3,2.6-4.5c4-8.6,6.1-17.7,6.3-27.1
		c0.2-8.8-0.1-17.7-0.6-26.5c-0.6-9.8-3-19-8.8-27.3c-6.9-9.9-20.9-13.2-31.6-8.6c-8.5,3.7-13.2,10.7-16.2,18.9
		c-4.2,11.3-4.7,23.1-4.6,35c0.1,8.3,0.6,16.4,2.6,24.4c1.7,6.8,4.2,13.3,8.8,18.7c5.8,6.8,13.5,9,22.3,8.4
		C1539.5,325.1,1545.3,321.2,1550.3,314.3z"/>
	<path class="st8" d="M1270.3,330.7c-9.7,0-19.5,0.1-29.2,0.1c-23.8,0-47.5,0-71.7-0.2c-0.7-0.3-1.1-0.4-1.4-0.5c0-1,0-1.9,0-2.9
		c3.1-0.3,6.1-0.4,9.1-1c5.6-1.2,7.4-3.7,7.4-9.2c0.3-30.4,0.1-60.7,0.1-91.1c0-4.2-4.1-8.1-8.6-8.5c-2.6-0.2-5.2-0.6-7.9-0.8
		c0-0.9,0-1.8,0-2.9c33.4,0,66.7,0,100.1,0c0,11.5,0,22.9,0,34.5c-1.4,0-2.6,0-3.7,0c-1.7-4.7-3.3-9.4-5.2-13.9
		c-3.3-7.5-9.8-11.3-17.4-12.2c-8.9-1.1-18-1-27.5-1.3c-0.6,0.7-0.8,1.2-0.8,1.7c0,14.3,0,28.5,0,42.8c0,0.8,0.5,1.5,0.7,2.3
		c5.2,0.1,10.1-0.8,14.5-3.9c4.6-3.3,6.4-8.3,7.9-13.3c1-3.3,1.4-6.7,2.1-10.3c1.1,0,2.3,0,3.6,0c0,20.4,0,40.8,0,61.4
		c-1.1,0-2.2,0-3.1,0c-1.5-5-2.6-10.1-4.5-14.8c-3.5-8.8-10.5-12.4-20.3-11.8c-0.6,0.6-0.8,1-0.8,1.4c0,9.5,0,19,0,28.5
		c0,0.7,0.4,1.4,0.5,2.1c0,2.8,0.1,5.6,0.1,8.3c0,4.6,3.1,7.9,7.6,7.7c7.9-0.3,16-0.1,23.7-1.4c9.8-1.7,17.2-7.6,22-16.4
		c1.7-3.1,3.4-6.2,4.3-9.5c0.8-2.7,2.1-3.3,4.7-2.6c-0.5,3.8-1,7.6-1.6,11.4c-0.7,4.9-1.6,9.9-2.3,14.8c-0.5,3.4-0.9,6.9-1.5,10.6
		C1270.8,330.3,1270.5,330.5,1270.3,330.7z"/>
	<path class="st8" d="M1317.9,385.5c0,8.5,0,16.6,0,24.8c-2.9,0.8-4,0.3-4.7-3c-1.5-8-4.5-15.3-11.8-19.9c-4.3-2.7-9.1-4.2-14.1-4.4
		c-7.3-0.3-14.5-0.1-22-0.1c0,15.5,0,30.8,0,46c11.7,1.6,18.5-4.6,21.6-15.3c1-3.6,1.6-7.3,2.4-11.2c0.9,0,2,0,3.3,0
		c0,20.2,0,40.5,0,60.8c-1.1,0-2.2,0-2.8,0c-1.8-5.6-3.2-11.4-5.6-16.7c-2.6-5.9-7.5-9.3-14.3-9.5c-1.5,0-3-0.5-4.9-0.8
		c0,7.2,0,14.1,0,20.9c0,6.2,0,12.4,0,18.7c0,5.9,2.7,9.3,8.6,9.4c9,0.3,17.9,0.3,26.5-3c7.9-3,13.5-8.3,17.5-15.3
		c1.6-2.8,2.8-5.8,3.7-8.9c0.7-2.6,1.9-3.5,4.9-2.7c-1.7,12.2-3.4,24.6-5.1,37c-33.8,0-67.3,0-101,0c-0.1-1.1-0.1-2.3-0.2-3.5
		c3.2-0.3,6.3-0.2,9.2-0.9c4.8-1.2,6.9-4.3,6.9-9.1c0-29.6-0.1-59.2,0.1-88.8c0.1-8-4.9-10.4-10.9-10.9c-1.6-0.1-3.2,0-5.1,0
		c-0.1-1.2-0.1-2.3-0.2-3.7c32.6,0,65,0,97.9,0C1317.9,378.6,1317.9,381.9,1317.9,385.5z"/>
	<path class="st8" d="M977.6,423.9c6.1,7.6,12.1,15,18.5,22.9c0-3.5,0-6.6,0-9.6c0-12.8,0.1-25.5,0-38.3c0-3-0.2-6.1-0.8-9.1
		c-1.6-8-6.9-10.2-13.7-10.7c-0.6,0-1.2,0-2,0c0-1.3,0-2.5,0-3.7c12.8,0,25.5,0,38.3,0c0,1.2,0,2.2,0,3.4c-2.2,0.5-4.6,0.9-6.8,1.6
		c-4.8,1.6-7.8,6-7.8,11.2c-0.2,33.6-0.4,67.2-0.6,100.9c0,0.7,0,1.5,0,3.2c-1.9-1-3.6-1.4-4.5-2.5c-4.2-4.9-8.1-10.1-12.2-15.1
		c-4.3-5.3-8.6-10.5-12.9-15.8c-4.9-6-9.8-11.9-14.7-18c-5-6.2-9.9-12.5-14.8-18.7c-7.1-8.8-14.2-17.6-21.6-26.6
		c-0.1,0.8-0.3,1.4-0.3,2.1c0,24.1-0.1,48.3,0,72.4c0,9.4,6.1,15.6,15.1,14.9c0.8-0.1,1.7,0,2.7,0c0,1.3,0,2.4,0,3.7
		c-13.8,0-27.6,0-41.5,0c0-1.1,0-2.2,0-3.3c2.1-0.3,4.2-0.6,6.3-1c6.7-1.5,10.2-5.6,10.2-12.5c0.1-27.9,0-55.8,0-83.7
		c0-1-0.5-2.2-1.1-3.1c-3.7-5.4-8.1-9.8-15.4-9.6c0-1.3,0-2.4,0-3.8c4.1,0,8.2,0,12.2,0c9,0,18-0.1,27,0.1c1.1,0,2.5,0.8,3.2,1.7
		c5.5,6.7,11,13.4,16.4,20.2c6.2,7.8,12.2,15.6,18.3,23.4C975.7,421.6,976.6,422.6,977.6,423.9z"/>
	<path class="st8" d="M868.1,396.5c-0.5-3.4-0.7-6.9-1.5-10.2c-1.1-5-5.8-6.4-11.5-7.2c-0.9-0.1-1.9,0-3,0c0-1.3,0-2.4,0-3.7
		c13.3,0,26.7,0,40.2,0c0,1.2,0,2.3,0,3.1c-3,0.7-6,0.9-8.6,2c-5,2-7.3,6.1-7.3,11.4c0,17.4,0.2,34.8-0.1,52.1
		c-0.2,8.1-0.9,16.4-2.6,24.4c-2.9,13.7-12.9,20.8-25.6,24.6c-7.5,2.3-15.3,2.3-23,1.9c-10.9-0.6-20.9-4-28.7-12.1
		c-5-5.2-7.6-11.6-8-18.6c-0.7-11.8-0.6-23.7-0.8-35.5c-0.1-12.1,0-24.2-0.1-36.4c0-2.5-0.2-5.2-1-7.4c-1.6-4.1-5.2-5.6-9.4-5.8
		c-1.6-0.1-3.2,0-4.9,0c0-1.4,0-2.5,0-3.7c20.3,0,40.5,0,60.9,0c0,1.2,0,2.4,0,3.4c-3.5,0.3-6.9,0.5-10.2,1
		c-4.1,0.7-6.4,3.4-6.4,7.6c-0.3,24-0.6,47.9-0.6,71.9c0,4.6,0.5,9.6,2.1,13.8c2.3,6,7.3,10,13.7,11.4c9.5,2,18.8,1.1,26.5-5.4
		c4.5-3.8,7.5-9,8.4-14.9c0.9-6.5,1-13.1,1.6-20.1c0.3-15.8,0.3-31.2,0.4-46.5C868.6,397.2,868.2,396.8,868.1,396.5z"/>
	<path class="st5" d="M775.6,288.4c2,7.4,4.2,14.6,8.6,20.8c8.2,11.6,19,18.2,33.6,17c9.4-0.8,17.9-7.8,17.3-18.2
		c-0.3-5.5-3.3-9.8-7.6-12.4c-8.4-5.2-17.2-9.6-25.8-14.4c-7.6-4.2-15.4-8.3-21.1-15c-4.1-4.8-6.7-10.3-8-16.7
		c-1.3-6.5-0.3-12.8,2.4-18.3c4.5-9.4,12-16.2,22.5-18.8c12-3,23.4-1.4,34.4,4.1c1.8,0.9,3.6,1.6,5.5,2.1c2.4,0.6,4.4-0.3,5.4-2.7
		c0.7-1.5,1.1-3.1,1.7-4.8c0.9,0,1.9,0,3.6,0c0,12.9,0,25.9,0,39c-1,0-2.4,0-3.7,0c-3-15-11-26-25.9-30.9
		c-7.4-2.4-14.7-1.7-21.1,2.9c-5.8,4.2-8,13.2-2.6,18.8c3.3,3.5,7.1,6.8,11.2,9.1c6.8,3.9,14.2,6.9,21.1,10.6c8,4.3,15.9,9,21.8,16
		c3.7,4.4,6.2,9.6,6.7,15.4c0.7,8.7-0.3,17-5.9,24.3c-6.3,8.2-14.2,13.6-24.5,15.6c-11.2,2.2-21.9,0.7-32.4-3.6
		c-3.7-1.5-7.9-4-12.2-0.9c-1.3,0.9-2.6,1.9-3.4,3.2c-1.7,2.6-1.6,2.7-5.1,2.6c0-14.9,0-29.9,0-45
		C773.3,288.3,774.3,288.3,775.6,288.4z"/>
	<path class="st4" d="M1476.7,462.3c2.5,6.9,6.4,12.6,11.8,17.2c4.2,3.6,8.9,6.2,14.1,7.7c8.1,2.5,15.8,1.3,22.5-3.8
		c5.5-4.2,7.8-13.8,3.4-20.4c-3.8-5.7-9-8.8-14.6-12c-9.5-5.4-19.3-10.3-28.5-16.1c-9.3-5.8-14.8-14.3-15.8-25.6
		c-1.5-17.2,9.2-31.2,25.6-35.5c10.8-2.8,21.1-1.1,31,3.8c1.8,0.9,3.6,1.7,5.4,2.4c3.1,1.2,6.3-0.3,7.4-3.4c0.5-1.3,0.7-2.6,1-4
		c0.8,0,1.7,0,2.7,0c0.3,2.2,0.8,4.5,0.9,6.7c0.1,7.5,0,15,0.1,22.5c0,3.1,0.5,6.3,0.8,9.7c-1.7,0-3,0-4.5,0
		c-1.7-8.6-5.3-16.4-11.8-22.5c-5.7-5.4-12.5-8.9-20.3-9.3c-7.7-0.4-16.6,3.2-19.3,12.6c-1.3,4.5,2.5,12.5,6.7,14.9
		c9.5,5.4,19.2,10.5,28.5,16.1c6.3,3.8,13,7.5,18.1,12.6c7.6,7.5,10.5,17,9,28.1c-1,7.6-4.4,13.8-9.3,18.9
		c-6.1,6.3-13.8,10-22.7,11.5c-11.7,1.9-22.4-0.8-33-5.4c-4.2-1.8-8.1-1.5-11.5,3.4c-1.8,2.5-1.8,2.6-5.5,2.4c0-7.4,0-14.7,0-22.1
		c0-7.3,0-14.6,0-21.9c2.6-0.6,4.2-0.5,4.7,2.8C1474.2,456.4,1475.6,459.2,1476.7,462.3z"/>
	<path class="st6" d="M1672.5,299.1c-0.9-0.8-1.8-1.7-2.7-1.7c-12.9-0.1-25.7-0.1-39-0.1c-2.2,5.1-5,10.1-6.4,15.6
		c-2.3,8.5-0.6,11.7,8.1,13.4c2.1,0.4,4.2,0.5,6.5,0.8c0.1,1.1,0.1,2.3,0.2,3.6c-13.2,0-26.4,0-39.7,0c-0.8-2.5-0.2-3.9,2.6-4.6
		c6.8-1.8,10.3-7.3,13.1-13.1c7.6-16,14.8-32.2,22.2-48.3c3.8-8.2,7.6-16.3,11.4-24.5c4.2-9.1,8.2-18.3,12.4-27.5
		c0.3-0.7,1.3-1.3,2-1.4c0.5-0.1,1.4,0.7,1.7,1.4c4.6,10.1,9.1,20.2,13.6,30.4c7,15.6,13.9,31.2,20.9,46.7
		c3.7,8.1,7.4,16.3,11.3,24.3c1.3,2.7,2.7,5.6,4.8,7.6c2.7,2.6,6.1,4.3,9.3,6.4c0.2-0.2,0.4-0.5,0.6-0.7c0,1.1,0,2.1,0,3.4
		c-19.2,0-38.4,0-57.7,0c0-1.1,0-2.2,0-3.3c2.8-0.3,5.6-0.5,8.2-1c5.2-1,6.9-3.7,4.9-8.8C1678.2,311.3,1675.2,305.4,1672.5,299.1
		 M1662.9,277.6c-3.7-8.4-7.4-16.8-11.3-25.6c-5.9,12.8-11.6,25.3-17.4,38.1c11.8,0,22.9,0,34.4,0
		C1666.7,285.9,1664.9,281.9,1662.9,277.6z"/>
	<path class="st8" d="M1040.5,330.7c-8.8,0-17.5,0.1-26.3,0.1c-25.6,0-51.2,0-77.1-0.2c-0.5-0.3-0.7-0.4-0.9-0.5
		c-0.3-1-0.5-1.9-0.8-2.9c3.4-0.4,6.6-0.4,9.7-1.1c4.4-0.9,7.2-4.6,7.3-9.1c0-30.1,0.1-60.3,0-90.4c0-5.7-3.3-8.1-8.1-9.1
		c-2.7-0.6-5.4-0.6-8.4-0.9c-0.1-0.8-0.1-1.7-0.2-2.8c21.4,0,42.7,0,64.3,0c0.1,0.8,0.1,1.7,0.2,2.5c-4.1,0.6-8.1,1-11.9,1.9
		c-3.6,0.9-6.1,4.5-6.1,8.2c0,29.4,0,58.8,0,88.1c0,5.4,3.1,8.7,8.5,8.5c6.2-0.2,12.4-0.1,18.7,0c11.8,0.1,20.1-5.8,25.4-15.8
		c2.5-4.7,4.2-9.9,6.2-14.9c1.4-3.6,1.3-3.6,5.3-3c-1,10.1-1.9,20.3-2.9,30.4c-0.3,3.3-0.9,6.6-1.5,10.2
		C1041,330.3,1040.8,330.5,1040.5,330.7z"/>
	<path class="st8" d="M1711.8,488.5c1.4,0,2.4,0,3.7,0c0,1.2,0,2.3,0,3.7c-20.1,0-40.3,0-60.8,0c0-1.1-0.1-2.2-0.2-3.7
		c2.6,0,5.1,0.3,7.5-0.1c5.4-0.7,8.6-4.7,8.6-11.4c0.1-31.2,0.1-62.4,0.1-94c-8.1,0.5-16.3-1.7-23.5,3.8
		c-6.9,5.2-8.9,12.8-10.8,20.5c-1.3,0-2.3,0-3.5,0c0-10.7,0-21.2,0-31.9c34.9,0,69.7,0,104.6,0c0,10.7,0,21.2,0,31.9
		c-1.2,0-2.2,0-3.5,0c-2.3-7.8-4.3-16-11.6-21c-7.1-4.8-15.2-3.1-23.3-3.3c0,1.1,0,2.1,0,3c0,29.7-0.1,59.4,0.1,89.1
		c0,4.2-0.3,9.2,4.4,11.5C1705.8,487.8,1708.8,487.9,1711.8,488.5z"/>
	<path class="st5" d="M1155.2,220.9c-2.7,3.4-5.9,6.3-7.7,9.9c-7,14.3-13.6,28.7-20.3,43.1c-4.7,10-9.3,20.1-13.9,30.2
		c-4.4,9.7-8.7,19.4-13,29.1c-2.8,0.8-3.8-0.3-4.8-2.9c-3.3-8.2-7.1-16.1-10.6-24.1c-4.8-11.1-9.6-22.2-14.4-33.2
		c-3-6.9-6-13.8-9.1-20.7c-3.9-8.7-7.9-17.3-11.8-26.1c-2.4-5.3-5.9-8.9-12.2-8.7c0-1.3,0-2.3,0-3.6c18.7,0,37.4,0,56.3,0
		c0.1,0.8,0.1,1.7,0.2,2.8c-2,0.3-3.8,0.6-5.6,0.9c-1.8,0.3-3.7,0.5-5.5,1.1c-2.9,1.1-3.8,3.2-2.6,6.1c3,7.6,6.1,15.2,9.3,22.7
		c5.8,13.4,11.6,26.7,17.5,40.1c0.9,2.2,2.1,4.2,3.3,6.7c3.8-8.4,7.6-16.6,11.3-24.7c2.5-5.5,5-11.1,7.4-16.7
		c3.2-7.2,6.4-14.4,9.3-21.8c3.9-10-3.1-13.4-10-13.6c-4.1-0.1-4.2-0.1-3.9-3.7c12.9,0,25.8,0,38.9,0c0,1.2,0,2.2,0,2.9
		C1160.6,218,1158,219.4,1155.2,220.9z"/>
	<path class="st8" d="M1187.7,380.9c-3.6-0.9-6.9-1.7-10.7-2.6c0-0.5-0.1-1.6-0.1-3c12.8,0,25.5,0,38.5,0c0,1.1,0.1,2.2,0.2,3.5
		c-7.8,1.5-12.4,6.8-15.5,13.4c-4.6,9.8-9,19.6-13.4,29.5c-3.1,6.8-6.3,13.6-9.3,20.4c-5.3,11.9-10.6,23.8-15.9,35.8
		c-2.3,5.1-4.6,10.2-7.1,15.2c-0.4,0.8-1.6,1.6-2.5,1.7c-0.8,0-2.1-0.8-2.5-1.6c-4.2-9.5-8.2-19.1-12.3-28.6
		c-3.5-8.3-7.1-16.6-10.6-24.9c-4.8-11.4-9.6-22.8-14.6-34.1c-3.1-7.1-6.3-14.1-9.8-20.9c-2.1-4.1-6.4-4.9-10.7-5.7
		c0-1.1,0-2.2,0-3.5c18.7,0,37.4,0,56.3,0c0,1.1,0,2.2,0,3.4c-2.8,0.3-5.8,0.6-8.6,1c-4.9,0.7-6.5,3.2-4.8,7.9
		c2,5.7,4.3,11.2,6.6,16.8c4.9,11.6,9.8,23.2,14.8,34.7c2.4,5.5,4.9,11,7.5,16.9c2.9-6.3,5.7-12.3,8.4-18.2c3-6.7,5.9-13.4,8.8-20.2
		c3.6-8.7,7.3-17.3,10.7-26.1C1192.8,387.4,1192,383.6,1187.7,380.9z"/>
	<path class="st8" d="M866,329.5c-0.2-1.8,0-2.7,2-2.6c2,0.1,4-0.1,6-0.5c8.1-1.8,8.7-5.1,8.7-10.9c0.2-29.1,0.1-58.1,0.1-87.2
		c0-7.1-3.1-10.2-10.2-10.8c-2.1-0.2-4.1-0.6-6.3-0.9c0-0.8,0-1.7,0-2.8c20.7,0,41.2,0,62,0c0,0.9,0,1.9,0,2.4
		c-3.8,0.9-7.5,1.5-11,2.6c-3.5,1.1-4.8,3.9-4.8,7.5c-0.2,28.9-0.4,57.8-0.6,86.7c0,2.4,0.3,4.8,0.8,7.2c0.8,4.1,6,6.5,10.2,6.7
		c1.8,0.1,3.6,0,5.5,0c0,1.4,0,2.5,0,3.9c-1.6,0-3.2,0-4.8,0c-18.2,0-36.5,0-54.7,0C867.9,330.7,867,330.1,866,329.5z"/>
	<path class="st8" d="M1082.3,488.5c1.4,0,2.4,0,3.7,0c0,1.3,0,2.4,0,3.7c-20.2,0-40.4,0-60.8,0c0-1.2,0-2.3,0-3.4
		c3.4-0.3,6.8-0.3,10.1-1.1c3.5-0.8,5.8-4.5,5.9-8.1c0.2-28,0.5-56.1,0.6-84.1c0-3.1-0.2-6.1-0.7-9.2c-0.6-4-5-7.2-9.8-7.3
		c-2,0-4,0-6.1,0c0-1.3,0-2.4,0-3.6c20.2,0,40.4,0,60.9,0c0.1,1,0.1,2.1,0.2,3.3c-2.7,0.3-5.4,0.3-7.9,0.8c-5.6,1.3-8.2,4.4-8.2,10
		c-0.1,29.7-0.1,59.4,0,89.1C1070.1,484.4,1072.9,488.4,1082.3,488.5z"/>
	<path class="st8" d="M1586.3,492.3c-8.5,0-16.6,0-24.9,0c0-1.3,0-2.4,0-3.5c3.1-0.3,6.3-0.3,9.3-1c4.6-1.1,6.5-3.9,6.6-8.5
		c0.2-28.4,0.5-56.7,0.6-85.1c0-2.8-0.3-5.7-0.7-8.5c-0.4-3.2-5.5-6.6-9.8-6.7c-2,0-4,0-6.1,0c0-1.3,0-2.4,0-3.6
		c20.1,0,40.3,0,60.9,0c0.1,1,0.1,2.1,0.2,3.3c-2.8,0.3-5.5,0.4-8.2,1c-5.4,1.2-7.9,4.3-7.9,9.8c0,29.5-0.1,59,0,88.5
		c0,7.1,4.4,10.2,10.8,10.4c1.6,0,3.2,0,5.1,0c0.1,1.2,0.1,2.3,0.2,3.9C1610.3,492.3,1598.5,492.3,1586.3,492.3z"/>
	<path class="st8" d="M118.1,533.5c0-2,0-4,0-6.5c6.1,0,12.1,0,18.4,0c1.3,0.2,2.3,0.6,3.3,0.6c27.4,0,54.7,0,82.1,0
		c0.4,0,0.8-0.1,1.8-0.4c52.9-0.2,105.3-0.2,157.7-0.2c1.3,0,2.6-0.1,4.1,0c5.8,2.2,11.5,4.6,17.6,3.8c4.9-0.7,9.6-2.5,14.7-3.8
		c44.5,0,88.7,0,132.8,0c0.8,0.2,1.6,0.6,2.4,0.6c27.4,0,54.7,0,82.1,0c0.5,0,1-0.2,1.8-0.4c8.2-0.2,16.2-0.2,24.6-0.2
		c0,2.1,0,4-0.3,6.2c-1,0.3-1.8,0.3-2.5,0.3c-179.1,0-358.1,0-537.2,0C120.2,533.6,119.2,533.5,118.1,533.5z"/>
	<path class="st1" d="M118.1,533.8c1.1-0.3,2.1-0.2,3.2-0.2c179.1,0,358.1,0,537.2,0c0.8,0,1.5,0,2.5,0c0.3,1.1,0.3,2.2,0.3,3.6
		c-179.5,0.3-359,0.3-538.5,0.3c-1.4,0-2.8,0-4.5,0C118.1,536.3,118.1,535.2,118.1,533.8z"/>
	<path class="st5" d="M864.5,599.7c-4.4,2.5-8.9,3.9-13.8,4c-8.9,0.1-17.9,0.4-26.8,0.6c-0.3,0-0.6-0.2-1.7-0.5
		c1.2-0.7,1.7-1.2,2.4-1.4c5-1.2,5.6-2.3,5.5-6.4c-0.2-10.5-0.1-21-0.1-31.5c0-4.7-0.7-5.4-5.4-5.9c-0.7-0.1-1.3-0.6-1.9-0.9
		c0.1-0.3,0.2-0.6,0.3-1c1.1,0,2.3,0,3.4,0c8.3,0,16.5-0.2,24.8,0.1c6.5,0.2,12.5,2.3,17.2,7.1c6.2,6.3,7.7,17.4,4.7,25.4
		C871.3,593.7,868.5,597,864.5,599.7 M859.6,573.2c-1.9-10.2-8-14.5-16.7-12.8c0,12.6,0,25.2,0.1,37.8c0,0.8,0.9,2.1,1.5,2.2
		c3.9,0.5,7.7,0.5,10.6-2.8C861.2,590.5,860.8,582.2,859.6,573.2z"/>
	<path class="st6" d="M1121.7,586.6c-1.6-6.7-0.9-13,2.6-18.6c3.7-5.8,8.7-10.5,15.8-11.1c6-0.6,12.4-1,18.1,0.4
		c12.6,3.2,19.2,15,16.9,27.9c-2.1,11.4-12.5,19.9-24.1,19.7c-4.7-0.1-9.6-0.3-14-1.7C1129.2,600.7,1124,595,1121.7,586.6
		 M1150.5,601.7c5.6-1.4,8.3-5.4,9.6-10.6c1.7-6.5,1.7-13.1,0.6-19.7c-0.8-4.8-2.7-9.2-7.3-11.4c-7.8-3.8-14.3,1.4-16.5,8.1
		c-2.3,6.9-2.5,13.8-1.2,20.8C1137.5,597.6,1142.3,602.5,1150.5,601.7z"/>
	<path class="st6" d="M1760.2,591.2c-4-10-2.8-21.6,5.5-28.8c4.4-3.9,9.6-6.1,15.5-6.3c5.5-0.1,10.9-0.3,16.2,1.8
		c8,3.1,14.6,11.2,15,20.4c0.3,7.6-1.6,14.3-6.9,19.4c-3.1,2.9-7.4,5.2-11.5,6.3c-9.9,2.6-19.7,1.5-28-5.1
		C1763.6,597,1762.2,593.9,1760.2,591.2 M1798,586.4c0-3.9,0.3-7.7-0.1-11.5c-0.4-3.3-1.2-6.8-2.6-9.8c-2.7-6-10.2-8.2-15.8-4.5
		c-3.1,2-5,4.8-5.9,8.2c-2.2,8.7-2.5,17.5,0.9,25.9c3.9,9.5,15.5,9.1,19.6,2.8C1796.1,594.3,1796.8,590.5,1798,586.4z"/>
	<path class="st6" d="M1559.9,557.3c8.8,2.6,14.3,8.3,16.4,16.8c3.3,13-4,27.5-19.1,30.2c-8.5,1.5-16.6,1.1-24.2-3.8
		c-11.8-7.6-13.5-25-5.8-34.6c5.1-6.4,11.6-9.8,19.6-9.8C1551.1,556.1,1555.3,556.9,1559.9,557.3 M1537.4,571.3c0,0.4,0,0.9,0,1.3
		c-1,7.9-1.5,15.6,2.5,23c2.1,3.9,4.8,5.8,9,6.1c4.9,0.3,8.6-1.6,10.8-6c4.5-9.3,4.2-19,1.2-28.5c-3.2-10-14.3-10.9-19.7-4.2
		C1539.4,565.2,1538.6,568.2,1537.4,571.3z"/>
	<path class="st6" d="M1349.2,599c-4.7,4-10.1,5.7-16,6c-7.1,0.3-13.7-0.6-19.8-4.7c-5.4-3.6-8.3-8.8-9.6-14.8
		c-1.5-6.8-0.5-13.6,3.8-19.3c4.7-6.2,11.1-9.9,19-10.2c6-0.2,11.9-0.3,17.7,2.4c7.5,3.6,12.5,10,13.5,18.9
		C1358.6,585.9,1355.9,593.1,1349.2,599 M1317.9,584.8c0.4,2.7,0.6,5.4,1.4,8c1.8,5.7,5.9,8.7,10.8,9c5.9,0.4,9.9-3.1,11.4-7.5
		c3.3-9.3,3.4-18.8,0.1-28.1c-2.7-7.5-11.8-9.8-16.9-5.5C1317.3,566.8,1316.9,575.4,1317.9,584.8z"/>
	<path class="st6" d="M817.8,597.2c-0.2,2-0.1,3.7-0.8,5.2c-0.4,0.9-1.9,1.8-2.9,1.8c-10,0.1-19.9,0.1-29.9,0.1c-4,0-7.9,0-11.9,0
		c-0.2-0.3-0.3-0.5-0.5-0.8c0.6-0.4,1.2-1,1.8-1.1c5-0.7,5.4-1.1,5.4-6.1c0-10.2-0.1-20.4,0-30.6c0.1-5.5,0.2-7.3-6.8-7.3
		c-0.1-0.3-0.3-0.5-0.4-0.8c0.7-0.3,1.4-1,2.1-1c4.6-0.1,9.2,0,13.8,0c9,0,18,0,27.2,0c0,4.7,0,9.3,0,13.9c-0.2,0.2-0.4,0.3-0.7,0.5
		c-0.6-0.8-1.4-1.5-1.7-2.4c-1.9-5.9-4.6-8.5-12.3-8.8c-2.7-0.1-5.3,0-8.1,0c0,6.3,0,12.4,0,18.4c6.6-0.8,7.7-1.6,9.5-8.1
		c0.3-1.2,1-2.3,1.5-3.5c0.3,0.1,0.7,0.2,1,0.4c0,8,0,16,0,24.1c0,0.5-0.6,1-1,1.5c-0.3-0.4-0.7-0.8-0.9-1.3c-0.6-1.7-0.9-3.5-1.6-5
		c-1.8-3.8-4-4.8-8.7-4.3c0,4.9-0.1,9.8,0,14.7c0.1,3.1,2.6,4.3,5,4.2c3.6-0.2,7.2-0.9,10.7-1.8c4.7-1.3,7.1-4.9,8.7-9.2
		c0.3-0.8,1.2-1.4,1.8-2.1c0.3,0.2,0.5,0.4,0.8,0.5C818.7,591.2,818.2,594.1,817.8,597.2z"/>
	<path class="st6" d="M1227.7,556.7c1.5,0,2.6,0,3.8,0c0.1,0.3,0.2,0.5,0.3,0.8c-0.6,0.4-1.1,1-1.7,1.1c-3.6,0.7-4.9,2.2-4.9,5.8
		c0,13.4,0,26.8,0,41c-1.3-0.7-2.5-0.9-3.2-1.7c-3.9-4.4-7.8-8.9-11.6-13.3c-6.7-7.7-13.4-15.3-20.3-23.3c-0.1,0.9-0.2,1.7-0.2,2.4
		c0,8.6,0,17.2,0,25.7c0,4.4,1.6,6.3,5.9,7.1c0.7,0.1,1.4,0.7,2,1c-0.1,0.3-0.2,0.5-0.3,0.8c-6.1,0-12.2,0-18.2,0
		c-0.2-0.3-0.3-0.5-0.5-0.8c1-0.5,2-1.5,3-1.6c3.4-0.4,4.3-2.4,4.3-5.4c-0.1-10.5,0-21,0-31.5c0-3.4-1.9-5.6-5.3-6.3
		c-0.6-0.1-1.1-0.7-1.7-1.1c0.6-0.3,1.2-0.7,1.8-0.7c5-0.1,10.1-0.4,15.1,0.2c1.9,0.2,4,2.2,5.4,3.9c4.7,5.3,9.2,10.9,13.8,16.3
		c2.2,2.5,4.4,5,6.4,7.2c0-6.9,0.1-14,0-21.1c0-3.2-2.4-4.1-5.1-4.6c-0.7-0.1-1.3-0.6-2-0.9c0.7-0.4,1.4-1,2.2-1
		C1220.1,556.6,1223.7,556.7,1227.7,556.7z"/>
	<path class="st6" d="M1483.7,602.7c-0.2,0.7-0.6,1.5-1,1.6c-5.8,0.1-11.5,0.1-17.7-0.7c0.6-0.4,1.1-1,1.7-1.2
		c4.8-1.4,6.1-2.9,6.2-7.9c0.1-10,0-19.9,0-29.9c0-3.2-3.1-5.7-8.4-6.3c1.1-0.8,1.6-1.5,2.1-1.5c5.5-0.1,11-0.4,16.4,0.1
		c1.8,0.2,3.5,2.6,4.9,4.2c3,3.5,5.8,7.2,8.8,10.6c3.6,4.2,7.4,8.3,11.6,13c0-7.4,0.2-14-0.1-20.5c-0.2-4-2.1-5.2-8.4-6
		c1.1-0.8,1.7-1.5,2.3-1.5c5.2-0.1,10.5-0.1,16.1,0.6c-0.5,0.4-0.9,1.1-1.5,1.2c-4.3,1-5.2,2-5.2,6.5c0,12.2,0,24.4,0,36.7
		c0,1,0,2.1,0,3.1c-0.3,0.2-0.7,0.4-1,0.6c-12.1-12.1-22.5-25.6-34.4-38.4c0,10.3-0.1,20.4,0.1,30.4
		C1476.3,600.2,1478.7,601.7,1483.7,602.7z"/>
	<path class="st6" d="M1456.3,581.1c0,8,0,15.8,0,23.8c-3.2-0.2-4.5-2.9-6.2-4.6c-3.8-4-7.2-8.5-10.8-12.7
		c-5.7-6.6-11.4-13.2-17.2-19.8c-0.2-0.3-0.6-0.5-1.3-1.1c0,10.5-0.1,20.4,0,30.4c0,3.6,3.2,4.2,5.8,5.2c0.7,0.3,1.4,0.7,2.1,1
		c-0.1,0.3-0.2,0.5-0.3,0.8c-6.1,0-12.2,0-19.3,0c1.1-0.9,1.6-1.6,2.1-1.8c4.5-1.1,6.2-1.8,6.3-8.4c0.1-9.4,0-18.9,0-28.3
		c0-3.5-2.4-6.4-5.8-7.1c-0.7-0.1-1.4-0.6-2.1-1c0.1-0.3,0.2-0.6,0.3-0.9c6,0,12-0.4,17.9,0.2c2,0.2,3.8,3,5.4,4.9
		c3,3.5,5.7,7.2,8.7,10.7c3.4,4,6.9,7.8,10.9,12.4c0-7.4,0.3-14-0.1-20.6c-0.2-4.6-2-5.6-8-5.6c0.7-0.9,1.1-1.9,1.5-1.9
		c5.6-0.1,11.3-0.1,16.9-0.1c0.1,0.3,0.2,0.5,0.3,0.8c-0.7,0.4-1.4,0.9-2.1,1.1c-4,0.8-5.1,2-5.2,6.2
		C1456.2,570.1,1456.3,575.5,1456.3,581.1z"/>
	<path class="st6" d="M927.2,559c-2.1,1.7-2.7,3.6-2.6,6.1c0.1,7.2,0.1,14.4,0,21.5c0,2.5-0.5,5-0.9,7.5c-1.1,5.7-5.5,8.7-10.2,10
		c-6.4,1.8-13.2,2-19.7-0.9c-6-2.7-8.2-7.5-8.3-13.5c-0.2-8.7,0-17.4,0-26c0-3.6-1-4.6-4.6-4.9c-0.6-0.1-1.2-0.7-1.8-1
		c0.6-0.3,1.1-0.8,1.7-0.8c7.8-0.1,15.7-0.1,23.5,0c0.7,0,1.4,0.6,2.4,1.1c-0.7,0.6-0.8,0.7-0.9,0.7c-7.3,0.6-7.3,0.6-7.3,8.1
		c0,7.9-0.1,15.9,0,23.8c0.1,7.6,2.8,9.7,9.4,10.5c6,0.8,12.1-3.8,12.4-9.5c0.5-9.2,0.8-18.3,0.6-27.5c-0.1-3.9-1-4.9-5.4-5.4
		c-0.6-0.1-1.1-0.6-1.7-0.9c0.1-0.3,0.2-0.5,0.3-0.8c5.9,0,11.8,0,17.7,0.1c0.1,0,0.2,0.9,0.3,1.5
		C930.1,558.6,928.7,558.7,927.2,559z"/>
	<path class="st6" d="M978.5,565.2c-5.3-5.7-11.3-7.6-18.5-4.7c-5.4,2.2-8.3,6.4-9.5,11.7c-1.7,6.9-1.3,13.9,1.5,20.5
		c3.1,7.4,10,10,17.5,7.9c4.8-1.3,9.1-4.5,13.4-6.8c0.6,3.3,0.6,3.3-2.5,5.8c-6.9,5.7-15.1,6.1-23.4,5c-3.8-0.5-7.7-2.3-11.1-4.3
		c-11.2-6.3-13.4-21.8-6.7-32.2c6.9-10.7,19.8-14.8,31.7-11.9c1.7,0.4,3.3,1.1,5,1.7c2.6,0.8,5.3,1.9,6.1-2.3c0-0.1,0.6-0.2,0.9-0.3
		c0.2,0,0.4,0.1,0.8,0.1c0,5.4,0,10.8,0,16.3c-0.2,0.2-0.5,0.3-0.7,0.5C981.5,570,980.1,567.7,978.5,565.2z"/>
	<path class="st6" d="M1023.1,604.3c-2.1,0-3.9,0-5.7,0c-0.1-0.3-0.2-0.6-0.3-0.9c0.7-0.3,1.3-0.9,2-1c4.7-0.5,5.2-1.4,3.3-5.5
		c-0.5-1-0.8-2.1-1.3-3.1c-0.4-1-1-1.9-1.6-2.9c-5.7,0-11.5,0-17.4,0c-0.9,1.9-1.8,3.8-2.6,5.8c-1.1,2.9-0.1,4.4,3.1,5.1
		c1.1,0.2,2.2,0.9,3.3,1.4c-0.1,0.3-0.2,0.7-0.4,1c-5.6,0-11.3,0-17.5,0c0.5-0.9,0.8-2.3,1.2-2.3c4.7-0.6,5.7-4.7,7.3-7.9
		c6-11.9,11.6-23.9,17.4-35.8c0.5-1,1.1-1.9,2-3.5c4.3,9,8.2,17.3,12.2,25.6c3,6.3,6,12.6,9.3,18.7c0.7,1.3,2.6,1.8,3.9,2.8
		c0.7,0.5,1.3,1.3,2.4,2.6C1036.5,604.3,1029.9,604.3,1023.1,604.3 M1016.9,585.7c-1.9-4.1-3.8-8.3-5.8-12.7
		c-2.6,5.2-4.8,9.8-7.1,14.5c4.7,0,9.2,0,13.7,0C1017.5,586.8,1017.3,586.4,1016.9,585.7z"/>
	<path class="st6" d="M1660.2,598.8c-0.9-2.1-1.6-4.1-2.7-5.8c-0.7-1-2.1-2.1-3.3-2.1c-4.1-0.3-8.1,0-12.2-0.1
		c-2.2-0.1-3.7,0.4-4.3,2.7c-0.3,1.2-1,2.3-1.3,3.5c-1,2.9-0.1,4.4,2.8,4.8c0.5,0.1,1.1,0,1.6,0.2c0.7,0.2,1.5,0.6,2.2,0.9
		c-1.6,1.7-7,2.1-18.9,1.3c1.2-1.1,1.9-1.7,2.6-2.3c1.8-1.9,4.1-3.5,5.4-5.8c3.9-7.2,7.6-14.6,11.2-22c3.1-6.2,5.9-12.5,9.3-19.6
		c1.9,3.6,3.4,6.4,4.8,9.2c4.2,8.7,8.3,17.4,12.5,26.1c1.2,2.5,2.6,4.9,3.6,7.5c1.1,2.6,2.6,4.5,5.4,5.2c0.4,0.1,0.6,0.9,1.1,1.7
		c-8.7,0-17,0-25.3,0c-0.1-0.2-0.2-0.5-0.3-0.7c0.7-0.3,1.3-0.7,2-1C1658.1,601.7,1660.8,602.3,1660.2,598.8 M1642.9,587.6
		c3.8,0,7.6,0,11.8,0c-2.4-5.2-4.6-9.9-6.9-14.9c-2.2,4.5-4.2,8.8-6.2,13.2C1641.5,586.3,1642.1,587,1642.9,587.6z"/>
	<path class="st8" d="M1283.8,556.7c5.5,0,10.6,0,15.9,0c0,4.3,0,8.4,0,13.3c-1-0.8-2-1.1-2.3-1.8c-3.7-7.8-4.8-8.5-14.2-8.2
		c0,1,0,2,0,3c0,11.4,0,22.7,0,34.1c0,3.7,1.2,4.9,5,5.3c0.8,0.1,1.5,0.5,2.3,0.8c-0.1,0.3-0.2,0.6-0.2,0.9c-8.9,0-17.8,0-27.8,0
		c1.2-0.9,1.7-1.5,2.3-1.7c4.7-1,5.6-2,5.6-6.7c0-11.8,0-23.6,0-35.3c-7.1-1.8-11.5,0.4-14,6.9c-0.4,0.9-1.1,1.7-1.6,2.6
		c-0.3-0.1-0.6-0.3-0.9-0.4c0-4.1,0-8.2,0-12.8C1263.6,556.7,1273.5,556.7,1283.8,556.7z"/>
	<path class="st8" d="M1072,559.9c-2.1-0.3-2.7,0.4-2.6,2.3c0.1,11.8,0.1,23.6,0,35.4c0,3.6,2.6,4.1,5.1,4.9
		c0.8,0.2,1.5,0.6,2.2,0.9c-0.1,0.3-0.2,0.6-0.3,0.9c-8.9,0-17.8,0-26.8,0c-0.1-0.2-0.2-0.5-0.3-0.7c0.7-0.3,1.3-0.9,2-0.9
		c4.2-0.5,5.2-1.6,5.2-5.8c0-12.1,0-24.2,0-36.3c-7.5-1.6-11,0.4-13.9,7.4c-0.3,0.9-1.3,1.5-2,2.2c-0.2-0.2-0.5-0.3-0.7-0.5
		c0-4.1,0-8.3,0-12.6c15.4,0,30.6,0,46,0c0,4.2,0,8.3,0,13.6c-1.2-1.4-2-2-2.3-2.8C1081.2,561.4,1079,559.9,1072,559.9z"/>
	<path class="st6" d="M1693.8,572.8c0-4.4,0-8.4,0-12.7c-3.7-0.4-7.6-0.8-10.3,1.7c-2.3,2.1-3.8,5.3-6.2,7.7c0-4.1,0-8.2,0-12.6
		c15.2,0,30.4,0,45.9,0c0,4,0,8.1,0,13.1c-1-0.7-2.1-1-2.3-1.7c-3.1-8.3-7.9-9.2-14.9-8.2c0,3.2,0,6.5,0,9.8c0,7.8,0,15.7,0,23.5
		c0,2.1-0.1,4.5,0.8,6.2c0.8,1.4,3.1,1.9,4.7,2.8c0.7,0.4,1.6,0.6,2.4,0.9c-0.1,0.3-0.2,0.6-0.3,0.9c-9,0-17.9,0-27.6,0
		c0.8-0.9,1.1-1.6,1.6-1.7c5.8-1.6,6.1-1.9,6.1-7.8C1693.8,587.5,1693.8,580.3,1693.8,572.8z"/>
	<path class="st6" d="M1597.8,556.7c2.6,0.5,5.4-1.1,7.6,1.5c-0.7,0.2-1,0.4-1.3,0.4c-6.2,0.1-6.3,0.1-3.8,5.9
		c3.5,8,7.1,15.9,10.9,24.4c4.1-8.5,8-16.3,11.6-24.2c1.7-3.7,0.4-5.6-3.8-6.1c-0.7-0.1-1.4-0.6-2.1-0.9c0.1-0.3,0.2-0.5,0.3-0.8
		c5.4,0,10.9,0,17,0c-0.7,0.9-1.1,1.4-1.5,1.8c-1.7,1.6-4.1,2.9-5.1,4.8c-4.2,7.9-8.1,15.9-12,23.9c-2.6,5.2-5,10.5-7.6,15.6
		c-0.4,0.8-1.3,1.3-2,2c-0.6-0.7-1.5-1.3-1.8-2.1c-6.5-13.5-12.9-27.1-19.2-40.7c-0.9-2-2-3.3-4.2-3.5c-0.4,0-0.8-0.8-1.8-1.9
		C1585.8,556.7,1591.7,556.7,1597.8,556.7z"/>
	<path class="st7" d="M619.5,636.2c13.3-0.3,26.7-0.3,38.6-0.3c-6.2,6.7-13,14.1-19.9,21.6c-1.4,1.3-2.7,2.5-4,3.8
		c-3,3-6,5.8-9.3,8.6c-1.8-9.9-3.3-19.9-4.8-29.8C619.9,638.9,619.7,637.7,619.5,636.2z"/>
	<path class="st6" d="M1388.7,604.3c-2.8,0-5.2,0-7.6,0c-0.1-0.3-0.2-0.5-0.3-0.8c0.5-0.4,1-1,1.5-1.1c4.9-1.1,5.7-1.7,5.7-6.5
		c0.1-10.5,0.1-21,0-31.5c0-4.8-0.7-5.3-5.4-5.8c-0.6-0.1-1.2-0.7-1.9-1c0.1-0.3,0.2-0.6,0.3-0.8c8.5,0,17.1,0,25.6,0
		c0.5,0,1,0.7,1.7,1.2c-0.7,0.4-0.8,0.6-1,0.6c-6.2-0.5-6.6,1.1-6.5,6.7c0.1,10.6,0,21.2,0,31.8c0,4,0.8,4.9,4.9,5.3
		c0.8,0.1,1.6,0.5,2.4,0.8c-0.1,0.4-0.2,0.7-0.3,1.1C1401.6,604.3,1395.3,604.3,1388.7,604.3z"/>
	<path class="st8" d="M1098.4,556.7c6.4,0,12.5,0,18.6,0c0.1,0.4,0.2,0.8,0.3,1.2c-0.8,0.3-1.6,0.7-2.4,0.7c-3.9,0.2-4.8,1.1-4.8,5
		c0,11.1,0,22.3,0,33.4c0,3.6,1.4,5,4.9,5.5c0.8,0.1,1.5,0.5,2.3,0.8c-0.1,0.3-0.2,0.6-0.3,0.9c-8.9,0-17.7,0-27.5,0
		c1-0.9,1.5-1.6,2-1.8c5-1.1,5.7-1.9,5.7-6.9c0-10.5,0-21,0-31.5c0-4.1-1-5.1-5.1-5.5c-0.7-0.1-1.4-0.6-2.1-0.9
		c0.1-0.3,0.2-0.7,0.3-1C1092.8,556.7,1095.4,556.7,1098.4,556.7z"/>
	<path class="st8" d="M1733.7,579.9c0-5.4,0-10.4,0-15.4c0-5.1-0.6-5.7-5.6-5.8c-0.4,0-0.8-0.1-2.3-0.2c1.1-0.9,1.6-1.7,2.2-1.7
		c8.4-0.1,16.9-0.1,25.3-0.1c0.1,0.3,0.3,0.6,0.4,0.9c-0.6,0.4-1.2,0.9-1.9,1c-4.6,0.5-5.3,1.2-5.3,5.9c0,10.4,0,20.8,0,31.2
		c0,4.8,0.8,5.8,5.5,6.7c0.6,0.1,1.2,0.7,1.4,1.8c-8.9,0-17.7,0-26.6,0c-0.1-0.2-0.3-0.5-0.4-0.7c0.6-0.4,1.1-1,1.8-1.1
		c4.8-0.6,5.4-1.3,5.4-6.2C1733.7,590.9,1733.7,585.5,1733.7,579.9z"/>
	<path class="st9" d="M868,396.7c0.2,0.1,0.5,0.4,0.5,0.8c0,15.3-0.1,30.7-0.3,46.2C868,428.3,868,412.7,868,396.7z"/>
	<path class="st10" d="M1214.3,267.4c-0.2-0.5-0.7-1.2-0.7-2c0-14.3,0-28.5,0-42.8c0-0.5,0.2-1,0.5-1.7
		C1214.3,236.2,1214.3,251.6,1214.3,267.4z"/>
	<path class="st10" d="M1214.2,306.6c-0.2-0.4-0.6-1.1-0.6-1.8c0-9.5,0-19,0-28.5c0-0.4,0.2-0.8,0.5-1.4
		C1214.3,285.3,1214.3,295.8,1214.2,306.6z"/>
	<path class="st10" d="M1167.9,330.3c0.3-0.1,0.7,0,1.1,0.2C1168.8,330.6,1168.3,330.6,1167.9,330.3z"/>
	<path class="st10" d="M1040.7,330.7c0.1-0.2,0.4-0.4,0.8-0.6C1041.4,330.3,1041.1,330.5,1040.7,330.7z"/>
	<path class="st10" d="M1270.5,330.7c0.1-0.2,0.4-0.4,0.8-0.6C1271.2,330.3,1270.9,330.5,1270.5,330.7z"/>
	<path class="st10" d="M936.2,330.3c0.1-0.1,0.3,0,0.6,0.2C936.6,330.6,936.4,330.5,936.2,330.3z"/>
	<path class="st11" d="M576.6,294.2c2.1-4.2,0.7-7.5-2-10.8c-4.8,3-9.5,6.1-14.6,9.3c-1.5-2.3-3-4.6-4.6-7.1
		c11.9-7.6,23.6-15.1,35.5-22.8c4.2,6.8,8.4,13.2,12.2,19.9c3.3,5.8,2.2,10.9-2.5,14.7c-5,4-10.1,3.9-15.4-0.5
		c-0.4-0.3-0.8-0.6-1.4-1.1c-0.3,8.1-4.9,14.3-7.9,21.7c-1.9-2.9-3.5-5.2-4.9-7.7c-0.4-0.7-0.1-2,0.3-2.9
		C572.9,302.7,574.7,298.6,576.6,294.2 M582.6,278.2c-0.7,0.5-1.4,1.1-2.3,1.8c2.5,3.6,4.7,7,7.2,10.3c1.8,2.3,4.1,2.5,6.6,0.9
		c2.5-1.6,3.2-3.9,1.9-6.4c-2-3.7-4.4-7.2-6.7-10.9C587,275.4,585,276.7,582.6,278.2z"/>
	<path class="st11" d="M223.2,255c7.4-1,14.3,1.6,22,2.8c-2.4,2.5-4.3,4.7-6.4,6.5c-0.6,0.6-2,0.6-2.9,0.4c-4-0.6-8-1.3-12-2.1
		c-4.6-0.9-8.6-0.3-11.5,4.5c4,3.8,8.2,7.8,12.5,11.9c-1.9,2-3.8,4-5.9,6.2c-10.1-9.6-20.2-19.2-30.6-29.1
		c5.7-5.8,11.2-11.6,17.1-17.1c4.5-4.1,9.8-4,14.3-0.5c4.7,3.7,5.9,8.8,3.4,14.3c-0.2,0.4-0.4,0.8-0.8,1.5
		C222.7,254.9,223,254.9,223.2,255 M216.8,251.4c0.9-2.9-0.6-4.8-2.8-6.1c-2.3-1.4-4.4-0.5-6.1,1.2c-2.8,2.8-5.5,5.6-8.3,8.5
		c2.7,2.5,5.1,4.9,8,7.5C210.8,258.8,213.7,255.3,216.8,251.4z"/>
	<path class="st11" d="M483.4,194c-3.2,9.4-6.3,18.7-9.5,28.2c-2.5-0.8-4.9-1.3-7-2.4c-0.9-0.4-1.5-2-1.7-3.1c-2-8.6-4-17.3-6-26
		c-0.1-0.6-0.4-1.2-0.8-2.4c-3,8.8-5.8,17.1-8.7,25.7c-2.5-0.8-4.8-1.6-7.4-2.5c4.5-13.3,8.9-26.4,13.3-39.5
		c0.4-0.1,0.6-0.2,0.8-0.1c7.2,2.2,7.1,2.2,8.8,9.6c1.8,7.9,3.6,15.8,6.1,23.8c2.9-8.4,5.7-16.7,8.7-25.4c2.5,0.8,4.7,1.6,7.4,2.5
		C486,186.4,484.7,190.1,483.4,194z"/>
	<path class="st11" d="M282.7,203.5c4,5.9,6.9,11.9,5.4,19.1c-1.9,8.6-8,13.2-15.9,15.5c-7.4,2.2-13.9,0-18.9-5.7
		c-5-5.8-8.6-12.3-7.3-20.4c1.4-9.2,7.7-13.8,15.8-16.3c7.7-2.4,14.3,0.2,19.6,6.1C281.8,202.3,282.2,202.8,282.7,203.5
		 M277.9,226.2c6-7.3-2.7-22-9.9-23.4c-5.7-1.2-12.3,2.8-13.5,8.6c-1.2,5.7,1.4,10.2,4.7,14.4C264.4,232.5,271.6,232.7,277.9,226.2z
		"/>
	<path class="st11" d="M354.1,188.2c-4.5,4.4-6.2,9.2-4.3,15.2c0.4,1.3,0.3,2.7,0.5,4.4c-2.7,0.4-5.3,0.7-8.4,1.1
		c-1.8-13.9-3.5-27.6-5.3-41.7c2.9-0.4,5.5-0.7,8.4-1.1c0.8,6,1.6,11.8,2.4,18.3c1.6-2.2,2.9-3.9,4.1-5.7c1.9-2.6,4.1-5.1,5.5-7.9
		c3.2-6.7,8.7-8.4,16-7.8c-4.4,5.9-8.8,11.8-13.3,17.8c6.5,7.7,12.9,15.3,19.7,23.4c-3.7,0.5-6.8,1-10,1.1c-0.8,0-1.8-1-2.4-1.7
		c-3.6-4.5-7.1-9.2-10.7-13.7C355.9,189.1,355,188.6,354.1,188.2z"/>
	<path class="st12" d="M578.5,249c1.1,1,1.8,1.8,0.4,3c-1.3,1.1-2.5,2.3-3.9,3.7c-5.2-5.5-10.3-10.8-15.6-16.3
		c-2.2,2.1-4.3,4.1-6.8,6.4c4.8,5,9.5,10,14.2,14.9c-1.6,1.8-3.1,3.6-4.7,5.4c-5-5.2-9.7-10.2-14.6-15.3c-2.8,2.6-5.4,5.1-8.2,7.8
		c5.4,5.7,10.7,11.2,16.1,17c-1.8,1.7-3.4,3.2-5.2,4.9c-7.4-7.7-14.6-15.3-22-23.1c10.2-9.7,20.3-19.3,30.4-29
		C565.3,235.2,571.8,242,578.5,249z"/>
	<path class="st11" d="M171.1,282c2.7-4.2,5.3-8.3,8.1-12.6c2,1.2,3.8,2.4,6,3.8c-4,6.3-8,12.4-12.2,19.1c2.6,1.7,5.2,3.3,7.8,5
		c3.8-5.9,7.5-11.7,11.4-17.7c2.1,1.3,3.9,2.5,5.9,3.8c-3.8,5.9-7.4,11.7-11.3,17.7c3.1,2,6.3,4,9.5,6.1c4.3-6.6,8.4-13.1,12.7-19.7
		c2,1.3,3.9,2.5,6,3.8c-5.8,9-11.4,17.8-17.2,26.9c-11.9-7.6-23.5-15.1-35.4-22.7C165.3,291,168.1,286.6,171.1,282z"/>
	<path class="st11" d="M138.5,412.2c1.7-0.5,3.3-0.9,5.2-1.4c0.2,2.9,0.4,5.6,0.6,8.1c-5.5,3.2-6.9,5.6-5.4,11
		c0.5,1.6,2.4,2.9,3.6,4.3c1.3-1.2,3.3-2.2,3.8-3.7c1.6-4.4,2.3-9.1,4-13.5c3-7.9,12.7-10.4,19.1-5c2.1,1.8,3.9,4.7,4.6,7.4
		c0.9,3.4,1,7.2,0.7,10.8c-0.7,7.4-5.3,11.6-13.6,13.1c-0.4-2.6-0.7-5.2-1.1-7.7c7.1-3.5,9-7,7.4-12.9c-0.8-2.7-2.3-4.8-5.2-4.9
		c-3.1-0.2-4.1,2.2-4.8,4.7c-1,3.7-1.8,7.5-3,11.1c-2.1,6.1-6.3,9-12,8.6c-5.1-0.3-9.2-4-10.2-10c-0.6-3.6-0.5-7.5-0.1-11.2
		C132.4,417.2,134.6,414.1,138.5,412.2z"/>
	<path class="st11" d="M599.5,321.2c0.3-6.6,3.3-10.8,8.5-12.1c4.9-1.3,9.9,0.9,13,6c2.8,4.5,4.7,9.4,3.7,14.9
		c-0.8,4.4-3.5,7.2-7.5,9c-0.7-1.6-1.3-3.1-2.1-4.5c-1.1-2-1.2-3.5,0.9-5.1c3.9-3.3-0.6-11.8-3.8-12.7c-2.1-0.5-4.1,1-4.1,3.7
		c0,3,0.5,6,0.7,9c0.1,1.8,0.4,3.6,0.4,5.4c0,6-2.9,10.1-8.3,12c-5.1,1.8-10.3,0.4-13.9-4c-3.6-4.4-5.6-9.4-5.8-15
		c-0.2-6.2,3.2-10.4,8.8-13.4c1.2,2.4,2.4,4.6,3.7,7c-0.3,0.3-0.6,0.7-1,1.1c-4.8,4.1-5.2,9.3-1.1,14.1c1.7,2,3.9,3.2,6.5,2
		c2.5-1.1,2.7-3.4,2.5-5.7C600.3,329.2,599.9,325.3,599.5,321.2z"/>
	<path class="st11" d="M325.8,209.4c-3.8-4.6-3.8-4.6-9.3-2.7c-2.8,1-5.7,1.8-8.4,3c-0.9,0.4-1.4,1.7-2,2.6c-0.1,0.1,0,0.4,0,0.6
		c-0.2,8.3-0.2,8.3-8.7,10.1c0.4-10.2,0.8-20.3,1.3-30.4c0.2-3.9,0.4-7.7,0.4-11.6c0-2,0.6-3,2.6-3.6c6.1-2,6.1-2.1,10.2,2.8
		c8.3,9.8,16.7,19.5,25,29.3C330.5,213.2,328.8,213.2,325.8,209.4 M306.5,190.2c0,4.1,0,8.1,0,12.4c3.3-1.1,6.8-2.3,10.6-3.6
		c-3.5-4.3-6.8-8.2-10.6-12.8C306.6,187.9,306.6,188.8,306.5,190.2z"/>
	<path class="st11" d="M435.2,194.7c-1.9,14.7-13.8,15.2-24.9,11.4c-5.3-1.8-8.4-6-8.1-11.6c0.7-10.3,2.1-20.6,3.2-31.3
		c3.1,0.4,5.7,0.7,8.6,1c-0.9,7.3-1.8,14.5-2.7,21.7c-0.3,2.2-0.6,4.5-0.7,6.7c-0.2,4.6,2.6,7.4,7.8,8c4.4,0.5,7.3-1.4,8-5.9
		c1.2-7.7,2.1-15.5,3.2-23.2c0.2-1.6,0.5-3.2,0.7-5.1c2.7,0.3,5.3,0.6,8.4,1C437.6,176.4,436.4,185.4,435.2,194.7z"/>
	<path class="st11" d="M520.9,230.3c7-5.1,13.8-10.2,20.8-15.3c2.3,1.6,4.7,3.3,7.4,5.2c-12.3,8.6-24.3,17.1-36.3,25.4
		c-0.4-0.1-0.6-0.1-0.8-0.2c-7-4.8-7-4.8-4.7-13c3.2-11.5,6.5-23,9.7-34.7c0.5,0.2,0.8,0.2,1,0.4c6.6,4.5,6.6,4.5,4.4,12.2
		c-2.3,7.7-4.5,15.3-7,23.9C517.7,232.6,519.2,231.5,520.9,230.3z"/>
	<path class="st11" d="M170.9,319.2c6.5,5.7,12.9,11.3,19.1,16.7c0,0.4,0.1,0.5,0,0.6c-2.9,8-2.9,8-11.4,7.8
		c-12-0.3-24-0.7-36.4-1.1c1.1-2.8,1.8-5.2,3-7.4c0.4-0.7,1.9-1,2.9-1c9.7,0.4,19.5,0.9,29.2,1.3c0.3-0.3,0.5-0.6,0.8-0.9
		c-0.7-0.4-1.5-0.6-2.1-1.1c-6.7-5.5-13.3-11.2-20.1-16.6c-2.3-1.8-2.8-3.3-1.3-5.8c0.8-1.3,1.2-2.9,2-4.9
		C161.4,310.9,166.1,315,170.9,319.2z"/>
	<path class="st11" d="M617.2,421c7.4-4.2,14.5-8.3,21.6-12.5c1.1-0.6,2.2-1.2,3.5-2c0,3.1,0.2,5.8-0.1,8.5
		c-0.1,0.9-1.2,1.9-2.1,2.4c-4.7,2.8-9.5,5.4-14.7,8.3c4.5,2.8,8.7,5.5,13.1,7.9c2.5,1.4,3.8,3,3.3,6.1c-0.3,1.7-0.2,3.5-0.3,5.8
		c-6.7-4.5-13.1-8.5-19.2-12.9c-3.1-2.2-6.3-3.4-10.1-3.2c-3.9,0.2-7.9,0-12,0c0-3.1,0-5.7,0-8.4C605.8,421,611.4,421,617.2,421z"/>
	<path class="st12" d="M634,394.2c-0.3-2.4-0.6-4.5-0.9-6.7c-11.6,1.5-22.9,2.9-34.6,4.4c-0.4-2.8-0.7-5.5-1.1-8.4
		c11.6-1.5,23-2.9,34.5-4.4c-0.5-4.1-0.9-8-1.4-12.3c2.2-0.3,4.4-0.6,7-1c1.4,11,2.8,21.9,4.2,33c-2.4,0.3-4.6,0.6-7,1
		C634.5,397.8,634.3,396.1,634,394.2z"/>
	<path class="st13" d="M150.8,477.2c-1.3-2.2-2.4-4.2-3.6-6.3c0.3-0.2,0.5-0.4,0.7-0.4c7.2,1.3,12.2-1.2,13.9-8.8
		c0.5,0.5,0.7,0.5,0.7,0.6c2.8,6.2,6.5,10.9,14.3,7.6c0.1,0.9,0.3,1.2,0.2,1.3c-4.2,5.4-5.5,10.9,0.7,16.4c-0.3,0.2-0.6,0.3-0.9,0.5
		c-2.3,0-4.6,0.1-6.8,0c-2-0.2-3.2,0.6-4,2.3c-1,2.1-2.3,4.1-3.7,6.5c-0.9-1.5-1.9-2.8-2.4-4.2c-1.5-3.9-4.1-5.4-8.2-4.6
		c-1.2,0.2-2.5,0-4.5,0c1.4-2.6,2.8-4.7,3.8-6.9C151.3,480.1,150.9,478.6,150.8,477.2z"/>
	<path class="st13" d="M618.7,496.1c-1.5-1.7-3-3.5-4-5.6c-1-2.1-2.4-2.7-4.5-2.5c-2.1,0.2-4.3,0-7.1,0c1.5-2.6,2.9-4.6,3.9-6.9
		c0.5-1,0.5-2.6,0-3.7c-1-2.3-2.4-4.4-4-7c2.9,0,5.3-0.1,7.6,0c2,0.2,3.1-0.5,4-2.3c1-2.1,2.3-4,3.5-6c0.4,0.2,0.7,0.3,0.7,0.4
		c2.4,6.8,6.9,9.7,15,7.3c-1.7,3-2.7,5.1-4,7c-1.3,1.8-1.1,3.2,0.1,4.9c1.2,1.8,2.2,3.8,3.6,6.3c-2.8,0-5,0.2-7.2,0
		c-2.3-0.2-3.6,0.6-4.5,2.6C621,492.5,619.8,494.2,618.7,496.1z"/>
	<path class="st12" d="M135.6,375.6c0.4-2.7,0.9-5.2,1.5-8.1c11.3,2.6,22.3,5.1,33.7,7.7c1.6-6.8,3.2-13.5,4.8-20.5
		c2.3,0.5,4.5,1,6.9,1.6c-2.2,9.6-4.4,19.1-6.7,28.9C162.4,382,149.1,378.9,135.6,375.6z"/>
	<path class="st12" d="M616.9,350.7c5.1-1.4,9.9-2.8,15-4.2c0.8,2.8,1.5,5.3,2.4,8.2c-13.5,3.8-26.8,7.6-40.4,11.5
		c-0.8-2.7-1.5-5.3-2.4-8.2C600.1,355.6,608.4,353.2,616.9,350.7z"/>
	<path class="st11" d="M154.8,391.9c6.9,0.5,13.5,1,20.3,1.6c-0.2,2.9-0.4,5.5-0.6,8.5c-14-1.1-27.8-2.1-41.9-3.2
		c0.2-2.9,0.3-5.5,0.5-8.5C140.5,390.9,147.5,391.4,154.8,391.9z"/>
	<path class="st11" d="M503.7,191c1.5,0.8,2.9,1.5,4.4,2.3c-6.4,12.4-12.7,24.7-19.1,37.4c-2.5-1.3-4.9-2.5-7.6-3.8
		c6.4-12.5,12.7-24.8,19.1-37.3C501.6,190.1,502.5,190.5,503.7,191z"/>
	<path class="st1" d="M569.4,583.1c0,4.9,0,9.5,0,14.2c-6.4-1.3-8-5.5-6.8-11.3c-4,0-7.5,0-11,0c-0.2,0.2-0.3,0.4-0.4,0.6
		c-0.4,1.4-0.8,2.8-1.1,4.2c-1.5-0.6-3.1-1.1-4.5-2c-1.3-0.9-2.5-2-3.5-3.3c-0.9-1.1-2-2.7-1.8-3.8c0.2-0.9,2.2-1.4,3.7-2.3
		c0-3.3,0-7.1,0-11.1c-4,0-7.8,0-11.9,0c0,9.7,0,19.4,0,29.2c-6-1.4-7.2-2.8-7.2-8.5c0-6.8,0-13.7,0-20.6c-2.7,0-5,0-7.6,0
		c0,4.6-0.1,9.1,0,13.6c0.1,3.7-1.2,6.8-4.5,8.7c-3.4,1.9-6.6,1.1-9.7-0.8c-4.8-2.9-8.1-6.6-7.3-12.8c0.4-2.8,0.1-5.7,0.1-8.7
		c-3.3,0-6.3,0-9.5,0c0,9.7,0,19.5,0,29.3c-6-1.7-6.8-2.8-7.3-9.5c-4.5,3-8.4,1.7-12.3-1.3c-4-3.1-6.7-6.5-5.8-11.9
		c0.3-2.1,0.1-4.2,0.1-6.5c-3.2,0-6.1,0-9.3,0c0,9.8,0,19.5,0,29.2c-7.2-0.9-7.8-5.6-6.8-11.4c-3.8,0-7.2,0-10.5,0
		c-0.8,5.4-2.5,6.2-7.1,2.9c-1.6-1.1-3-2.4-4.2-3.9c-2.1-2.6-1.4-4.3,1.9-4.9c0.8-0.2,1.5-0.7,2.2-1.1c-0.7-0.5-1.3-1.1-2.1-1.5
		c-2.2-1.3-4.6-2.3-6.5-4c-2.8-2.5-3.2-6.1-1.5-8.7c1.8-2.8,5.7-3.9,9.2-2.6c4.8,1.8,7.8,6.1,7.8,11.3c0,2,0,4.1,0,6.3
		c3.5,0,6.9,0,10.4,0c0-3.8,0-7.6,0-11.8c-4.7,0.5-9.3,0.5-10.6-5.7c1.1,0,2.2,0,3.4,0c44.4,0,88.8,0,133.2,0c5,0,5.2,0.2,7.2,5.7
		c-1.5,0-2.8,0-4.2,0c-1.3,0-2.5,0-4.1,0C569.4,573.2,569.4,578,569.4,583.1 M505.9,568.1c-0.9,0.1-1.8,0.1-3,0.2
		c0,5.3,0,10.4,0,15.5c0,2.4,1.6,3.2,3.4,2.4c1.6-0.7,3.6-2.4,3.8-3.8c0.5-4.7,0.2-9.5,0.2-14.4
		C508.8,568.1,507.7,568.1,505.9,568.1 M552.3,580c3.3,0,6.6,0,9.9,0c0-4.2,0-7.9,0-11.7c-3.8,0-7.4,0-11.4,0
		C551.1,572.4,551.4,576.2,552.3,580 M474.9,583.8c1.1-0.6,2.1-1.3,3.5-2.1c-3.5-3.3-6.7-6.3-10.6-9.8c0,3,0,4.9,0,6.8
		C467.8,584.2,469,585.1,474.9,583.8 M479.3,573.6c0-1.8,0-3.5,0-5.4c-3.6,0-6.8,0-10.8,0c3.7,3.5,7,6.5,10.8,10
		C479.3,576.4,479.3,575.3,479.3,573.6 M421.9,569.8c0.5,3.2,2.5,4.7,6,5.7c0-2.6,0.1-5,0-7.3c-0.2-2.6-2.3-3.5-4.3-1.8
		C422.7,567,422.4,568.3,421.9,569.8z"/>
	<path class="st14" d="M511.4,629.3c-131.1,0-261.8,0-392.8,0c-0.1-1.3-0.1-2.4-0.2-3.7c180.9,0,361.6,0,542.6,0c0,1.1,0,2.2,0,3.7
		C611.2,629.3,561.4,629.3,511.4,629.3z"/>
	<path class="st15" d="M373.6,562.4c7.4,0,14.5,0,21.6,0c5.6,0,5.6,0,8.2,5.7c-1.5,0-2.9,0-4.2,0c-1.3,0-2.6,0-4.1,0
		c0,9.8,0,19.5,0,29.3c-6.5-1.4-8.3-5.5-7-11.4c-4,0-7.5,0-11,0c-0.2,0.2-0.3,0.4-0.4,0.6c-0.4,1.4-0.8,2.8-1.1,4.1
		c-1.5-0.6-3.1-1.1-4.5-2c-1.3-0.9-2.5-2-3.5-3.3c-0.9-1.1-2-2.7-1.8-3.8c0.2-0.9,2.2-1.4,3.8-2.3c0-3.3,0-7.1,0-11c-4.1,0-8,0-12,0
		c-1.4,6.4,2.7,14.4-6.4,18.5c3.8,3.6,7.3,6.9,11,10.4c-1.4,0.8-2.5,1.5-3.8,2.3c-4.5-5.4-9.1-10.6-13.3-16.1
		c-1.1-1.5-1.3-3.8-1.9-5.7c2-0.3,4.1-0.6,6.7-1c0-2.1,0-5.2,0-8.4c-4.8,0-9.6,0-14.8,0c0,9.8,0,19.5,0,29.3
		c-5.7-1.1-8.3-4.2-6.6-10.7c-6.7,4.5-11.5,2.2-16.2-2.1c-5-4.7-2.3-10.7-3.4-16.3c-3.9,0.3-4.7-2.9-6.4-6
		C326.4,562.4,349.9,562.4,373.6,562.4 M328,578.4c0-3.4,0-6.7,0-10.2c-4.1,0-7.9,0-12,0c0,4.5-0.2,8.9,0.1,13.2
		c0.1,0.9,1.9,2.4,2.9,2.4C322.8,583.9,325.8,582.1,328,578.4 M388,577.6c0-3.1,0-6.1,0-9.3c-4,0-7.5,0-11.1,0c0,4,0,7.8,0,11.8
		c3.2,0,6.2,0.1,9.2-0.1C386.8,579.9,387.3,578.8,388,577.6z"/>
	<path class="st16" d="M206.3,568.1c-0.7,0-1.2,0-1.6,0c-5.6,0-5.6,0-8.2-5.4c0.9-0.1,1.6-0.3,2.4-0.3c29.2,0,58.3,0.1,87.5-0.1
		c4,0,3.9,3.2,6,5.6c-3.1,0-5.7,0-8.7,0c0,10.1,0,19.8,0,30.5c-2.7-2.5-6.8-1.7-7-5.9c-0.2-3,0-6,0-9.4c-1.7,0-3.3,0.1-4.9,0
		c-3-0.2-5.7-0.2-5.2,4.2c0,0.3-1.7,1.3-2.5,1.2c-2.6-0.6-5.8-5.2-5.8-7.9c0-2.5,1.6-3.2,3.9-3.2c4.7,0,9.4,0,14.2,0c0-3.1,0-6,0-9
		c-8.6,0-17,0-25.7,0c0,9.6,0,19.3,0,29.1c-5.9-1.6-7.2-3.2-7.2-8.8c0-6.7,0-13.5,0-20.4c-4,0-7.6,0-11.6,0c0,9.8,0,19.5,0,29.7
		c-2.3-1.2-4.3-2-6-3.2c-0.7-0.4-1-1.7-1-2.7c-0.1-4.4,0-8.7,0-13.3c-3.9,0-7.4,0-10.3,0c1.3,2.9,3.6,5.9,4.1,9.2
		c0.6,4.4-3.5,5.8-7.3,7.2c2,2.8,3.9,5.3,5.9,8c-1.2,0.6-2.1,1.1-3.3,1.8c-0.7-1.4-1.3-2.7-2-4c-1.4-3-2.4-6.3-6.8-6.5
		c-1.2-0.1-2.8-1.5-3.3-2.7c-0.5-1.2-0.2-3.4,0.6-4.2c0.8-0.8,3.4-0.9,4.1-0.2c2.1,2,3.8,1.5,5.6-0.1c2-1.8,1.6-4.3,0.1-5.8
		c-2.6-2.7-5.8-4.8-9.2-7.5c0.9-0.3,2-1.1,3.2-1.1c6-0.1,12-0.1,18.3-0.1c0-1.5,0-2.9,0-4.8C218.8,568.1,212.7,568.1,206.3,568.1z"
		/>
	<path class="st16" d="M451.6,601.6c7.2,3.5,11.9,9.2,16.7,15.2c-1.7,1.6-2.7,1.2-4.2-0.5c-2.7-3.2-5.5-6.3-8.7-8.8
		c-1.9-1.4-4.8-1.9-7.2-1.9c-2.3,0-4.1,1.8-3.6,4.4c0.5,2.6,2.7,2.8,4.8,2.2c1.3-0.4,2.5-1,4-1.6c0.8,0.9,1.7,1.9,2.6,3
		c-3.3,3.5-7.3,4.1-11,1.6c-3.6-2.4-5.1-7.3-3.4-10.7C443.4,601.2,446.6,600.2,451.6,601.6z"/>
	<path class="st14" d="M572.8,609.1c-1-0.8-1.8-1.5-2.7-2.2c-2.2-1.8-4.6-2.8-7.3-0.4c-1-1.5-1.8-2.7-2.6-3.9c3.2-2.5,6-2.8,9.2-0.4
		c4.9,3.8,9.4,8,14,12.1c-1.3,2.2-2.3,2.6-3.9,1C577.5,613.3,575.2,611.3,572.8,609.1z"/>
	<path class="st16" d="M397.4,546.9c1,1,1.9,1.7,3.1,2.8c-1.7,1.6-3.2,3-5,4.7c-1.7-1.6-3.3-3-5.1-4.7c1.7-1.6,3.3-3,4.9-4.6
		C395.9,545.7,396.5,546.3,397.4,546.9z"/>
	<path class="st16" d="M283.7,554c-1.6-1.4-3-2.7-4.7-4.3c1.7-1.5,3.3-2.9,5.1-4.5c1.5,1.4,3.2,2.9,5.1,4.7
		C287.3,551.4,285.6,552.8,283.7,554z"/>
	<path class="st17" d="M452.3,325.7c-4.4,3.3-9.1,4.8-14.5,3c-7.5-2.4-10.6-10.9-9.1-17.2c2.7-11.8,13.9-15.9,24-12.7
		c2.8,0.9,5,3.6,7.5,5.6c3.4-4.2,8-7.8,13.8-10.1c4.5-1.8,6.6-7.3,5.1-10.9c-2.1-5.3-7.4-8.4-12.6-7.4c-2.3,0.5-5.4,3.7-5.2,6
		c0.1,1.4,1.6,2.7,2.3,3.9c1-2.8,1.1-5.8,2.7-7.2c3.5-3,8-0.4,8.4,4.6c0.5,6.1-2.4,10.8-7.1,11.9c-6.4,1.5-13.3-2-15.4-8.2
		c-2.9-8.5,1.9-19.2,12.2-20.9c7.6-1.3,14.2,0.9,19.2,5.8c4.9,4.8,7.1,11.3,5,18.4c-0.7,2.3,0.1,2.5,2,3c7.7,2.2,13.4,6.8,15.8,14.6
		c2.9,9.4-1,22-9.7,25.8c-9.3,4.1-22.7-2.4-22.1-14.1c0.3-6.2,7.2-12,13.1-10.9c2.7,0.5,3.9,2.9,4.1,5.3c0.1,2.1-0.9,3.9-3.6,4.3
		c-1.5,0.3-2.9,1.3-4.4,2c3.5,4.4,5.8,5.2,8.9,3.9c3.8-1.6,4.8-6.5,4.5-9.3c-0.6-6.2-3.4-10.7-9.7-12.3c-6.3-1.6-11.7,0.7-16.5,4.8
		c-5.2,4.5-7,10.4-8.2,17c-1.6,9.1-4.9,15.6-15.9,21.3c3.2,1.7,6.5,3.1,9.4,5c5.6,3.6,10.8,7.8,16.5,11.1c5.7,3.3,14.5,0.5,16.8-5.3
		c0.8-1.9,0.7-4.9-0.3-6.7c-1.3-2.3-4.1-2.9-6.8-1.7c2.5,2,3,5.2,1.3,7.5c-1.6,2.2-4.9,2.6-7.4,1c-3.1-2-4.9-5.1-4.4-8.6
		c0.7-4.6,3-8.4,8-9.7c6-1.6,11.3-0.1,16,3.9c5.1-5.9,11.3-7.3,18.5-4.5c4.6,1.8,9.5,7.5,9.6,13.8c0.2,7.2-3.6,11.4-9.2,13.6
		c-4.6,1.8-11.3-1-12.9-4.9c-1.2-2.9,0.2-4.9,1.9-6.3c1.9-1.5,4.4-1.2,6.3,0.6c0.5,0.4,0.9,0.9,2,1.9c0.7-1.9,1.9-3.5,1.8-4.9
		c-0.2-3.1-2.9-4.7-5.5-5.2c-1.3-0.2-3.6,1.1-4.4,2.4c-1.6,2.5-2.8,5.3-3.4,8.2c-2,8.4-10.8,15.8-19.2,15c-0.4,0-0.8,0.1-1.4,0.2
		c1.3,2.4,2.5,4.7,3.7,7c2.3-1.9,4.3-3.8,6.6-5.6c7.2-5.6,22.1-5.5,28.7,3.6c4.3,5.9,5.5,12.5,2.4,19.4c-2.8,6.2-7.9,8.7-14.6,8.9
		c-9.8,0.4-13.6-5.7-13.2-12.6c0.3-4.7,4.3-8.5,8.7-8.8c2.6-0.2,4.3,0.9,4.7,3.2c0.4,2.3,1,5-2.3,6.1c-0.4,0.1-0.7,0.4-1.3,1.5
		c1.7,0.3,3.7,1.2,5,0.6c1.8-0.8,4.1-2.8,4.3-4.4c1-10.3-5.1-12.7-13.1-11.2c-6.4,1.2-11.3,8-11.2,14.5c0,2.8,0.6,5.7,0.6,8.5
		c0,3.2-0.8,6.4-0.5,9.5c0.3,3,1.3,6.1,2.7,8.7c1.8,3.3,7.2,3.8,9.2,1.3c0.4-0.5,0.4-1.4,0.6-2.2c-0.7-0.1-1.4-0.3-2.1-0.2
		c-2.8,0.4-5.4-1.2-6-3.8c-0.6-2.9,0.7-5,3.6-5.9c5-1.6,10.2,0.1,12.9,4.2c2.4,3.7,1.7,10.9-1.3,14.5c-5.2,6.2-19.5,7.2-24.7-1.7
		c-3.3,6-7.5,11.2-13.5,14.6c-4.9,2.8-10.3,4.2-15.9,2.7c-3.7-1-7.5-2.3-10.9-4c-3.6-1.8-5.1-5.4-6.1-9.2
		c-1.5-5.9,0.5-11.9,5.6-15.4c4.7-3.3,9.8-3.2,14.8-0.5c4.8,2.6,6.5,10.1,2.7,13c-1.4,1-3.9,0.9-5.8,0.8c-2.1-0.1-2-2-1.9-3.7
		c0.1-2.6-1.3-2.7-3.3-2c-3.3,1.3-4.3,5.3-1,8.4c4,3.7,12,3.8,16.9,1c8-4.7,11.5-12.2,13.1-20.7c2-10.8,1.3-21.5-5.1-32
		c0.6,6.8-0.5,12.4-3.3,17.6c-3.6,6.8-9.4,10.5-17,11.1c-9.1,0.6-17.3-7.1-16.9-15.8c0.5-9.6,6.5-13.2,15.1-12.4
		c3,0.3,4.7,3.2,4.1,7c-0.5,2.8-2.4,3.4-5.1,3.1c-1.9-0.2-4.3-0.1-4.5,2.9c-0.1,2.1,2.8,5,5.3,4.9c4-0.2,7.4-1.7,9.6-5.4
		c5.4-9.3,3.9-18.2-1.3-26.9c-2.9-4.9-7.7-7.5-12.3-9.7c0,3.7,0.4,7.6-0.1,11.4c-0.5,4.2-5.4,7.9-9.9,8.2c-5.9,0.4-10-1.8-11.7-6.5
		c-1.8-4.9,0.2-8.3,4.8-8.3c1.9,0,3,0.6,3.4,2.6c0.1,0.9,0.7,1.6,1.1,2.4c3-0.6,3.8-2.4,3.4-4.9c-0.9-5.3-2.7-9.5-7.8-10.8
		c-1.9-0.5-3.3,0.1-3.7,1.9c-1.4,7.4-2.8,14.7-3.9,22.1c-0.9,6.1-1.6,12.3-2.2,17.5c4.6,1.7,8.8,2.7,12.4,4.7
		c5,2.9,6.8,9.9,5.7,15.6c-1.5,7.5-5.4,9.6-11.1,10.7c-6.7,1.3-12.6-5.5-10.5-11.8c0.8-2.5,2.8-3.8,5.6-3.6c2.7,0.3,4.4,2.2,4.7,5.4
		c3.3-4.1,0.3-10.6-5.4-11.1c-9.6-0.8-17.3,2.6-23.2,10.4c0.3,0.3,0.5,0.8,0.8,0.9c6,1.2,11.3,4.1,15.6,8.1
		c4.1,3.8,7.1,8.7,7.5,14.7c0.8,10.3-3.1,18.7-10.5,25.5c-6.3,5.8-13.4,10.9-19.7,16.7c-6.2,5.8-11,12.7-11.6,21.5
		c-0.7,9.6,5.8,18.8,15.5,21c11.3,2.6,22.8-4.4,23.8-16.9c0.6-6.8-5.4-14.6-12.7-15.5c-5-0.6-11,5.5-10,10.5
		c0.6,2.9,2.9,3.4,5.5,3.6c2.3,0.2,4.6,0.7,4.8,3.8c0.1,3-1.6,5.4-4.2,5.8c-5.5,0.9-11.2-2.3-14.2-7c-3.2-5.2-1-14.6,2.9-18.6
		c4.3-4.4,9.2-7.3,15.1-7.1c7.6,0.2,14.4,3.1,18.5,10c8.3,14,4.9,27.6-8.4,37.2c-4.9,1.5-9.6,3.3-14.5,4c-6.1,0.9-11.7-1.5-17.6-3.8
		c-8.4-5.3-12.3-13.1-13.8-22.5c-1.9-11.6,2.5-21.1,10.2-28.9c5.6-5.7,12.4-10.3,18.5-15.7c6-5.3,11.8-11,11.9-19.9
		c0.1-6.7-5.1-14.2-11.3-16.5c-5.3-2-10.6-3-16.1-0.8c-7.6,3-11.6,10.5-9.2,16.4c1.7,4.4,9.1,7.6,12.9,3.3c1.9-2.1,1.4-3.8,0.2-5.6
		c-1.9-3-1.7-5.2,0.6-6.8c2.5-1.7,6-1,7.6,1.5c4.2,6.6,3.1,11.8-0.7,17.2c-3.8,5.3-11.4,6.8-17.5,4.5c-6.2-2.3-10.8-6.4-12.6-12.8
		c-2.6-9,0.9-16.7,8.1-22.9c0.8-0.7,1.7-1.1,2.6-1.6c-3.2-7.5-9-11.2-17.1-10.6c-7.7,0.6-13.8,4.3-16.9,11.7
		c-2.4,5.7-2.2,13.3,3.1,16.6c1.4,0.9,4,1.4,5.1,0.6c1.7-1.2,3.4-3.5,3.7-5.5c0.3-1.8-1.1-3.9-3.7-4.6c-3.5-0.9-4.6-2.9-3.8-5.9
		c0.6-2.3,4-3.7,6.8-3.2c9.6,1.7,12.1,12.3,9.4,19.4c-3.5,9.2-9,11-16.9,10c-6.7-0.8-12.1-5.7-14.1-13.7c-0.8-3.2-0.7-6.7-1-10.2
		c-4.5,0.7-9.1,1.3-13.8,2.2c-3.3,0.7-4.8,3.6-5.1,6.5c-0.2,2.6,1.7,4.7,4.4,5.3c1.3,0.3,2.9-0.3,4.2-0.8c-3.5-1.5-5.1-3.9-4.3-6.6
		c0.7-2.4,4-3.9,6.8-3.2c7.3,1.9,9.7,10.1,4.7,15.9c-4.4,5.1-9.5,5.9-15.8,3.9c-4.4-1.4-9.9-7.5-9.2-13c0.5-4.3,1.5-8.5,2.4-13.5
		c-3.3-4.1-10.7-5.5-15.6-2.1c-3.3,2.2-4.2,6.4-2,9.4c1,1.3,2.1,2.2,3.6,0.3c2.4-3,5.1-3.5,7.6-1.4c2.4,2.1,2.9,6,0.6,8.7
		c-3.8,4.6-13.4,4.8-18,0.3c-1.8-1.8-3.3-4-5.1-6.2c-5.4,0.7-11.3,0.9-15.8-4.3c-3.6-4.1-3.5-9-2.5-13.8c1-4.8,4.1-8,9-9.3
		c4.8-1.2,9.8,0.7,12,4.5c1.9,3.2,1.2,5.9-1.8,7.7c-2.6,1.5-5,0.7-7-2.5c-2.7,1.8-3.7,4.6-2.3,6.5c1.6,2.2,5.4,2.3,8.1-0.1
		c1.9-1.6,3.5-3.4,5.3-5.2c3.4-3.4,7.5-5.2,12.4-5.2c1.5,0,3,0,4.7,0c-0.3-5.8,1.6-10.4,5.6-14.3c4.9-4.8,14.9-5.3,20-1
		c3.7,3.2,4.2,10,0,13.3c-2.4,1.9-7,0.4-7.4-2.4c-0.2-1.4,0.5-3.7-1.8-3.3c-1.9,0.3-4.2,1.4-5.1,3c-2.4,4,0.2,9.3,4.7,11.1
		c8.4,3.2,15.2,0.3,21.6-5c4.3-3.5,8.4-7.3,14.2-8.6c2.9-0.7,1.9-3.3,1.7-5c-0.5-5.9-1-11.7-1.9-17.5c-1.6-9.4-3.6-18.8-5.4-28.5
		c-6.5,1.4-11.6,4-14.3,9.3c-2.1,4.2-3.7,8.8-4.5,13.4c-0.8,4.9,4.2,10.3,8.1,9.8c2.4-0.3,4.6-2.1,4.6-4.7c-0.1-2.6-1.9-3.1-4.2-3.1
		c-2.9,0-4.6-1.8-4.8-4.5c-0.1-2.6,1.9-4.8,4.6-5.1c5.8-0.6,12,3.2,13.4,8.3c2.1,7.7-0.7,13.9-6.2,16.8c-6.5,3.4-12.9,3-18.5-1.5
		c-2.4-1.9-3.7-5.1-5.6-7.7c-7.1,4.1-14.5,3.3-21.9-0.8c-3.5-1.9-7-1-10.3,1.1c-2.3,1.4-2.8,3.8-2.3,6.1c0.5,2.5,1.2,5.3,4.4,5.6
		c0.9,0.1,2-0.3,2.7-0.8c0.4-0.3,0.2-1.5,0-2.2c-1.6-4.2-1.2-5.8,1.7-7.1c3.4-1.5,5.9-0.5,7.7,3.1c2.1,4.3,2.1,8.5-1.2,12.2
		c-3.5,4-8.1,5.5-13.3,4.6c-4.5-0.8-7.6-3.6-10.1-7.4c-6,3.1-12.1,4.6-18.4,1.1c-6.4-3.6-7.9-9.5-7.1-16.2c0.7-5.4,4.2-8.8,9.4-10.5
		c5.4-1.7,12,1.3,13.9,6.6c0.8,2.2-0.1,4.1-2.1,5.2c-2.3,1.3-5.9,0.7-7.2-1.1c-0.3-0.5-0.6-1-1-1.7c-2.3,1.6-4.1,3.3-2.9,6.2
		c1.2,3.1,3.9,4.1,7.1,3c3.5-1.1,5.7-3,6.7-6.8c1.8-6.6,6.4-9.9,12.5-11.4c-0.6-3.8-1.3-7.6-1.8-11.4c-0.5-3.4-0.4-7-1.4-10.2
		c-1.2-3.9-6.4-6.5-10.4-5.9c-5.2,0.7-8.8,4-9.4,8.7c-0.5,3.7,3.9,7.7,7.5,6.7c1.7-0.5,1.8-1.4,0.9-2.9c-1.3-2.2-0.6-3.9,1.7-5
		c2.8-1.3,5.3-0.9,6.5,1.3c1.8,3.4,2.1,7.1,0,10.5c-1.9,3.2-4.8,5-8.8,5.2c-7.6,0.3-13.6-2.3-16.7-9.4c-2.4-5.5-0.9-10.9,2.1-15.9
		c4-6.6,13.7-10.4,22.6-8.1c4.5,1.2,8.4,3.3,11.5,7.2c4.2-3.2,8.5-6.6,14.5-6.2c5.5,0.4,10,2.5,12.5,7.5c2.6,5.2,2.1,10.3-1.7,14.9
		c-3,3.7-10.2,4.7-13.7,1.6c-2.1-1.9-1.9-4.3-0.7-6.7c1-2.2,2.7-2.5,4.9-2c1,0.2,2-0.1,3.2-0.2c-1.4-5.8-7.1-6.4-10.6-2.8
		c-6.2,6.4-7.2,19.2,1.8,24.4c6,3.5,13,2.5,16-3.2c1.5-2.8,1.9-6.3,3-9.4c0.7-2,1.4-4.2,2.8-5.8c5.7-6.8,5.3-14.8,3.4-22.4
		c-2.2-8.8-6.3-16.8-13.5-22.8c-5.8-4.8-12.4-7.3-20-5.2c-5.2,1.4-9.7,7.1-8.5,13.4c0.4,1.9,2.3,4,4.1,5c2.7,1.5,5.5,1,7.8-3.4
		c-0.4-0.2-1.5-0.4-2.2-1c-2.3-1.8-3.1-5.4-1.5-7.2c2.6-3.1,4.8-2.9,8.3-0.8c5,3.1,6.2,8,5.1,13.1c-1.1,4.9-5.1,7.8-9.7,9.1
		c-10.9,3.2-20-2-21.7-13.9c-2.2-14.9,9.5-24.2,22.1-24.5c4.1-0.1,8.2,0.5,12.1,0.8c0.6-3.8,0.7-8.2,1.9-12.2
		c4.2-14.8,21.4-20.4,33.6-11.7c5.6,4,7.2,10.1,6.2,16.5c-0.8,5.1-4.3,8.5-9.4,10.1c-7,2.2-12.7-2-12.3-9.3c0.1-2.8,1-5.2,4.3-5.7
		c2.9-0.5,5.3,1.2,6.4,4.4c2.5-3.8,1.9-6-2-8.3c-8.8-5.1-16.1,1.3-17.6,9.2c-1.5,7.8,1.2,14.4,5.9,20.2c5.7,7,9.3,14.9,10.8,23.7
		c0.6,3.8,0.7,7.8,1.1,12.5c6.4-2.6,12.9-4.7,18.8-7.8c5.3-2.9,8-8.5,5.9-14.1c-1.5-3.8-6.3-6.7-10.2-5.6c-1.8,0.5-3.6,1.4-3.3,3.9
		c0.2,2.2,1.8,2,3.1,1.8c3.4-0.5,4.2,1.7,4.6,4.2c0.4,2.2-1.9,4.5-4.5,4.8c-6.3,0.7-11.2-1.9-12.9-6.7c-1.9-5.8,0.5-12.6,5.6-15.8
		c12.7-7.8,26.6,2.7,28,14.2c1.1,9.2-2.5,15.9-9.4,21.4c4.5,2.1,9.1,4.2,13.7,6.3c-0.4-2.8-0.7-5.8-1.2-8.7
		c-1.3-9.1,1.5-17,6.8-24.2c2.6-3.5,6.1-6.5,8.2-10.3c5.2-9.4-1.2-21.4-12.4-22.4c-2.7-0.2-5.8,0.9-8.3,2.2
		c-2.8,1.4-2.8,6.8-0.3,8.5c0.6,0.4,1.7,0.2,2.5-0.1c2.9-1,5.4,0.1,6.8,3.2c1.2,2.6,0.4,4.6-2.6,6c-9,4.1-17.8-2.2-18.2-11.3
		c-0.4-8.8,4.4-16,13.3-17.8c0.7-0.1,1.7-1.5,1.6-2.2c-0.7-4-1.2-8-2.6-11.8c-1.4-3.6-7.8-4.7-10.7-2.3c-0.8,0.7-1.3,2.2-1.2,3.3
		c0.1,0.6,1.6,1.4,2.6,1.4c3.4,0.3,5.5,1.8,5.6,4.5c0.1,2.8-2.2,5.6-5.3,5.8c-6.1,0.4-12.8-2.9-12.7-10.9c0.1-7.8,3.7-13.3,9.7-14.8
		c7.1-1.7,13.4-0.1,18.8,4.9c3-4.3,11.9-7.4,17.1-6c3.8,1,7.2,2.4,10,5.4c2.9,3.1,3.1,11.8,0.6,15.1c-3.5,4.6-10.2,6.7-14.6,4.3
		c-2.1-1.1-3.6-3.2-2.9-5.8c0.6-2.2,1.9-4.3,4.9-3.8c0.2,0,0.4,0,0.6,0c1.5-0.3,4.1,1,3.9-1.7c-0.1-1.2-2-2.8-3.4-3.3
		c-3.3-1.2-6.3-0.1-8.5,2.7c-2.6,3.2-2.7,6.8-0.8,10.2c1.5,2.6,3.6,4.9,5.7,7.1c2.4,2.4,5.1,4.5,7.7,6.8c3.5-6.6,8.3-12.1,14.6-16
		c7.9-4.9,16-7.3,25-2.6c10.1,5.3,14.3,18.6,7.4,27.8c-4.4,5.8-14,10.2-22.3,5.9c-3.7-1.9-8-9.2-7.1-13.1c0.3-1.4,2.1-3.4,3.2-3.5
		c1.9-0.1,3.9,1.1,5.7,2c0.6,0.3,1,1.4,1.2,2.2c1.2,4,4.5,5.4,7.9,3.2c2.6-1.7,5.1-3.9,4.9-7.3c-0.1-3.6-2.1-6.3-5.3-8
		c-4.7-2.7-11.5-1.4-16.9,2.6c-7.5,5.6-11,13.4-12.4,22.3c-0.3,2.2,0.1,4.7,0.8,6.8c0.2,0.8,2,1.6,3.1,1.7
		c10.8,0.4,17,9.7,17.3,19.2c0.2,6.2-0.6,12.1-5.7,16.3c-6.7,5.6-18.8,5.1-23.2-3.7c-1.9-3.9-1.3-10.6,2.4-14.1c2-1.9,4.5-1.4,6.4,0
		c2.2,1.6,2.6,3.9,1.3,6.4c-1.6,3-0.3,5.7,2.6,5.3c1.8-0.3,4.1-1.5,5.1-3c2.3-3.8,1.9-8.2-0.1-12c-1.9-3.6-5.7-5.5-9.7-5.4
		c-5.5,0.2-9.8,3.1-12.8,7.6c-6.9,10.3-4.8,24.2,1.7,33.3c9.8-6.6,20.6-10.6,32.2-12.8c6.7-1.3,13.3-3,19.8-5.2
		c4.3-1.5,6.8-5.3,8.6-10c1.8-5,2.1-9.6-0.4-14.1c-1.5-2.7-4.4-4.4-7.2-4.1c-3,0.4-5.8,2.8-6,5.9c-0.1,1.7,0.6,3.9,1.8,5
		c0.7,0.7,3.1,0.3,4.4-0.3c3.3-1.5,6.1-0.5,7.2,3.1C452.5,322.7,452.2,324.3,452.3,325.7 M391.1,403.5c-3.3,2-6.7,1.2-10.4-0.2
		c2.1,3,3.9,5.5,5.7,7.9c2-2.5,3.9-4.9,6-7.5c0.1-0.2,0.2-0.4,0.3-0.7C392.3,403.1,392,403.3,391.1,403.5 M383.2,363.2
		c-9-9.7-20.9-13.7-33.5-16.8c4.5,15.2,6.1,30.5,7.4,45.5c8.7,2.2,17.4,4.3,26.5,6.2c0.1-0.4,0.3-0.8,0.3-1.2c0-10.4,0-20.7,0-31.1
		C383.9,365,383.6,364.3,383.2,363.2 M404.3,352.7c-3.7,2.4-7.5,4.8-11.3,7c-2.7,1.7-4.2,3.7-4.1,7.2c0.3,8,0.1,16.1,0.1,24.1
		c0,2.4,0,4.8,0,7.1c9-2.1,17.6-4.1,26.3-6.1c1.8-15.2,3-30.7,7.9-46.5C416.6,348,410.7,350.4,404.3,352.7z"/>
	<path class="st18" d="M582.8,278.1c2.2-1.4,4.2-2.7,6.5-4.1c2.3,3.7,4.7,7.2,6.7,10.9c1.3,2.5,0.6,4.8-1.9,6.4
		c-2.4,1.5-4.8,1.4-6.6-0.9c-2.5-3.2-4.7-6.7-7.2-10.3C581.2,279.3,581.9,278.8,582.8,278.1z"/>
	<path class="st19" d="M216.7,251.6c-3,3.7-6,7.2-9.1,10.9c-2.8-2.7-5.3-5-8-7.5c2.8-2.9,5.5-5.8,8.3-8.5c1.7-1.7,3.8-2.6,6.1-1.2
		C216.3,246.6,217.7,248.5,216.7,251.6z"/>
	<path class="st2" d="M223.1,254.9c-0.1,0.1-0.4,0-0.6-0.3C222.7,254.6,222.8,254.7,223.1,254.9z"/>
	<path class="st18" d="M277.8,226.4c-6.1,6.3-13.4,6-18.6-0.6c-3.3-4.2-5.9-8.8-4.7-14.4c1.2-5.8,7.8-9.7,13.5-8.6
		C275.2,204.3,283.9,219,277.8,226.4z"/>
	<path class="st19" d="M306.5,189.9c0-1.1,0-2,0-3.7c3.8,4.6,7,8.5,10.6,12.8c-3.8,1.3-7.3,2.4-10.6,3.6
		C306.5,198.3,306.5,194.2,306.5,189.9z"/>
	<path class="st20" d="M506.2,568.1c1.5,0,2.6,0,4,0c0,5,0.3,9.7-0.2,14.4c-0.1,1.4-2.2,3-3.8,3.8c-1.8,0.8-3.4,0-3.4-2.4
		c0-5.1,0-10.2,0-15.5C504,568.2,505,568.1,506.2,568.1z"/>
	<path class="st8" d="M552,580c-0.6-3.8-0.8-7.6-1.1-11.7c4,0,7.6,0,11.4,0c0,3.8,0,7.6,0,11.7C558.9,580,555.6,580,552,580z"/>
	<path class="st20" d="M474.6,583.8c-5.6,1.2-6.8,0.3-6.8-5.1c0-1.9,0-3.8,0-6.8c3.8,3.6,7,6.5,10.6,9.8
		C477,582.5,475.9,583.1,474.6,583.8z"/>
	<path class="st20" d="M479.3,573.9c0,1.4,0,2.5,0,4.4c-3.8-3.5-7-6.6-10.8-10c3.9,0,7.2,0,10.8,0
		C479.3,570.1,479.3,571.8,479.3,573.9z"/>
	<path class="st20" d="M421.9,569.6c0.5-1.3,0.9-2.5,1.7-3.2c1.9-1.7,4.1-0.7,4.3,1.8c0.2,2.3,0,4.6,0,7.3
		C424.4,574.5,422.4,573,421.9,569.6z"/>
	<path class="st20" d="M327.9,578.7c-2.1,3.5-5.1,5.3-8.9,5.2c-1,0-2.9-1.5-2.9-2.4c-0.3-4.3-0.1-8.7-0.1-13.2c4.1,0,7.9,0,12,0
		C328,571.7,328,575,327.9,578.7z"/>
	<path class="st8" d="M388,577.9c-0.6,0.9-1.2,2-1.8,2.1c-3,0.2-6,0.1-9.2,0.1c0-3.9,0-7.7,0-11.8c3.5,0,7.1,0,11.1,0
		C388,571.4,388,574.5,388,577.9z"/>
	<rect x="55.9" y="657.9" class="st1" width="2.4" height="1.8"/>
	<g>
		<path class="st1" d="M719.9,584.8c-0.1-0.3-0.2-0.2-0.3-0.2c-19.3,0.2-38.7,0.4-58,0.6c-0.1,0-0.2,0-0.3,0c0,1.1,0,2.2,0,3.6
			c19.4,0.1,38.8-0.1,58.2-0.3c0.2,0,0.3,0,0.5,0C719.9,587.3,719.9,586.2,719.9,584.8z"/>
		<polyline class="st1" points="716.3,584.6 715.5,586.8 720,588.4 721.3,584.5 		"/>
	</g>
</g>
</svg>
