<?xml version="1.0" encoding="UTF-8"?>
<svg id="Layer_2" data-name="Layer 2" xmlns="http://www.w3.org/2000/svg" viewBox="0 0 676.4 525.24">
  <defs>
    <style>
      .cls-1 {
        fill: #fbf9f9;
      }

      .cls-1, .cls-2, .cls-3, .cls-4, .cls-5, .cls-6, .cls-7, .cls-8, .cls-9, .cls-10, .cls-11, .cls-12, .cls-13, .cls-14, .cls-15 {
        stroke-width: 0px;
      }

      .cls-2 {
        fill: #fafcfb;
      }

      .cls-3 {
        fill: #f9fbfa;
      }

      .cls-4 {
        fill: #f8fbfa;
      }

      .cls-5 {
        fill: #8e3233;
      }

      .cls-6 {
        fill: #903637;
      }

      .cls-7 {
        fill: #036d45;
      }

      .cls-8 {
        fill: #f7f2f2;
      }

      .cls-9 {
        fill: #8d3132;
      }

      .cls-10 {
        fill: #097049;
      }

      .cls-11 {
        fill: #faf7f7;
      }

      .cls-12 {
        fill: #016c44;
      }

      .cls-13 {
        fill: #c9373c;
      }

      .cls-14 {
        fill: #fbf8f8;
      }

      .cls-15 {
        fill: #006a42;
      }
    </style>
  </defs>
  <g id="Layer_1-2" data-name="Layer 1">
    <g>
      <path class="cls-5" d="M4.7,434.4q0-.1,0,0c20.7-.1,41.4-.1,62.3-.1,0-13.6,0-27.6.3-42,1.7-.3,3.1-.3,4.5-.3h538.4v42.3h62.2q-1.2,5.3-6.2,5.3c-17.5.1-35,.1-52.4.2h-3.6v3.7h58.9c-1.6,4.4-3.1,8.4-4.6,12.5-2.9,7.9-5.7,15.7-8.5,23.6-.3.9-.2,2.3.2,3.1,3.7,7.1,7.6,14,11.4,21.1,1.5,2.7,3,5.4,4.8,8.8-28.7,0-56.8,0-85.1-.3,6.6-7.6,13.4-14.9,19.6-21.7h-38.7c-.6,0-1.3-.1-1.9-.1H109.1M4.7,434.5v-.1M109.2,490.5h-39c6.2,6.7,13,14.1,19.9,21.6-13.3.2-26.7.2-40.1.2s-27.7-.1-41.5-.1h-3.7c4-7.5,7.8-14.6,11.5-21.6,1.3-2.5,2.9-4.8,4-7.4.6-1.5.8-3.5.3-5-4.1-11.6-8.3-23.1-12.6-34.8h59.1v-3.7h-3.4c-17.6-.1-35.2-.3-52.7,0-3.9.1-5.7-1.2-6.2-5.2M518.3,437.4v-14.7h8.3c-2-5.6-2.2-5.7-7.2-5.7h-136.6c1.3,6.2,5.9,6.2,10.6,5.7v11.8h-10.4v-6.3c0-5.2-3-9.6-7.8-11.3-3.5-1.3-7.3-.1-9.2,2.6-1.7,2.6-1.3,6.2,1.5,8.7,1.9,1.7,4.3,2.6,6.5,4,.7.4,1.4,1,2.1,1.5-.7.4-1.4.9-2.2,1.1-3.2.6-4,2.3-1.9,4.9,1.2,1.5,2.7,2.8,4.2,3.9,4.6,3.3,6.3,2.5,7.1-2.9h10.5c-1,5.8-.3,10.5,6.8,11.4v-29.2h9.3c0,2.3.3,4.4-.1,6.5-.9,5.4,1.8,8.8,5.8,11.9,3.9,3,7.8,4.3,12.3,1.3.5,6.8,1.4,7.9,7.3,9.5v-29.3h9.5c0,3,.3,5.9-.1,8.7-.8,6.2,2.5,9.9,7.3,12.8,3.1,1.9,6.4,2.7,9.7.8,3.3-1.9,4.5-4.9,4.5-8.7-.1-4.5,0-9,0-13.6h7.6v20.6c0,5.7,1.2,7.2,7.2,8.5v-29.2h11.9v11.1c-1.5.9-3.6,1.4-3.7,2.3-.2,1.1.9,2.7,1.8,3.8,1,1.3,2.2,2.4,3.5,3.3,1.4.9,3,1.3,4.5,2,.4-1.4.7-2.8,1.1-4.2.1-.2.2-.3.4-.6h11c-1.2,5.9.4,10.1,6.8,11.3.1-4.5.1-9.1.1-14.3M460.6,483.9h149.2v-3.7H67.2c.1,1.3.1,2.4.2,3.7h393.2M322.2,417h-70.7c1.7,3.1,2.4,6.3,6.4,6,1,5.6-1.7,11.6,3.4,16.3,4.7,4.3,9.5,6.6,16.2,2.1-1.7,6.5.9,9.6,6.6,10.7v-29.3h14.8v8.4c-2.6.4-4.7.7-6.7,1,.6,1.9.7,4.2,1.9,5.7,4.2,5.5,8.8,10.7,13.3,16.1,1.4-.8,2.4-1.4,3.8-2.3-3.7-3.5-7.2-6.8-11-10.4,9-4.1,5-12.1,6.4-18.5h12v11c-1.6.9-3.6,1.4-3.8,2.3-.2,1.1.9,2.7,1.8,3.8,1,1.3,2.2,2.4,3.5,3.3,1.4.9,3,1.4,4.5,2,.4-1.4.7-2.8,1.1-4.1.1-.2.2-.3.4-.6h11c-1.3,5.9.5,10.1,7,11.4v-29.3h8.3q-2.7-5.7-8.2-5.7c-7.2.1-14.3.1-22,.1M155.5,422.7h18.1v4.8c-6.3,0-12.3-.1-18.3.1-1.2,0-2.4.8-3.2,1.1,3.4,2.7,6.6,4.8,9.2,7.5,1.5,1.5,1.9,4-.1,5.8-1.7,1.6-3.4,2.1-5.6.1-.8-.7-3.4-.6-4.1.2-.9.8-1.1,3-.6,4.2.4,1.2,2.1,2.6,3.3,2.7,4.4.2,5.4,3.5,6.8,6.5.6,1.3,1.3,2.6,2,4,1.3-.7,2.2-1.2,3.3-1.8-1.9-2.6-3.8-5.2-5.9-8,3.7-1.4,7.8-2.9,7.3-7.2-.4-3.3-2.7-6.3-4.1-9.2h10.3c0,4.5-.1,8.9,0,13.3,0,.9.4,2.2,1,2.7,1.7,1.2,3.7,2,6,3.2v-29.7h11.6v20.4c0,5.6,1.2,7.1,7.2,8.8v-29.1h25.7v9h-14.2c-2.2,0-3.8.7-3.9,3.2,0,2.7,3.2,7.3,5.8,7.9.7.2,2.5-.9,2.5-1.2-.6-4.4,2.1-4.4,5.2-4.2,1.6.1,3.1,0,4.9,0,0,3.4-.2,6.4,0,9.4.3,4.1,4.4,3.4,7,5.9v-30.5h8.7c-2.1-2.4-2-5.6-6-5.6-29.2.1-58.3.1-87.5.1-.8,0-1.5.2-2.4.3q2.6,5.4,8.2,5.4c.3-.1.8-.1,1.8-.1M400.2,456.2c-4.8-1.4-7.9-.4-9.7,3.1-1.7,3.4-.2,8.3,3.4,10.7s7.7,1.9,11-1.6c-.9-1-1.8-2-2.6-3-1.5.6-2.7,1.2-4,1.6-2.2.6-4.3.3-4.8-2.2s1.3-4.4,3.6-4.4,5.3.5,7.2,1.9c3.3,2.5,6.1,5.6,8.7,8.8,1.4,1.7,2.4,2,4.2.5-4.8-6.1-9.6-11.9-17-15.4M521.9,463.9c2.2,2,4.5,4,6.6,6.1,1.6,1.6,2.6,1.2,3.9-1-4.6-4-9.1-8.3-14-12.1-3.2-2.5-6-2.1-9.2.4.8,1.2,1.6,2.4,2.6,3.9,2.7-2.4,5.1-1.5,7.3.4.8.7,1.6,1.3,2.8,2.3M346.1,401.4c-.6-.5-1.3-1-2-1.6-1.6,1.5-3.2,3-4.9,4.6,1.8,1.7,3.4,3.1,5.1,4.7,1.8-1.7,3.3-3.1,5-4.7-1.1-1.1-2-1.9-3.2-3M232.8,408.7c1.7-1.4,3.4-2.7,5.3-4.2-2-1.8-3.6-3.3-5.1-4.7-1.8,1.6-3.4,3-5.1,4.5,1.7,1.6,3.1,2.9,4.9,4.4Z"/>
      <path class="cls-1" d="M8.4,440c.1-.3.2-.2.3-.2h58.3v3.6c-19.4.3-38.8.3-58.2.3h-.5c.1-1.1.1-2.3.1-3.7Z"/>
      <polyline class="cls-1" points="11.8 439.8 12.6 442 8.1 443.7 6.7 439.8"/>
      <polyline class="cls-1" points="1.4 519 4.8 512.5 10 515.2 9.5 516.1"/>
      <polyline class="cls-1" points="675.5 518.1 672.3 512.2 667.2 514.9 667.6 515.8"/>
      <path class="cls-1" d="M672.5,512.7c-.2-.3-.4-.2-.5-.2h-89.3v3.6c29.7.3,59.4.3,89.1.3h.7c0-1.2,0-2.3,0-3.7Z"/>
      <path class="cls-1" d="M6.1,512.7c.2-.3.3-.2.5-.2h87.9v3.6c-29.2.3-58.5.3-87.7.3h-.7c0-1.2,0-2.3,0-3.7Z"/>
      <path class="cls-5" d="M573.8,525.2c-.3,0-.3-.3,0-.5,3.3-3,6.3-5.7,9.3-8.5,29-.1,57.9-.3,86.9-.4,4.4,0,5.7,1.1,6.4,5.8-32.5-.9-65,.5-97.5,3.4-1.7.2-3.2.2-5.1.2Z"/>
      <path class="cls-5" d="M93.8,516.2c3.1,2.8,5.8,5.7,8.6,8.8-1.1.2-2.2.2-3.7,0-9-.9-17.6-1.8-26.3-2.3-12.2-.6-24.4-1-36.6-1.3-10-.2-19.9-.1-29.9,0-2,0-3.9.4-5.9.6v-1.1c1.6-4.7,4.8-5.3,9.2-5.2,28.2.4,56.2.4,84.6.5Z"/>
      <path class="cls-12" d="M351.2,0c1.2.2,2,.5,2.9.6,7.7.9,15.5,1.7,23.2,2.6,17.7,2.1,34.8,6.8,51.5,12.9,6.9,2.5,13.6,5.4,20.3,8.3,15.5,6.7,29.9,15.2,43.5,25,6.7,4.8,13.4,9.7,19.5,15.2,8.3,7.3,16.4,14.9,24.1,22.8,5.3,5.5,10.3,11.4,14.7,17.6,7.7,10.7,15.4,21.5,22.1,32.8,5.6,9.5,10.1,19.7,14.6,29.8,6.4,14.5,11,29.7,14.4,45.2,1.5,6.8,2.5,13.7,3.7,20.6,3.2,17.6,2.8,35.4,2.5,53.1-.2,8.3-1.2,16.6-2.5,24.8-1.7,10.6-3.7,21.3-6.5,31.7-3,11-7.1,21.8-10.8,32.6-.7,1.9-1.7,3.8-2.7,6.1-.8.5-1.3.7-1.8.7h-82.1c-.8,0-1.6-.4-2.3-.8.4-.7.7-1.3,1-1.8,8.5-12.2,14.9-25.5,19.9-39.4,3.8-10.6,7.3-21.4,8.7-32.7.9-7.5,2.8-14.9,3.1-22.4.6-17.4.1-34.7-3.6-51.9-3.3-15.1-7.7-29.9-14.5-43.8-4.8-9.8-10.4-19.4-16.6-28.4-6.2-9-13.1-17.7-20.7-25.6-7-7.3-15.1-13.7-23.1-20.1-15.6-12.4-33-21.4-51.7-28.1-10.4-3.7-20.9-6.8-31.9-8.2-8.8-1.1-17.7-2.6-26.6-3.1-11.6-.6-23.2-.3-34.6,1.9-9.8,1.9-19.6,3.8-29.2,6.4-15.6,4.2-30.2,11-44.1,19.3-12.6,7.4-24.1,16.2-34.7,26.1-12.5,11.7-23.3,24.8-32.1,39.5-5.2,8.7-10,17.7-14.1,27-4.8,10.9-8,22.4-10.8,34-3,12.8-4.3,25.7-4.7,38.7-.3,9.4,1.1,18.8,1.8,28.2.9,12.1,4,23.8,7.6,35.3,5.5,17.6,13.6,34,23.6,49.6-.6.2-1,.3-1.5.3h-82.1c-1,0-2-.4-3-.9-2.4-6.1-5-11.8-7-17.8-5.6-16.6-10.4-33.5-12.3-51-1.1-10.4-2.5-20.7-3.1-31.1-.4-7.2.4-14.5.5-21.7.1-10.7,1.2-21.2,3.3-31.7,1.9-9.7,4-19.3,6.3-28.9,3.9-16.3,10-31.9,17.6-46.7,6.7-13,14.4-25.4,22.5-37.6,5.8-8.8,12.7-16.9,19.6-24.8,5.1-5.9,10.8-11.3,16.6-16.6,6.4-5.9,12.7-12.2,19.8-17.2,12.1-8.5,24.5-16.6,37.3-24.1,13.1-7.6,27.1-13.3,41.5-18.1,13.7-4.5,27.6-8.4,41.9-10.3,9.6-1.2,19.2-2.2,28.8-3.3.5-.1,1.1-.4,1.6-.6,10.2,0,20.3,0,30.7,0M171.8,109.3c-.1-.1-.2-.2-.1-.7.2-.4.4-.8.6-1.1,2.5-5.5,1.3-10.6-3.4-14.3-4.5-3.5-9.9-3.6-14.3.5-5.9,5.4-11.3,11.3-17.1,17.1,10.4,9.9,20.4,19.5,30.6,29.1,2.1-2.2,3.9-4.2,5.9-6.2-4.3-4.1-8.5-8.1-12.5-11.9,2.9-4.7,6.9-5.4,11.5-4.5,4,.8,8,1.5,12,2.1.9.1,2.3.1,2.9-.4,2.1-1.9,4-4,6.4-6.5-7.9-1.3-14.8-3.9-22.5-3.2M525.4,149c-1.8,4.1-3.6,8.2-5.3,12.4-.4.9-.7,2.2-.3,2.9,1.3,2.5,3,4.8,4.9,7.7,3-7.5,7.6-13.6,7.9-21.7.6.5,1,.8,1.4,1.1,5.3,4.4,10.4,4.6,15.4.5,4.7-3.8,5.8-8.9,2.5-14.7-3.8-6.7-8-13.1-12.2-19.9-11.9,7.7-23.6,15.1-35.5,22.8,1.6,2.5,3.1,4.8,4.6,7.1,5.1-3.2,9.9-6.3,14.6-9.3,2.8,3.4,4.2,6.7,2,11.1M432.4,48.4c1.2-3.7,2.4-7.4,3.7-11.3-2.6-.9-4.9-1.6-7.4-2.5-2.9,8.6-5.8,17-8.7,25.4-2.5-8-4.3-15.9-6.1-23.8-1.7-7.3-1.6-7.3-8.8-9.6-.2-.1-.4.1-.8.1-4.4,13-8.8,26.2-13.3,39.5,2.6.9,4.9,1.6,7.4,2.5,2.9-8.6,5.7-16.8,8.7-25.7.4,1.2.7,1.8.8,2.4,2,8.7,3.9,17.3,6,26,.3,1.1.9,2.7,1.7,3.1,2.1,1.1,4.5,1.6,7,2.4,3.4-9.6,6.5-18.8,9.8-28.5M231.5,57.9c-.4-.5-.8-1-1.2-1.5-5.3-6-11.9-8.5-19.6-6.1-8.1,2.5-14.4,7.1-15.8,16.3-1.2,8.1,2.3,14.7,7.3,20.4s11.5,7.9,18.9,5.7c7.9-2.3,14-6.9,15.9-15.5,1.6-7.2-1.4-13.2-5.5-19.3M303.1,42.6c.7.6,1.6,1.1,2.2,1.8,3.6,4.5,7.1,9.2,10.7,13.7.6.8,1.6,1.8,2.4,1.7,3.2-.2,6.3-.7,10-1.1-6.8-8.1-13.2-15.7-19.7-23.4,4.5-6,8.8-11.8,13.3-17.8-7.2-.6-12.7,1.2-16,7.8-1.4,2.9-3.6,5.3-5.5,7.9-1.3,1.8-2.6,3.5-4.1,5.7-.9-6.5-1.6-12.3-2.4-18.3-2.9.4-5.5.7-8.4,1.1,1.8,14,3.5,27.8,5.3,41.7,3.1-.4,5.7-.8,8.4-1.1-.2-1.7-.1-3.1-.5-4.4-2.1-5.9-.3-10.8,4.3-15.3M527.2,103.4c-6.5-6.8-13-13.6-19.7-20.6-10.2,9.7-20.2,19.3-30.4,29,7.4,7.8,14.7,15.4,22,23.1,1.8-1.7,3.4-3.2,5.2-4.9-5.5-5.8-10.7-11.3-16.1-17,2.8-2.7,5.4-5.2,8.2-7.8,4.9,5.1,9.6,10.1,14.6,15.3,1.6-1.8,3.1-3.5,4.7-5.4-4.7-4.9-9.4-9.8-14.2-14.9,2.4-2.3,4.5-4.3,6.8-6.4,5.3,5.5,10.4,10.9,15.6,16.3,1.4-1.3,2.6-2.6,3.9-3.7,1.4-1,.6-1.8-.6-3M119.8,136.8c-2.8,4.4-5.6,8.8-8.5,13.4,11.9,7.6,23.5,15.1,35.4,22.7,5.8-9.1,11.5-17.9,17.2-26.9-2.1-1.3-3.9-2.5-6-3.8-4.2,6.6-8.4,13-12.7,19.7-3.3-2.1-6.4-4.1-9.5-6.1,3.9-6,7.5-11.8,11.3-17.7-2-1.3-3.9-2.5-5.9-3.8-3.8,6-7.5,11.7-11.4,17.7-2.7-1.7-5.2-3.3-7.8-5,4.2-6.6,8.2-12.8,12.2-19.1-2.2-1.4-4-2.6-6-3.8-2.8,4.2-5.4,8.3-8.3,12.7M87.2,266.9c-3.6,1.8-5.9,4.9-6.4,8.7-.5,3.7-.5,7.5.1,11.2,1,6,5.2,9.6,10.2,10,5.7.4,9.9-2.5,12-8.6,1.3-3.6,2-7.4,3-11.1.7-2.5,1.6-4.9,4.8-4.7,3,.2,4.4,2.2,5.2,4.9,1.7,5.9-.3,9.4-7.4,12.9.4,2.5.7,5.1,1.1,7.7,8.3-1.4,12.9-5.6,13.6-13.1.3-3.6.2-7.4-.7-10.8-.7-2.7-2.4-5.6-4.6-7.4-6.4-5.5-16.1-2.9-19.1,5-1.7,4.4-2.4,9.1-4,13.5-.5,1.5-2.5,2.5-3.8,3.7-1.2-1.4-3.2-2.7-3.6-4.3-1.5-5.3-.1-7.8,5.4-11-.2-2.6-.4-5.2-.6-8.1-1.7.4-3.3.8-5.2,1.5M548.4,176.1c.4,3.8.8,7.7,1.1,11.5.2,2.3,0,4.7-2.5,5.7-2.7,1.1-4.8,0-6.5-2-4.1-4.8-3.7-10,1.1-14.1.4-.3.7-.7,1-1.1-1.3-2.4-2.4-4.7-3.7-7-5.6,3-9,7.2-8.8,13.4.2,5.6,2.2,10.7,5.8,15,3.6,4.4,8.8,5.8,13.9,4,5.5-1.9,8.3-6,8.3-12,0-1.8-.2-3.6-.4-5.4-.2-3-.7-6-.7-9,0-2.7,2-4.3,4.1-3.7,3.3.8,7.7,9.4,3.8,12.7-2,1.7-2,3.1-.9,5.1.8,1.4,1.3,2.9,2.1,4.5,4-1.8,6.8-4.6,7.5-9,1-5.5-.9-10.4-3.7-14.9-3.1-5.1-8.1-7.3-13-6-5.1,1.2-8.2,5.4-8.5,12.3M274.8,64.2c2.9,3.6,4.6,3.6,11-.1-8.4-9.8-16.7-19.5-25-29.3-4.1-4.8-4.1-4.7-10.2-2.8-2,.7-2.6,1.6-2.6,3.6,0,3.9-.3,7.7-.4,11.6-.4,10.1-.8,20.3-1.3,30.4q8.5-1.8,8.7-10.1c0-.2-.1-.5,0-.6.6-.9,1.1-2.2,2-2.6,2.7-1.2,5.6-2,8.4-3,5.4-1.9,5.5-1.9,9.4,2.9M384.1,49c1.2-9,2.3-18,3.5-27.1-3.1-.3-5.7-.6-8.4-1-.3,1.9-.5,3.5-.7,5.1-1.1,7.7-2,15.5-3.2,23.2-.7,4.5-3.6,6.4-8,5.9-5.3-.6-8-3.4-7.8-8,.1-2.2.4-4.5.7-6.7.9-7.2,1.8-14.4,2.7-21.7-3-.4-5.6-.7-8.6-1-1.1,10.6-2.5,20.9-3.2,31.3-.4,5.5,2.8,9.8,8.1,11.6,11.1,3.9,23,3.3,24.9-11.6M469.6,85c-1.5,1.1-3,2.2-5.3,3.9,2.5-8.6,4.8-16.3,7-23.9q2.3-7.7-4.4-12.2c-.2-.1-.5-.2-1-.4-3.3,11.6-6.5,23.1-9.7,34.7q-2.3,8.2,4.7,13c.2.1.4.1.8.2,11.9-8.4,24-16.8,36.3-25.4-2.7-1.9-5.1-3.6-7.4-5.2-7,5-13.8,10-21,15.3M119.6,173.6c-4.6-4-9.3-8.1-14.1-12.3-.8,2-1.2,3.6-2,4.9-1.5,2.5-.9,4,1.3,5.8,6.8,5.4,13.4,11.1,20.1,16.6.6.5,1.4.7,2.1,1.1-.3.3-.5.6-.8.9-9.7-.5-19.5-.9-29.2-1.3-1,0-2.6.3-2.9,1-1.2,2.2-1.9,4.7-3,7.4,12.4.4,24.4.8,36.4,1.1q8.6.2,11.4-7.8v-.6c-6.2-5.4-12.6-10.9-19.3-16.8M565.8,275.6h-16.8v8.4c4.1,0,8,.1,12,0,3.8-.2,7,1,10.1,3.2,6.2,4.4,12.6,8.5,19.2,12.9.1-2.2,0-4.1.3-5.8.6-3-.7-4.6-3.3-6.1-4.4-2.4-8.5-5.2-13.1-7.9,5.2-2.9,10-5.6,14.7-8.3.9-.5,2-1.5,2.1-2.4.3-2.7.1-5.4.1-8.5-1.3.8-2.4,1.4-3.5,2-7,4.2-14.1,8.4-21.8,12.5M583,249.1c.2,1.7.4,3.3.7,5.3,2.5-.3,4.6-.6,7-1-1.4-11.1-2.8-22-4.2-33-2.6.4-4.7.7-7,1,.5,4.2,1,8.1,1.4,12.3-11.6,1.5-22.9,2.9-34.5,4.4.4,2.9.7,5.6,1.1,8.4,11.6-1.5,23-2.9,34.6-4.4.2,2.2.5,4.3.9,7M99.8,332c0,1.3.4,2.7-.1,3.7-.9,2.3-2.3,4.4-3.8,6.9,1.9,0,3.3.2,4.5,0,4.1-.8,6.7.8,8.2,4.6.5,1.4,1.5,2.7,2.4,4.2,1.4-2.4,2.7-4.4,3.7-6.5.9-1.8,2-2.5,4-2.3,2.3.2,4.6,0,6.8,0,.3-.2.6-.3.9-.5-6.3-5.5-4.9-11-.7-16.4.1-.1,0-.4-.2-1.3-7.8,3.4-11.5-1.3-14.3-7.6,0-.1-.2-.1-.7-.6-1.7,7.6-6.7,10.1-13.9,8.8-.1,0-.3.2-.7.4,1.3,2.1,2.5,4.1,3.9,6.6M567.7,350.5c1-1.8,2.2-3.4,3-5.3.9-2,2.2-2.9,4.5-2.6,2.2.2,4.4,0,7.2,0-1.4-2.5-2.4-4.4-3.6-6.3-1.1-1.7-1.4-3.1-.1-4.9,1.3-1.9,2.3-4,4-7-8.1,2.4-12.7-.5-15-7.3,0-.1-.3-.2-.7-.4-1.2,2-2.5,3.9-3.5,6-.9,1.8-2,2.5-4,2.3-2.3-.2-4.6,0-7.6,0,1.5,2.6,2.9,4.7,4,7,.5,1,.4,2.6,0,3.7-1,2.3-2.4,4.3-3.9,6.9,2.8,0,4.9.1,7.1,0,2.2-.2,3.5.5,4.5,2.5,1,2.1,2.5,3.9,4.1,5.4M84.7,230.4c13.3,3.1,26.6,6.2,40.1,9.4,2.3-9.8,4.4-19.2,6.7-28.9-2.4-.5-4.6-1-6.9-1.6-1.6,6.9-3.2,13.7-4.8,20.5-11.4-2.6-22.5-5.2-33.7-7.7-.7,2.8-1.2,5.3-1.4,8.3M565.6,205.4c-8.3,2.4-16.6,4.8-25.1,7.2.8,2.9,1.6,5.5,2.4,8.2,13.6-3.9,27-7.7,40.4-11.5-.8-2.9-1.6-5.4-2.4-8.2-5.2,1.5-10,2.8-15.3,4.3M103.4,246.5c-7-.5-14-1-21.3-1.6-.2,3-.3,5.6-.5,8.5,14.1,1.1,27.9,2.1,41.9,3.2.2-3,.4-5.6.6-8.5-6.9-.6-13.5-1.1-20.7-1.6M452.4,45.5c-.9-.4-1.9-.9-3-1.4-6.4,12.5-12.7,24.9-19.1,37.3,2.7,1.4,5.1,2.6,7.6,3.8,6.5-12.6,12.8-24.9,19.1-37.4-1.6-.7-2.9-1.4-4.6-2.3Z"/>
      <path class="cls-13" d="M108.9,490.5c-1.2,7.8-2.5,15.5-3.7,23.3-.6,3.6-1,7.3-1.5,11.2-.3.3-.6.3-1.1.1-3-3.1-5.8-5.9-8.5-8.8-1.2-1.2-2.3-2.5-3.8-4-7.1-7.6-13.8-15-20.1-21.7,12-.1,25.3-.1,38.7-.1Z"/>
      <path class="cls-9" d="M67,388.1v-6.5h18.4c1.3.2,2.3.6,3.3.6h82.1c.4,0,.8-.1,1.8-.4,52.9-.2,105.3-.2,157.7-.2,1.3,0,2.6-.1,4.1,0,5.8,2.2,11.5,4.6,17.6,3.8,4.9-.7,9.6-2.5,14.7-3.8h132.8c.8.2,1.6.6,2.4.6h82.1c.5,0,1-.2,1.8-.4,8.2-.2,16.2-.2,24.6-.2,0,2.1,0,4-.3,6.2-1,.3-1.8.3-2.5.3H70.4c-1.3.1-2.3,0-3.4,0Z"/>
      <path class="cls-1" d="M67,388.4c1.1-.3,2.1-.2,3.2-.2h539.7c.3,1.1.3,2.2.3,3.6-179.5.3-359,.3-538.5.3h-4.5c-.2-1.2-.2-2.3-.2-3.7Z"/>
      <path class="cls-13" d="M568.4,490.8c13.3-.3,26.7-.3,38.6-.3-6.2,6.7-13,14.1-19.9,21.6-1.4,1.3-2.7,2.5-4,3.8-3,3-6,5.8-9.3,8.6-1.8-9.9-3.3-19.9-4.8-29.8-.2-1.2-.4-2.4-.6-3.9Z"/>
      <path class="cls-3" d="M525.5,148.8c2.1-4.2.7-7.5-2-10.8-4.8,3-9.5,6.1-14.6,9.3-1.5-2.3-3-4.6-4.6-7.1,11.9-7.6,23.6-15.1,35.5-22.8,4.2,6.8,8.4,13.2,12.2,19.9,3.3,5.8,2.2,10.9-2.5,14.7-5,4-10.1,3.9-15.4-.5-.4-.3-.8-.6-1.4-1.1-.3,8.1-4.9,14.3-7.9,21.7-1.9-2.9-3.5-5.2-4.9-7.7-.4-.7-.1-2,.3-2.9,1.6-4.2,3.4-8.3,5.3-12.7M531.5,132.8c-.7.5-1.4,1.1-2.3,1.8,2.5,3.6,4.7,7,7.2,10.3,1.8,2.3,4.1,2.5,6.6.9s3.2-3.9,1.9-6.4c-2-3.7-4.4-7.2-6.7-10.9-2.3,1.5-4.3,2.8-6.7,4.3Z"/>
      <path class="cls-3" d="M172.1,109.6c7.4-1,14.3,1.6,22,2.8-2.4,2.5-4.3,4.7-6.4,6.5-.6.6-2,.6-2.9.4-4-.6-8-1.3-12-2.1-4.6-.9-8.6-.3-11.5,4.5,4,3.8,8.2,7.8,12.5,11.9-1.9,2-3.8,4-5.9,6.2-10.1-9.6-20.2-19.2-30.6-29.1,5.7-5.8,11.2-11.6,17.1-17.1,4.5-4.1,9.8-4,14.3-.5,4.7,3.7,5.9,8.8,3.4,14.3-.2.4-.4.8-.8,1.5.3.6.6.6.8.7M165.7,106c.9-2.9-.6-4.8-2.8-6.1-2.3-1.4-4.4-.5-6.1,1.2-2.8,2.8-5.5,5.6-8.3,8.5,2.7,2.5,5.1,4.9,8,7.5,3.2-3.7,6.1-7.2,9.2-11.1Z"/>
      <path class="cls-3" d="M432.3,48.6c-3.2,9.4-6.3,18.7-9.5,28.2-2.5-.8-4.9-1.3-7-2.4-.9-.4-1.5-2-1.7-3.1-2-8.6-4-17.3-6-26-.1-.6-.4-1.2-.8-2.4-3,8.8-5.8,17.1-8.7,25.7-2.5-.8-4.8-1.6-7.4-2.5,4.5-13.3,8.9-26.4,13.3-39.5.4-.1.6-.2.8-.1,7.2,2.2,7.1,2.2,8.8,9.6,1.8,7.9,3.6,15.8,6.1,23.8,2.9-8.4,5.7-16.7,8.7-25.4,2.5.8,4.7,1.6,7.4,2.5-1.4,4-2.7,7.7-4,11.6Z"/>
      <path class="cls-3" d="M231.6,58.1c4,5.9,6.9,11.9,5.4,19.1-1.9,8.6-8,13.2-15.9,15.5-7.4,2.2-13.9,0-18.9-5.7-5-5.8-8.6-12.3-7.3-20.4,1.4-9.2,7.7-13.8,15.8-16.3,7.7-2.4,14.3.2,19.6,6.1.4.5.8,1,1.3,1.7M226.8,80.8c6-7.3-2.7-22-9.9-23.4-5.7-1.2-12.3,2.8-13.5,8.6-1.2,5.7,1.4,10.2,4.7,14.4,5.2,6.7,12.4,6.9,18.7.4Z"/>
      <path class="cls-3" d="M303,42.8c-4.5,4.4-6.2,9.2-4.3,15.2.4,1.3.3,2.7.5,4.4-2.7.4-5.3.7-8.4,1.1-1.8-13.9-3.5-27.6-5.3-41.7,2.9-.4,5.5-.7,8.4-1.1.8,6,1.6,11.8,2.4,18.3,1.6-2.2,2.9-3.9,4.1-5.7,1.9-2.6,4.1-5.1,5.5-7.9,3.2-6.7,8.7-8.4,16-7.8-4.4,5.9-8.8,11.8-13.3,17.8,6.5,7.7,12.9,15.3,19.7,23.4-3.7.5-6.8,1-10,1.1-.8,0-1.8-1-2.4-1.7-3.6-4.5-7.1-9.2-10.7-13.7-.4-.8-1.3-1.3-2.2-1.7Z"/>
      <path class="cls-4" d="M527.4,103.6c1.1,1,1.8,1.8.4,3-1.3,1.1-2.5,2.3-3.9,3.7-5.2-5.5-10.3-10.8-15.6-16.3-2.2,2.1-4.3,4.1-6.8,6.4,4.8,5,9.5,10,14.2,14.9-1.6,1.8-3.1,3.6-4.7,5.4-5-5.2-9.7-10.2-14.6-15.3-2.8,2.6-5.4,5.1-8.2,7.8,5.4,5.7,10.7,11.2,16.1,17-1.8,1.7-3.4,3.2-5.2,4.9-7.4-7.7-14.6-15.3-22-23.1,10.2-9.7,20.3-19.3,30.4-29,6.7,6.8,13.2,13.6,19.9,20.6Z"/>
      <path class="cls-3" d="M120,136.6c2.7-4.2,5.3-8.3,8.1-12.6,2,1.2,3.8,2.4,6,3.8-4,6.3-8,12.4-12.2,19.1,2.6,1.7,5.2,3.3,7.8,5,3.8-5.9,7.5-11.7,11.4-17.7,2.1,1.3,3.9,2.5,5.9,3.8-3.8,5.9-7.4,11.7-11.3,17.7,3.1,2,6.3,4,9.5,6.1,4.3-6.6,8.4-13.1,12.7-19.7,2,1.3,3.9,2.5,6,3.8-5.8,9-11.4,17.8-17.2,26.9-11.9-7.6-23.5-15.1-35.4-22.7,2.9-4.5,5.7-8.9,8.7-13.5Z"/>
      <path class="cls-3" d="M87.4,266.8c1.7-.5,3.3-.9,5.2-1.4.2,2.9.4,5.6.6,8.1-5.5,3.2-6.9,5.6-5.4,11,.5,1.6,2.4,2.9,3.6,4.3,1.3-1.2,3.3-2.2,3.8-3.7,1.6-4.4,2.3-9.1,4-13.5,3-7.9,12.7-10.4,19.1-5,2.1,1.8,3.9,4.7,4.6,7.4.9,3.4,1,7.2.7,10.8-.7,7.4-5.3,11.6-13.6,13.1-.4-2.6-.7-5.2-1.1-7.7,7.1-3.5,9-7,7.4-12.9-.8-2.7-2.3-4.8-5.2-4.9-3.1-.2-4.1,2.2-4.8,4.7-1,3.7-1.8,7.5-3,11.1-2.1,6.1-6.3,9-12,8.6-5.1-.3-9.2-4-10.2-10-.6-3.6-.5-7.5-.1-11.2.3-3.8,2.5-6.9,6.4-8.8Z"/>
      <path class="cls-3" d="M548.4,175.8c.3-6.6,3.3-10.8,8.5-12.1,4.9-1.3,9.9.9,13,6,2.8,4.5,4.7,9.4,3.7,14.9-.8,4.4-3.5,7.2-7.5,9-.7-1.6-1.3-3.1-2.1-4.5-1.1-2-1.2-3.5.9-5.1,3.9-3.3-.6-11.8-3.8-12.7-2.1-.5-4.1,1-4.1,3.7,0,3,.5,6,.7,9,.1,1.8.4,3.6.4,5.4,0,6-2.9,10.1-8.3,12-5.1,1.8-10.3.4-13.9-4-3.6-4.4-5.6-9.4-5.8-15-.2-6.2,3.2-10.4,8.8-13.4,1.2,2.4,2.4,4.6,3.7,7-.3.3-.6.7-1,1.1-4.8,4.1-5.2,9.3-1.1,14.1,1.7,2,3.9,3.2,6.5,2,2.5-1.1,2.7-3.4,2.5-5.7-.3-3.7-.7-7.6-1.1-11.7Z"/>
      <path class="cls-3" d="M274.7,64q-3.8-4.6-9.3-2.7c-2.8,1-5.7,1.8-8.4,3-.9.4-1.4,1.7-2,2.6-.1.1,0,.4,0,.6q-.2,8.3-8.7,10.1c.4-10.2.8-20.3,1.3-30.4.2-3.9.4-7.7.4-11.6,0-2,.6-3,2.6-3.6,6.1-2,6.1-2.1,10.2,2.8,8.3,9.8,16.7,19.5,25,29.3-6.4,3.7-8.1,3.7-11.1-.1M255.4,44.8v12.4c3.3-1.1,6.8-2.3,10.6-3.6-3.5-4.3-6.8-8.2-10.6-12.8.1,1.7.1,2.6,0,4Z"/>
      <path class="cls-3" d="M384.1,49.3c-1.9,14.7-13.8,15.2-24.9,11.4-5.3-1.8-8.4-6-8.1-11.6.7-10.3,2.1-20.6,3.2-31.3,3.1.4,5.7.7,8.6,1-.9,7.3-1.8,14.5-2.7,21.7-.3,2.2-.6,4.5-.7,6.7-.2,4.6,2.6,7.4,7.8,8,4.4.5,7.3-1.4,8-5.9,1.2-7.7,2.1-15.5,3.2-23.2.2-1.6.5-3.2.7-5.1,2.7.3,5.3.6,8.4,1-1.1,9-2.3,18-3.5,27.3Z"/>
      <path class="cls-3" d="M469.8,84.9c7-5.1,13.8-10.2,20.8-15.3,2.3,1.6,4.7,3.3,7.4,5.2-12.3,8.6-24.3,17.1-36.3,25.4-.4-.1-.6-.1-.8-.2q-7-4.8-4.7-13c3.2-11.5,6.5-23,9.7-34.7.5.2.8.2,1,.4q6.6,4.5,4.4,12.2c-2.3,7.7-4.5,15.3-7,23.9,2.3-1.6,3.8-2.7,5.5-3.9Z"/>
      <path class="cls-3" d="M119.8,173.8c6.5,5.7,12.9,11.3,19.1,16.7,0,.4.1.5,0,.6q-2.9,8-11.4,7.8c-12-.3-24-.7-36.4-1.1,1.1-2.8,1.8-5.2,3-7.4.4-.7,1.9-1,2.9-1,9.7.4,19.5.9,29.2,1.3.3-.3.5-.6.8-.9-.7-.4-1.5-.6-2.1-1.1-6.7-5.5-13.3-11.2-20.1-16.6-2.3-1.8-2.8-3.3-1.3-5.8.8-1.3,1.2-2.9,2-4.9,4.8,4.1,9.5,8.2,14.3,12.4Z"/>
      <path class="cls-3" d="M566.1,275.6c7.4-4.2,14.5-8.3,21.6-12.5,1.1-.6,2.2-1.2,3.5-2,0,3.1.2,5.8-.1,8.5-.1.9-1.2,1.9-2.1,2.4-4.7,2.8-9.5,5.4-14.7,8.3,4.5,2.8,8.7,5.5,13.1,7.9,2.5,1.4,3.8,3,3.3,6.1-.3,1.7-.2,3.5-.3,5.8-6.7-4.5-13.1-8.5-19.2-12.9-3.1-2.2-6.3-3.4-10.1-3.2-3.9.2-7.9,0-12,0v-8.4c5.6,0,11.2,0,17,0Z"/>
      <path class="cls-4" d="M582.9,248.8c-.3-2.4-.6-4.5-.9-6.7-11.6,1.5-22.9,2.9-34.6,4.4-.4-2.8-.7-5.5-1.1-8.4,11.6-1.5,23-2.9,34.5-4.4-.5-4.1-.9-8-1.4-12.3,2.2-.3,4.4-.6,7-1,1.4,11,2.8,21.9,4.2,33-2.4.3-4.6.6-7,1-.2-2-.4-3.7-.7-5.6Z"/>
      <path class="cls-2" d="M99.7,331.8c-1.3-2.2-2.4-4.2-3.6-6.3.3-.2.5-.4.7-.4,7.2,1.3,12.2-1.2,13.9-8.8.5.5.7.5.7.6,2.8,6.2,6.5,10.9,14.3,7.6.1.9.3,1.2.2,1.3-4.2,5.4-5.5,10.9.7,16.4-.3.2-.6.3-.9.5-2.3,0-4.6.1-6.8,0-2-.2-3.2.6-4,2.3-1,2.1-2.3,4.1-3.7,6.5-.9-1.5-1.9-2.8-2.4-4.2-1.5-3.9-4.1-5.4-8.2-4.6-1.2.2-2.5,0-4.5,0,1.4-2.6,2.8-4.7,3.8-6.9.3-1.1-.1-2.6-.2-4Z"/>
      <path class="cls-2" d="M567.6,350.7c-1.5-1.7-3-3.5-4-5.6s-2.4-2.7-4.5-2.5-4.3,0-7.1,0c1.5-2.6,2.9-4.6,3.9-6.9.5-1,.5-2.6,0-3.7-1-2.3-2.4-4.4-4-7,2.9,0,5.3-.1,7.6,0,2,.2,3.1-.5,4-2.3,1-2.1,2.3-4,3.5-6,.4.2.7.3.7.4,2.4,6.8,6.9,9.7,15,7.3-1.7,3-2.7,5.1-4,7-1.3,1.8-1.1,3.2.1,4.9,1.2,1.8,2.2,3.8,3.6,6.3-2.8,0-5,.2-7.2,0-2.3-.2-3.6.6-4.5,2.6-.8,1.9-2,3.6-3.1,5.5Z"/>
      <path class="cls-4" d="M84.5,230.2c.4-2.7.9-5.2,1.5-8.1,11.3,2.6,22.3,5.1,33.7,7.7,1.6-6.8,3.2-13.5,4.8-20.5,2.3.5,4.5,1,6.9,1.6-2.2,9.6-4.4,19.1-6.7,28.9-13.4-3.2-26.7-6.3-40.2-9.6Z"/>
      <path class="cls-4" d="M565.8,205.3c5.1-1.4,9.9-2.8,15-4.2.8,2.8,1.5,5.3,2.4,8.2-13.5,3.8-26.8,7.6-40.4,11.5-.8-2.7-1.5-5.3-2.4-8.2,8.6-2.4,16.9-4.8,25.4-7.3Z"/>
      <path class="cls-3" d="M103.7,246.5c6.9.5,13.5,1,20.3,1.6-.2,2.9-.4,5.5-.6,8.5-14-1.1-27.8-2.1-41.9-3.2.2-2.9.3-5.5.5-8.5,7.4.6,14.4,1.1,21.7,1.6Z"/>
      <path class="cls-3" d="M452.6,45.6c1.5.8,2.9,1.5,4.4,2.3-6.4,12.4-12.7,24.7-19.1,37.4-2.5-1.3-4.9-2.5-7.6-3.8,6.4-12.5,12.7-24.8,19.1-37.3,1.1.5,2,.9,3.2,1.4Z"/>
      <path class="cls-1" d="M518.3,437.7v14.2c-6.4-1.3-8-5.5-6.8-11.3h-11c-.2.2-.3.4-.4.6-.4,1.4-.8,2.8-1.1,4.2-1.5-.6-3.1-1.1-4.5-2-1.3-.9-2.5-2-3.5-3.3-.9-1.1-2-2.7-1.8-3.8.2-.9,2.2-1.4,3.7-2.3v-11.1h-11.9v29.2c-6-1.4-7.2-2.8-7.2-8.5v-20.6h-7.6c0,4.6-.1,9.1,0,13.6.1,3.7-1.2,6.8-4.5,8.7-3.4,1.9-6.6,1.1-9.7-.8-4.8-2.9-8.1-6.6-7.3-12.8.4-2.8.1-5.7.1-8.7h-9.5v29.3c-6-1.7-6.8-2.8-7.3-9.5-4.5,3-8.4,1.7-12.3-1.3-4-3.1-6.7-6.5-5.8-11.9.3-2.1.1-4.2.1-6.5h-9.3v29.2c-7.2-.9-7.8-5.6-6.8-11.4h-10.5c-.8,5.4-2.5,6.2-7.1,2.9-1.6-1.1-3-2.4-4.2-3.9-2.1-2.6-1.4-4.3,1.9-4.9.8-.2,1.5-.7,2.2-1.1-.7-.5-1.3-1.1-2.1-1.5-2.2-1.3-4.6-2.3-6.5-4-2.8-2.5-3.2-6.1-1.5-8.7,1.8-2.8,5.7-3.9,9.2-2.6,4.8,1.8,7.8,6.1,7.8,11.3v6.3h10.4v-11.8c-4.7.5-9.3.5-10.6-5.7h136.6c5,0,5.2.2,7.2,5.7h-8.3c-.1,4.9-.1,9.7-.1,14.8M454.8,422.7c-.9.1-1.8.1-3,.2v15.5c0,2.4,1.6,3.2,3.4,2.4,1.6-.7,3.6-2.4,3.8-3.8.5-4.7.2-9.5.2-14.4-1.5.1-2.6.1-4.4.1M501.2,434.6h9.9v-11.7h-11.4c.3,4.1.6,7.9,1.5,11.7M423.8,438.4c1.1-.6,2.1-1.3,3.5-2.1-3.5-3.3-6.7-6.3-10.6-9.8v6.8c0,5.5,1.2,6.4,7.1,5.1M428.2,428.2v-5.4h-10.8c3.7,3.5,7,6.5,10.8,10v-4.6M370.8,424.4c.5,3.2,2.5,4.7,6,5.7,0-2.6.1-5,0-7.3-.2-2.6-2.3-3.5-4.3-1.8-.9.6-1.2,1.9-1.7,3.4Z"/>
      <path class="cls-8" d="M460.3,483.9H67.5c-.1-1.3-.1-2.4-.2-3.7h542.6v3.7h-149.6Z"/>
      <path class="cls-14" d="M322.5,417h21.6q5.6,0,8.2,5.7h-8.3v29.3c-6.5-1.4-8.3-5.5-7-11.4h-11c-.2.2-.3.4-.4.6-.4,1.4-.8,2.8-1.1,4.1-1.5-.6-3.1-1.1-4.5-2-1.3-.9-2.5-2-3.5-3.3-.9-1.1-2-2.7-1.8-3.8.2-.9,2.2-1.4,3.8-2.3v-11h-12c-1.4,6.4,2.7,14.4-6.4,18.5,3.8,3.6,7.3,6.9,11,10.4-1.4.8-2.5,1.5-3.8,2.3-4.5-5.4-9.1-10.6-13.3-16.1-1.1-1.5-1.3-3.8-1.9-5.7,2-.3,4.1-.6,6.7-1v-8.4h-14.8v29.3c-5.7-1.1-8.3-4.2-6.6-10.7-6.7,4.5-11.5,2.2-16.2-2.1-5-4.7-2.3-10.7-3.4-16.3-3.9.3-4.7-2.9-6.4-6,23.9-.1,47.4-.1,71.1-.1M276.9,433v-10.2h-12c0,4.5-.2,8.9.1,13.2.1.9,1.9,2.4,2.9,2.4,3.8.1,6.8-1.7,9-5.4M336.9,432.2v-9.3h-11.1v11.8c3.2,0,6.2.1,9.2-.1.7-.1,1.2-1.2,1.9-2.4Z"/>
      <path class="cls-11" d="M155.2,422.7h-1.6q-5.6,0-8.2-5.4c.9-.1,1.6-.3,2.4-.3,29.2,0,58.3.1,87.5-.1,4,0,3.9,3.2,6,5.6h-8.7v30.5c-2.7-2.5-6.8-1.7-7-5.9-.2-3,0-6,0-9.4-1.7,0-3.3.1-4.9,0-3-.2-5.7-.2-5.2,4.2,0,.3-1.7,1.3-2.5,1.2-2.6-.6-5.8-5.2-5.8-7.9,0-2.5,1.6-3.2,3.9-3.2h14.2v-9h-25.7v29.1c-5.9-1.6-7.2-3.2-7.2-8.8v-20.4h-11.6v29.7c-2.3-1.2-4.3-2-6-3.2-.7-.4-1-1.7-1-2.7-.1-4.4,0-8.7,0-13.3h-10.3c1.3,2.9,3.6,5.9,4.1,9.2.6,4.4-3.5,5.8-7.3,7.2,2,2.8,3.9,5.3,5.9,8-1.2.6-2.1,1.1-3.3,1.8-.7-1.4-1.3-2.7-2-4-1.4-3-2.4-6.3-6.8-6.5-1.2-.1-2.8-1.5-3.3-2.7s-.2-3.4.6-4.2,3.4-.9,4.1-.2c2.1,2,3.8,1.5,5.6-.1,2-1.8,1.6-4.3.1-5.8-2.6-2.7-5.8-4.8-9.2-7.5.9-.3,2-1.1,3.2-1.1,6-.1,12-.1,18.3-.1v-4.8c-5.8.1-11.9.1-18.3.1Z"/>
      <path class="cls-11" d="M400.5,456.2c7.2,3.5,11.9,9.2,16.7,15.2-1.7,1.6-2.7,1.2-4.2-.5-2.7-3.2-5.5-6.3-8.7-8.8-1.9-1.4-4.8-1.9-7.2-1.9s-4.1,1.8-3.6,4.4c.5,2.6,2.7,2.8,4.8,2.2,1.3-.4,2.5-1,4-1.6.8.9,1.7,1.9,2.6,3-3.3,3.5-7.3,4.1-11,1.6-3.6-2.4-5.1-7.3-3.4-10.7,1.8-3.3,5-4.3,10-2.9Z"/>
      <path class="cls-8" d="M521.7,463.7c-1-.8-1.8-1.5-2.7-2.2-2.2-1.8-4.6-2.8-7.3-.4-1-1.5-1.8-2.7-2.6-3.9,3.2-2.5,6-2.8,9.2-.4,4.9,3.8,9.4,8,14,12.1-1.3,2.2-2.3,2.6-3.9,1-2-2-4.3-4-6.7-6.2Z"/>
      <path class="cls-11" d="M346.3,401.5c1,1,1.9,1.7,3.1,2.8-1.7,1.6-3.2,3-5,4.7-1.7-1.6-3.3-3-5.1-4.7,1.7-1.6,3.3-3,4.9-4.6.6.6,1.2,1.2,2.1,1.8Z"/>
      <path class="cls-11" d="M232.6,408.6c-1.6-1.4-3-2.7-4.7-4.3,1.7-1.5,3.3-2.9,5.1-4.5,1.5,1.4,3.2,2.9,5.1,4.7-1.9,1.5-3.6,2.9-5.5,4.1Z"/>
      <path class="cls-15" d="M401.2,180.3c-4.4,3.3-9.1,4.8-14.5,3-7.5-2.4-10.6-10.9-9.1-17.2,2.7-11.8,13.9-15.9,24-12.7,2.8.9,5,3.6,7.5,5.6,3.4-4.2,8-7.8,13.8-10.1,4.5-1.8,6.6-7.3,5.1-10.9-2.1-5.3-7.4-8.4-12.6-7.4-2.3.5-5.4,3.7-5.2,6,.1,1.4,1.6,2.7,2.3,3.9,1-2.8,1.1-5.8,2.7-7.2,3.5-3,8-.4,8.4,4.6.5,6.1-2.4,10.8-7.1,11.9-6.4,1.5-13.3-2-15.4-8.2-2.9-8.5,1.9-19.2,12.2-20.9,7.6-1.3,14.2.9,19.2,5.8,4.9,4.8,7.1,11.3,5,18.4-.7,2.3.1,2.5,2,3,7.7,2.2,13.4,6.8,15.8,14.6,2.9,9.4-1,22-9.7,25.8-9.3,4.1-22.7-2.4-22.1-14.1.3-6.2,7.2-12,13.1-10.9,2.7.5,3.9,2.9,4.1,5.3.1,2.1-.9,3.9-3.6,4.3-1.5.3-2.9,1.3-4.4,2,3.5,4.4,5.8,5.2,8.9,3.9,3.8-1.6,4.8-6.5,4.5-9.3-.6-6.2-3.4-10.7-9.7-12.3-6.3-1.6-11.7.7-16.5,4.8-5.2,4.5-7,10.4-8.2,17-1.6,9.1-4.9,15.6-15.9,21.3,3.2,1.7,6.5,3.1,9.4,5,5.6,3.6,10.8,7.8,16.5,11.1,5.7,3.3,14.5.5,16.8-5.3.8-1.9.7-4.9-.3-6.7-1.3-2.3-4.1-2.9-6.8-1.7,2.5,2,3,5.2,1.3,7.5-1.6,2.2-4.9,2.6-7.4,1-3.1-2-4.9-5.1-4.4-8.6.7-4.6,3-8.4,8-9.7,6-1.6,11.3-.1,16,3.9,5.1-5.9,11.3-7.3,18.5-4.5,4.6,1.8,9.5,7.5,9.6,13.8.2,7.2-3.6,11.4-9.2,13.6-4.6,1.8-11.3-1-12.9-4.9-1.2-2.9.2-4.9,1.9-6.3,1.9-1.5,4.4-1.2,6.3.6.5.4.9.9,2,1.9.7-1.9,1.9-3.5,1.8-4.9-.2-3.1-2.9-4.7-5.5-5.2-1.3-.2-3.6,1.1-4.4,2.4-1.6,2.5-2.8,5.3-3.4,8.2-2,8.4-10.8,15.8-19.2,15-.4,0-.8.1-1.4.2,1.3,2.4,2.5,4.7,3.7,7,2.3-1.9,4.3-3.8,6.6-5.6,7.2-5.6,22.1-5.5,28.7,3.6,4.3,5.9,5.5,12.5,2.4,19.4-2.8,6.2-7.9,8.7-14.6,8.9-9.8.4-13.6-5.7-13.2-12.6.3-4.7,4.3-8.5,8.7-8.8,2.6-.2,4.3.9,4.7,3.2.4,2.3,1,5-2.3,6.1-.4.1-.7.4-1.3,1.5,1.7.3,3.7,1.2,5,.6,1.8-.8,4.1-2.8,4.3-4.4,1-10.3-5.1-12.7-13.1-11.2-6.4,1.2-11.3,8-11.2,14.5,0,2.8.6,5.7.6,8.5,0,3.2-.8,6.4-.5,9.5.3,3,1.3,6.1,2.7,8.7,1.8,3.3,7.2,3.8,9.2,1.3.4-.5.4-1.4.6-2.2-.7-.1-1.4-.3-2.1-.2-2.8.4-5.4-1.2-6-3.8-.6-2.9.7-5,3.6-5.9,5-1.6,10.2.1,12.9,4.2,2.4,3.7,1.7,10.9-1.3,14.5-5.2,6.2-19.5,7.2-24.7-1.7-3.3,6-7.5,11.2-13.5,14.6-4.9,2.8-10.3,4.2-15.9,2.7-3.7-1-7.5-2.3-10.9-4-3.6-1.8-5.1-5.4-6.1-9.2-1.5-5.9.5-11.9,5.6-15.4,4.7-3.3,9.8-3.2,14.8-.5,4.8,2.6,6.5,10.1,2.7,13-1.4,1-3.9.9-5.8.8-2.1-.1-2-2-1.9-3.7.1-2.6-1.3-2.7-3.3-2-3.3,1.3-4.3,5.3-1,8.4,4,3.7,12,3.8,16.9,1,8-4.7,11.5-12.2,13.1-20.7,2-10.8,1.3-21.5-5.1-32,.6,6.8-.5,12.4-3.3,17.6-3.6,6.8-9.4,10.5-17,11.1-9.1.6-17.3-7.1-16.9-15.8.5-9.6,6.5-13.2,15.1-12.4,3,.3,4.7,3.2,4.1,7-.5,2.8-2.4,3.4-5.1,3.1-1.9-.2-4.3-.1-4.5,2.9-.1,2.1,2.8,5,5.3,4.9,4-.2,7.4-1.7,9.6-5.4,5.4-9.3,3.9-18.2-1.3-26.9-2.9-4.9-7.7-7.5-12.3-9.7,0,3.7.4,7.6-.1,11.4-.5,4.2-5.4,7.9-9.9,8.2-5.9.4-10-1.8-11.7-6.5-1.8-4.9.2-8.3,4.8-8.3,1.9,0,3,.6,3.4,2.6.1.9.7,1.6,1.1,2.4,3-.6,3.8-2.4,3.4-4.9-.9-5.3-2.7-9.5-7.8-10.8-1.9-.5-3.3.1-3.7,1.9-1.4,7.4-2.8,14.7-3.9,22.1-.9,6.1-1.6,12.3-2.2,17.5,4.6,1.7,8.8,2.7,12.4,4.7,5,2.9,6.8,9.9,5.7,15.6-1.5,7.5-5.4,9.6-11.1,10.7-6.7,1.3-12.6-5.5-10.5-11.8.8-2.5,2.8-3.8,5.6-3.6,2.7.3,4.4,2.2,4.7,5.4,3.3-4.1.3-10.6-5.4-11.1-9.6-.8-17.3,2.6-23.2,10.4.3.3.5.8.8.9,6,1.2,11.3,4.1,15.6,8.1,4.1,3.8,7.1,8.7,7.5,14.7.8,10.3-3.1,18.7-10.5,25.5-6.3,5.8-13.4,10.9-19.7,16.7-6.2,5.8-11,12.7-11.6,21.5-.7,9.6,5.8,18.8,15.5,21,11.3,2.6,22.8-4.4,23.8-16.9.6-6.8-5.4-14.6-12.7-15.5-5-.6-11,5.5-10,10.5.6,2.9,2.9,3.4,5.5,3.6,2.3.2,4.6.7,4.8,3.8.1,3-1.6,5.4-4.2,5.8-5.5.9-11.2-2.3-14.2-7-3.2-5.2-1-14.6,2.9-18.6,4.3-4.4,9.2-7.3,15.1-7.1,7.6.2,14.4,3.1,18.5,10,8.3,14,4.9,27.6-8.4,37.2-4.9,1.5-9.6,3.3-14.5,4-6.1.9-11.7-1.5-17.6-3.8-8.4-5.3-12.3-13.1-13.8-22.5-1.9-11.6,2.5-21.1,10.2-28.9,5.6-5.7,12.4-10.3,18.5-15.7,6-5.3,11.8-11,11.9-19.9.1-6.7-5.1-14.2-11.3-16.5-5.3-2-10.6-3-16.1-.8-7.6,3-11.6,10.5-9.2,16.4,1.7,4.4,9.1,7.6,12.9,3.3,1.9-2.1,1.4-3.8.2-5.6-1.9-3-1.7-5.2.6-6.8,2.5-1.7,6-1,7.6,1.5,4.2,6.6,3.1,11.8-.7,17.2-3.8,5.3-11.4,6.8-17.5,4.5-6.2-2.3-10.8-6.4-12.6-12.8-2.6-9,.9-16.7,8.1-22.9.8-.7,1.7-1.1,2.6-1.6-3.2-7.5-9-11.2-17.1-10.6-7.7.6-13.8,4.3-16.9,11.7-2.4,5.7-2.2,13.3,3.1,16.6,1.4.9,4,1.4,5.1.6,1.7-1.2,3.4-3.5,3.7-5.5.3-1.8-1.1-3.9-3.7-4.6-3.5-.9-4.6-2.9-3.8-5.9.6-2.3,4-3.7,6.8-3.2,9.6,1.7,12.1,12.3,9.4,19.4-3.5,9.2-9,11-16.9,10-6.7-.8-12.1-5.7-14.1-13.7-.8-3.2-.7-6.7-1-10.2-4.5.7-9.1,1.3-13.8,2.2-3.3.7-4.8,3.6-5.1,6.5-.2,2.6,1.7,4.7,4.4,5.3,1.3.3,2.9-.3,4.2-.8-3.5-1.5-5.1-3.9-4.3-6.6.7-2.4,4-3.9,6.8-3.2,7.3,1.9,9.7,10.1,4.7,15.9-4.4,5.1-9.5,5.9-15.8,3.9-4.4-1.4-9.9-7.5-9.2-13,.5-4.3,1.5-8.5,2.4-13.5-3.3-4.1-10.7-5.5-15.6-2.1-3.3,2.2-4.2,6.4-2,9.4,1,1.3,2.1,2.2,3.6.3,2.4-3,5.1-3.5,7.6-1.4,2.4,2.1,2.9,6,.6,8.7-3.8,4.6-13.4,4.8-18,.3-1.8-1.8-3.3-4-5.1-6.2-5.4.7-11.3.9-15.8-4.3-3.6-4.1-3.5-9-2.5-13.8s4.1-8,9-9.3c4.8-1.2,9.8.7,12,4.5,1.9,3.2,1.2,5.9-1.8,7.7-2.6,1.5-5,.7-7-2.5-2.7,1.8-3.7,4.6-2.3,6.5,1.6,2.2,5.4,2.3,8.1-.1,1.9-1.6,3.5-3.4,5.3-5.2,3.4-3.4,7.5-5.2,12.4-5.2h4.7c-.3-5.8,1.6-10.4,5.6-14.3,4.9-4.8,14.9-5.3,20-1,3.7,3.2,4.2,10,0,13.3-2.4,1.9-7,.4-7.4-2.4-.2-1.4.5-3.7-1.8-3.3-1.9.3-4.2,1.4-5.1,3-2.4,4,.2,9.3,4.7,11.1,8.4,3.2,15.2.3,21.6-5,4.3-3.5,8.4-7.3,14.2-8.6,2.9-.7,1.9-3.3,1.7-5-.5-5.9-1-11.7-1.9-17.5-1.6-9.4-3.6-18.8-5.4-28.5-6.5,1.4-11.6,4-14.3,9.3-2.1,4.2-3.7,8.8-4.5,13.4-.8,4.9,4.2,10.3,8.1,9.8,2.4-.3,4.6-2.1,4.6-4.7-.1-2.6-1.9-3.1-4.2-3.1-2.9,0-4.6-1.8-4.8-4.5-.1-2.6,1.9-4.8,4.6-5.1,5.8-.6,12,3.2,13.4,8.3,2.1,7.7-.7,13.9-6.2,16.8-6.5,3.4-12.9,3-18.5-1.5-2.4-1.9-3.7-5.1-5.6-7.7-7.1,4.1-14.5,3.3-21.9-.8-3.5-1.9-7-1-10.3,1.1-2.3,1.4-2.8,3.8-2.3,6.1.5,2.5,1.2,5.3,4.4,5.6.9.1,2-.3,2.7-.8.4-.3.2-1.5,0-2.2-1.6-4.2-1.2-5.8,1.7-7.1,3.4-1.5,5.9-.5,7.7,3.1,2.1,4.3,2.1,8.5-1.2,12.2-3.5,4-8.1,5.5-13.3,4.6-4.5-.8-7.6-3.6-10.1-7.4-6,3.1-12.1,4.6-18.4,1.1-6.4-3.6-7.9-9.5-7.1-16.2.7-5.4,4.2-8.8,9.4-10.5,5.4-1.7,12,1.3,13.9,6.6.8,2.2-.1,4.1-2.1,5.2-2.3,1.3-5.9.7-7.2-1.1-.3-.5-.6-1-1-1.7-2.3,1.6-4.1,3.3-2.9,6.2,1.2,3.1,3.9,4.1,7.1,3,3.5-1.1,5.7-3,6.7-6.8,1.8-6.6,6.4-9.9,12.5-11.4-.6-3.8-1.3-7.6-1.8-11.4-.5-3.4-.4-7-1.4-10.2-1.2-3.9-6.4-6.5-10.4-5.9-5.2.7-8.8,4-9.4,8.7-.5,3.7,3.9,7.7,7.5,6.7,1.7-.5,1.8-1.4.9-2.9-1.3-2.2-.6-3.9,1.7-5,2.8-1.3,5.3-.9,6.5,1.3,1.8,3.4,2.1,7.1,0,10.5-1.9,3.2-4.8,5-8.8,5.2-7.6.3-13.6-2.3-16.7-9.4-2.4-5.5-.9-10.9,2.1-15.9,4-6.6,13.7-10.4,22.6-8.1,4.5,1.2,8.4,3.3,11.5,7.2,4.2-3.2,8.5-6.6,14.5-6.2,5.5.4,10,2.5,12.5,7.5s2.1,10.3-1.7,14.9c-3,3.7-10.2,4.7-13.7,1.6-2.1-1.9-1.9-4.3-.7-6.7,1-2.2,2.7-2.5,4.9-2,1,.2,2-.1,3.2-.2-1.4-5.8-7.1-6.4-10.6-2.8-6.2,6.4-7.2,19.2,1.8,24.4,6,3.5,13,2.5,16-3.2,1.5-2.8,1.9-6.3,3-9.4.7-2,1.4-4.2,2.8-5.8,5.7-6.8,5.3-14.8,3.4-22.4-2.2-8.8-6.3-16.8-13.5-22.8-5.8-4.8-12.4-7.3-20-5.2-5.2,1.4-9.7,7.1-8.5,13.4.4,1.9,2.3,4,4.1,5,2.7,1.5,5.5,1,7.8-3.4-.4-.2-1.5-.4-2.2-1-2.3-1.8-3.1-5.4-1.5-7.2,2.6-3.1,4.8-2.9,8.3-.8,5,3.1,6.2,8,5.1,13.1-1.1,4.9-5.1,7.8-9.7,9.1-10.9,3.2-20-2-21.7-13.9-2.2-14.9,9.5-24.2,22.1-24.5,4.1-.1,8.2.5,12.1.8.6-3.8.7-8.2,1.9-12.2,4.2-14.8,21.4-20.4,33.6-11.7,5.6,4,7.2,10.1,6.2,16.5-.8,5.1-4.3,8.5-9.4,10.1-7,2.2-12.7-2-12.3-9.3.1-2.8,1-5.2,4.3-5.7,2.9-.5,5.3,1.2,6.4,4.4,2.5-3.8,1.9-6-2-8.3-8.8-5.1-16.1,1.3-17.6,9.2-1.5,7.8,1.2,14.4,5.9,20.2,5.7,7,9.3,14.9,10.8,23.7.6,3.8.7,7.8,1.1,12.5,6.4-2.6,12.9-4.7,18.8-7.8,5.3-2.9,8-8.5,5.9-14.1-1.5-3.8-6.3-6.7-10.2-5.6-1.8.5-3.6,1.4-3.3,3.9.2,2.2,1.8,2,3.1,1.8,3.4-.5,4.2,1.7,4.6,4.2.4,2.2-1.9,4.5-4.5,4.8-6.3.7-11.2-1.9-12.9-6.7-1.9-5.8.5-12.6,5.6-15.8,12.7-7.8,26.6,2.7,28,14.2,1.1,9.2-2.5,15.9-9.4,21.4,4.5,2.1,9.1,4.2,13.7,6.3-.4-2.8-.7-5.8-1.2-8.7-1.3-9.1,1.5-17,6.8-24.2,2.6-3.5,6.1-6.5,8.2-10.3,5.2-9.4-1.2-21.4-12.4-22.4-2.7-.2-5.8.9-8.3,2.2-2.8,1.4-2.8,6.8-.3,8.5.6.4,1.7.2,2.5-.1,2.9-1,5.4.1,6.8,3.2,1.2,2.6.4,4.6-2.6,6-9,4.1-17.8-2.2-18.2-11.3-.4-8.8,4.4-16,13.3-17.8.7-.1,1.7-1.5,1.6-2.2-.7-4-1.2-8-2.6-11.8-1.4-3.6-7.8-4.7-10.7-2.3-.8.7-1.3,2.2-1.2,3.3.1.6,1.6,1.4,2.6,1.4,3.4.3,5.5,1.8,5.6,4.5.1,2.8-2.2,5.6-5.3,5.8-6.1.4-12.8-2.9-12.7-10.9.1-7.8,3.7-13.3,9.7-14.8,7.1-1.7,13.4-.1,18.8,4.9,3-4.3,11.9-7.4,17.1-6,3.8,1,7.2,2.4,10,5.4,2.9,3.1,3.1,11.8.6,15.1-3.5,4.6-10.2,6.7-14.6,4.3-2.1-1.1-3.6-3.2-2.9-5.8.6-2.2,1.9-4.3,4.9-3.8h.6c1.5-.3,4.1,1,3.9-1.7-.1-1.2-2-2.8-3.4-3.3-3.3-1.2-6.3-.1-8.5,2.7-2.6,3.2-2.7,6.8-.8,10.2,1.5,2.6,3.6,4.9,5.7,7.1,2.4,2.4,5.1,4.5,7.7,6.8,3.5-6.6,8.3-12.1,14.6-16,7.9-4.9,16-7.3,25-2.6,10.1,5.3,14.3,18.6,7.4,27.8-4.4,5.8-14,10.2-22.3,5.9-3.7-1.9-8-9.2-7.1-13.1.3-1.4,2.1-3.4,3.2-3.5,1.9-.1,3.9,1.1,5.7,2,.6.3,1,1.4,1.2,2.2,1.2,4,4.5,5.4,7.9,3.2,2.6-1.7,5.1-3.9,4.9-7.3-.1-3.6-2.1-6.3-5.3-8-4.7-2.7-11.5-1.4-16.9,2.6-7.5,5.6-11,13.4-12.4,22.3-.3,2.2.1,4.7.8,6.8.2.8,2,1.6,3.1,1.7,10.8.4,17,9.7,17.3,19.2.2,6.2-.6,12.1-5.7,16.3-6.7,5.6-18.8,5.1-23.2-3.7-1.9-3.9-1.3-10.6,2.4-14.1,2-1.9,4.5-1.4,6.4,0,2.2,1.6,2.6,3.9,1.3,6.4-1.6,3-.3,5.7,2.6,5.3,1.8-.3,4.1-1.5,5.1-3,2.3-3.8,1.9-8.2-.1-12-1.9-3.6-5.7-5.5-9.7-5.4-5.5.2-9.8,3.1-12.8,7.6-6.9,10.3-4.8,24.2,1.7,33.3,9.8-6.6,20.6-10.6,32.2-12.8,6.7-1.3,13.3-3,19.8-5.2,4.3-1.5,6.8-5.3,8.6-10,1.8-5,2.1-9.6-.4-14.1-1.5-2.7-4.4-4.4-7.2-4.1-3,.4-5.8,2.8-6,5.9-.1,1.7.6,3.9,1.8,5,.7.7,3.1.3,4.4-.3,3.3-1.5,6.1-.5,7.2,3.1.3,2.2,0,3.8.1,5.2M340,258.1c-3.3,2-6.7,1.2-10.4-.2,2.1,3,3.9,5.5,5.7,7.9,2-2.5,3.9-4.9,6-7.5.1-.2.2-.4.3-.7-.4.1-.7.3-1.6.5M332.1,217.8c-9-9.7-20.9-13.7-33.5-16.8,4.5,15.2,6.1,30.5,7.4,45.5,8.7,2.2,17.4,4.3,26.5,6.2.1-.4.3-.8.3-1.2v-31.1c0-.8-.3-1.5-.7-2.6M353.2,207.3c-3.7,2.4-7.5,4.8-11.3,7-2.7,1.7-4.2,3.7-4.1,7.2.3,8,.1,16.1.1,24.1v7.1c9-2.1,17.6-4.1,26.3-6.1,1.8-15.2,3-30.7,7.9-46.5-6.6,2.5-12.5,4.9-18.9,7.2Z"/>
      <path class="cls-7" d="M531.7,132.7c2.2-1.4,4.2-2.7,6.5-4.1,2.3,3.7,4.7,7.2,6.7,10.9,1.3,2.5.6,4.8-1.9,6.4-2.4,1.5-4.8,1.4-6.6-.9-2.5-3.2-4.7-6.7-7.2-10.3.9-.8,1.6-1.3,2.5-2Z"/>
      <path class="cls-10" d="M165.6,106.2c-3,3.7-6,7.2-9.1,10.9-2.8-2.7-5.3-5-8-7.5,2.8-2.9,5.5-5.8,8.3-8.5,1.7-1.7,3.8-2.6,6.1-1.2,2.3,1.3,3.7,3.2,2.7,6.3Z"/>
      <path class="cls-12" d="M172,109.5c-.1.1-.4,0-.6-.3.2,0,.3.1.6.3Z"/>
      <path class="cls-7" d="M226.7,81c-6.1,6.3-13.4,6-18.6-.6-3.3-4.2-5.9-8.8-4.7-14.4,1.2-5.8,7.8-9.7,13.5-8.6,7.2,1.5,15.9,16.2,9.8,23.6Z"/>
      <path class="cls-10" d="M255.4,44.5v-3.7c3.8,4.6,7,8.5,10.6,12.8-3.8,1.3-7.3,2.4-10.6,3.6v-12.7Z"/>
      <path class="cls-6" d="M455.1,422.7h4c0,5,.3,9.7-.2,14.4-.1,1.4-2.2,3-3.8,3.8-1.8.8-3.4,0-3.4-2.4v-15.5c1.2-.2,2.2-.3,3.4-.3Z"/>
      <path class="cls-9" d="M500.9,434.6c-.6-3.8-.8-7.6-1.1-11.7h11.4v11.7h-10.3Z"/>
      <path class="cls-6" d="M423.5,438.4c-5.6,1.2-6.8.3-6.8-5.1v-6.8c3.8,3.6,7,6.5,10.6,9.8-1.4.8-2.5,1.4-3.8,2.1Z"/>
      <path class="cls-6" d="M428.2,428.5v4.4c-3.8-3.5-7-6.6-10.8-10h10.8v5.6Z"/>
      <path class="cls-6" d="M370.8,424.2c.5-1.3.9-2.5,1.7-3.2,1.9-1.7,4.1-.7,4.3,1.8.2,2.3,0,4.6,0,7.3-3.5-1-5.5-2.5-6-5.9Z"/>
      <path class="cls-6" d="M276.8,433.3c-2.1,3.5-5.1,5.3-8.9,5.2-1,0-2.9-1.5-2.9-2.4-.3-4.3-.1-8.7-.1-13.2h12c0,3.4,0,6.7-.1,10.4Z"/>
      <path class="cls-9" d="M336.9,432.5c-.6.9-1.2,2-1.8,2.1-3,.2-6,.1-9.2.1v-11.8h11.1c-.1,3.1-.1,6.2-.1,9.6Z"/>
      <rect class="cls-1" x="4.8" y="512.5" width="2.4" height="1.8"/>
      <g>
        <path class="cls-1" d="M668.8,439.4c-.1-.3-.2-.2-.3-.2-19.3.2-38.7.4-58,.6h-.3v3.6c19.4.1,38.8-.1,58.2-.3h.5c-.1-1.2-.1-2.3-.1-3.7Z"/>
        <polyline class="cls-1" points="665.2 439.2 664.4 441.4 668.9 443 670.2 439.1"/>
      </g>
    </g>
  </g>
</svg>